<svg width="22" height="22" viewBox="0 0 22 22" fill="none" xmlns="http://www.w3.org/2000/svg">
<path d="M2.75 4.5835H6.41667M19.25 4.5835H10.0833M2.75 11.0002H13.75M19.25 11.0002H17.4167M2.75 17.4168H4.58333M19.25 17.4168H8.25" stroke="white" stroke-width="2" stroke-linecap="round"/>
<path d="M8.25008 6.41667C9.2626 6.41667 10.0834 5.59586 10.0834 4.58333C10.0834 3.57081 9.2626 2.75 8.25008 2.75C7.23756 2.75 6.41675 3.57081 6.41675 4.58333C6.41675 5.59586 7.23756 6.41667 8.25008 6.41667Z" stroke="white" stroke-width="2" stroke-linecap="round"/>
<path d="M15.5833 12.8332C16.5959 12.8332 17.4167 12.0124 17.4167 10.9998C17.4167 9.98732 16.5959 9.1665 15.5833 9.1665C14.5708 9.1665 13.75 9.98732 13.75 10.9998C13.75 12.0124 14.5708 12.8332 15.5833 12.8332Z" stroke="white" stroke-width="2" stroke-linecap="round"/>
<path d="M6.41659 19.2502C7.42911 19.2502 8.24992 18.4294 8.24992 17.4168C8.24992 16.4043 7.42911 15.5835 6.41659 15.5835C5.40406 15.5835 4.58325 16.4043 4.58325 17.4168C4.58325 18.4294 5.40406 19.2502 6.41659 19.2502Z" stroke="white" stroke-width="2" stroke-linecap="round"/>
</svg>
