<?xml version="1.0" encoding="utf-8"?>
<!-- Generator: Adobe Illustrator 26.5.0, SVG Export Plug-In . SVG Version: 6.00 Build 0)  -->
<svg version="1.1" id="Livello_1" xmlns="http://www.w3.org/2000/svg" xmlns:xlink="http://www.w3.org/1999/xlink" x="0px" y="0px"
	 viewBox="0 0 26.2 26.2" style="enable-background:new 0 0 26.2 26.2;" xml:space="preserve">
<style type="text/css">
	.st0{fill:url(#SVGID_1_);}
</style>
<linearGradient id="SVGID_1_" gradientUnits="userSpaceOnUse" x1="21.487" y1="50.805" x2="21.487" y2="24.555" gradientTransform="matrix(1 0 0 -1 -8.362 50.805)">
	<stop  offset="0" style="stop-color:#5E88F3"/>
	<stop  offset="1" style="stop-color:#A276FF"/>
</linearGradient>
<path class="st0" d="M0,1.9c0-0.5,0.2-1,0.5-1.3C0.9,0.2,1.4,0,1.9,0h3.8c0.5,0,1,0.2,1.3,0.5c0.4,0.4,0.5,0.8,0.5,1.3v3.8
	c0,0.5-0.2,1-0.5,1.3C6.6,7.3,6.1,7.5,5.6,7.5H1.9c-0.5,0-1-0.2-1.3-0.5C0.2,6.6,0,6.1,0,5.6V1.9z M9.4,1.9c0-0.5,0.2-1,0.5-1.3
	C10.3,0.2,10.8,0,11.2,0H15c0.5,0,1,0.2,1.3,0.5c0.4,0.4,0.5,0.8,0.5,1.3v3.8c0,0.5-0.2,1-0.5,1.3C16,7.3,15.5,7.5,15,7.5h-3.8
	c-0.5,0-1-0.2-1.3-0.5C9.6,6.6,9.4,6.1,9.4,5.6V1.9z M18.8,1.9c0-0.5,0.2-1,0.5-1.3C19.7,0.2,20.1,0,20.6,0h3.8c0.5,0,1,0.2,1.3,0.5
	c0.4,0.4,0.5,0.8,0.5,1.3v3.8c0,0.5-0.2,1-0.5,1.3c-0.4,0.4-0.8,0.5-1.3,0.5h-3.8c-0.5,0-1-0.2-1.3-0.5c-0.4-0.4-0.5-0.8-0.5-1.3
	V1.9z M0,11.2c0-0.5,0.2-1,0.5-1.3c0.4-0.4,0.8-0.5,1.3-0.5h3.8c0.5,0,1,0.2,1.3,0.5c0.4,0.4,0.5,0.8,0.5,1.3V15
	c0,0.5-0.2,1-0.5,1.3c-0.4,0.4-0.8,0.5-1.3,0.5H1.9c-0.5,0-1-0.2-1.3-0.5C0.2,16,0,15.5,0,15V11.2z M9.4,11.2c0-0.5,0.2-1,0.5-1.3
	c0.4-0.4,0.8-0.5,1.3-0.5H15c0.5,0,1,0.2,1.3,0.5c0.4,0.4,0.5,0.8,0.5,1.3V15c0,0.5-0.2,1-0.5,1.3c-0.4,0.4-0.8,0.5-1.3,0.5h-3.8
	c-0.5,0-1-0.2-1.3-0.5C9.6,16,9.4,15.5,9.4,15V11.2z M18.8,11.2c0-0.5,0.2-1,0.5-1.3c0.4-0.4,0.8-0.5,1.3-0.5h3.8
	c0.5,0,1,0.2,1.3,0.5c0.4,0.4,0.5,0.8,0.5,1.3V15c0,0.5-0.2,1-0.5,1.3c-0.4,0.4-0.8,0.5-1.3,0.5h-3.8c-0.5,0-1-0.2-1.3-0.5
	c-0.4-0.4-0.5-0.8-0.5-1.3V11.2z M0,20.6c0-0.5,0.2-1,0.5-1.3c0.4-0.4,0.8-0.5,1.3-0.5h3.8c0.5,0,1,0.2,1.3,0.5
	c0.4,0.4,0.5,0.8,0.5,1.3v3.8c0,0.5-0.2,1-0.5,1.3c-0.4,0.4-0.8,0.5-1.3,0.5H1.9c-0.5,0-1-0.2-1.3-0.5C0.2,25.3,0,24.9,0,24.4V20.6z
	 M9.4,20.6c0-0.5,0.2-1,0.5-1.3c0.4-0.4,0.8-0.5,1.3-0.5H15c0.5,0,1,0.2,1.3,0.5c0.4,0.4,0.5,0.8,0.5,1.3v3.8c0,0.5-0.2,1-0.5,1.3
	c-0.4,0.4-0.8,0.5-1.3,0.5h-3.8c-0.5,0-1-0.2-1.3-0.5c-0.4-0.4-0.5-0.8-0.5-1.3V20.6z M18.8,20.6c0-0.5,0.2-1,0.5-1.3
	c0.4-0.4,0.8-0.5,1.3-0.5h3.8c0.5,0,1,0.2,1.3,0.5c0.4,0.4,0.5,0.8,0.5,1.3v3.8c0,0.5-0.2,1-0.5,1.3c-0.4,0.4-0.8,0.5-1.3,0.5h-3.8
	c-0.5,0-1-0.2-1.3-0.5c-0.4-0.4-0.5-0.8-0.5-1.3V20.6z"/>
</svg>
