<svg width="31" height="30" viewBox="0 0 31 30" fill="none" xmlns="http://www.w3.org/2000/svg">
<g clip-path="url(#clip0_57_8725)">
<path d="M29.5464 18.6386C27.5545 26.6812 19.4083 31.5578 11.3642 29.5663C3.34563 27.5493 -1.55743 19.4046 0.459976 11.362C2.45184 3.345 10.5981 -1.55713 18.6166 0.459889C26.6607 2.45138 31.5638 10.5961 29.5464 18.6386Z" fill="#F7931A"/>
<path d="M21.6298 12.8684C21.9363 10.8769 20.4041 9.80459 18.3356 9.08969L18.9996 6.38331L17.3652 5.9748L16.7012 8.60459C16.2671 8.50246 15.833 8.40033 15.3733 8.29821L16.0373 5.64289L14.4029 5.23438L13.739 7.94076C13.3815 7.86416 13.024 7.78757 12.692 7.68544L10.4192 7.12374L9.95954 8.85991C9.95954 8.85991 11.1853 9.14076 11.1598 9.16629C11.8237 9.34501 11.9514 9.77906 11.9259 10.111L11.1598 13.2003C11.2108 13.2003 11.2619 13.2259 11.3385 13.2514C11.2874 13.2259 11.2364 13.2259 11.1598 13.2003L10.0872 17.5152C10.0106 17.7195 9.80632 18.0259 9.32112 17.8982C9.34665 17.9237 8.12089 17.5918 8.12089 17.5918L7.30371 19.4812L9.4488 20.0174C9.85739 20.1195 10.2404 20.2216 10.6235 20.3237L9.934 23.0557L11.5684 23.4642L12.2578 20.7833C12.7175 20.911 13.1516 21.0131 13.5602 21.1152L12.8963 23.7961L14.5306 24.2046L15.2201 21.4727C18.0292 22.0088 20.1487 21.7791 21.017 19.2514C21.732 17.2088 20.9914 16.0344 19.5103 15.2684C20.5828 15.0386 21.4 14.3237 21.6298 12.8684ZM17.8504 18.128C17.3397 20.1705 13.8922 19.0727 12.7941 18.7918L13.6879 15.1663C14.8115 15.4471 18.3867 16.0088 17.8504 18.128ZM18.3611 12.8429C17.9015 14.7067 15.0414 13.762 14.0965 13.5322L14.9137 10.2386C15.8585 10.4684 18.8463 10.9025 18.3611 12.8429Z" fill="white"/>
<g clip-path="url(#clip1_57_8725)">
<path d="M13.5806 0.0765648C16.7519 -0.230341 20.0256 0.511347 22.7621 2.17375C25.3453 3.73385 27.4169 6.06122 28.6445 8.79779C29.9488 11.6622 30.3069 14.9359 29.6931 18.005C29.0793 21.0996 27.4425 23.964 25.1151 26.0868C22.7877 28.2351 19.7698 29.6162 16.5985 29.9487C14.578 30.1277 12.4808 29.9743 10.5371 29.3605C7.21228 28.3374 4.24552 26.0868 2.37852 23.1712C0.792838 20.6904 -0.0511524 17.7748 -1.49244e-06 14.8592C-1.49244e-06 11.5344 1.20204 8.23513 3.27366 5.62644C5.78005 2.50623 9.56522 0.434621 13.5806 0.0765648Z" fill="#F4F2F2"/>
<path d="M14.9362 2.32715L14.7827 2.88981V19.1814L14.9362 19.3604L22.5065 14.8847L14.9362 2.32715Z" fill="#343434"/>
<path d="M14.9361 2.32715L7.36572 14.8847L14.9361 19.3604V11.432V2.32715Z" fill="#8C8C8C"/>
<path d="M14.936 20.7926L14.8337 20.8949V26.7005L14.936 26.9819L22.5064 16.3169L14.936 20.7926Z" fill="#3C3C3B"/>
<path d="M14.9361 26.9819V20.7926L7.36572 16.3169L14.9361 26.9819Z" fill="#8C8C8C"/>
<path d="M14.936 19.3605L22.5064 14.8848L14.936 11.4321V19.3605Z" fill="#141414"/>
<path d="M7.36572 14.8848L14.9361 19.3605V11.4321L7.36572 14.8848Z" fill="#393939"/>
<g clip-path="url(#clip2_57_8725)">
<path d="M14.9871 29.9741C23.2642 29.9741 29.9741 23.2642 29.9741 14.9871C29.9741 6.70993 23.2642 0 14.9871 0C6.70993 0 0 6.70993 0 14.9871C0 23.2642 6.70993 29.9741 14.9871 29.9741Z" fill="#2675CA"/>
<path d="M12.1399 16.8247C12.554 16.7471 12.8387 16.8506 12.9423 17.446C13.0976 18.0931 13.6411 18.4554 14.3141 18.5072C15.0907 18.559 15.919 18.6366 16.4625 17.8601C16.9285 17.1871 16.6437 16.2553 15.8672 15.9447C15.0907 15.6341 14.2365 15.6599 13.4341 15.427C12.4505 15.1422 11.6481 14.6504 11.4151 13.5374C11.1562 12.3467 11.6481 11.2337 12.7352 10.6384C12.8387 10.5866 12.9682 10.5089 13.0717 10.4831C13.9 10.3795 14.1588 9.88772 14.0294 9.0853C13.9259 8.43819 14.4177 8.54173 14.8059 8.54173C15.1942 8.54173 15.6342 8.43819 15.5825 9.0853V9.26649C15.4272 9.93949 15.7119 10.276 16.3849 10.4831C17.265 10.7419 17.7309 11.4667 17.9897 12.3208C18.0674 12.5538 17.9638 12.6832 17.8085 12.8127C17.3944 13.1491 16.5402 12.9162 16.3331 12.3985C15.9966 11.622 15.3754 11.4667 14.5989 11.4925C13.9518 11.5184 13.3823 11.5961 13.0976 12.295C12.8646 12.9162 13.1235 13.5892 13.7188 13.8221C14.5212 14.1328 15.3754 14.1069 16.2037 14.3398C17.4979 14.7022 18.2486 15.427 18.2745 16.3847C18.3262 18.1966 17.8085 19.1284 16.359 19.5685C15.686 19.7756 15.4272 20.0862 15.5566 20.7592C15.686 21.4063 15.3495 21.5098 14.7801 21.5098C14.2106 21.5098 13.9 21.4063 14.0035 20.7592C14.1071 20.0862 13.9259 19.7756 13.1752 19.6202C12.2434 19.4391 11.5704 18.7919 11.2857 17.8342C11.0527 16.9283 11.1304 16.8247 12.1399 16.8247Z" fill="#FDFDFE"/>
<path d="M5.09912 14.9869C5.09912 10.7937 7.7911 7.16986 11.6738 5.82387C12.1138 5.66857 12.3726 5.69445 12.3985 6.28979C12.4244 6.98867 12.2432 7.35105 11.5184 7.66167C8.43821 9.00765 6.52276 12.1397 6.78161 15.5305C7.04045 18.8955 8.7747 21.1992 11.8291 22.5452C12.2691 22.7523 12.6315 23.7876 12.3209 24.1759C12.1914 24.3312 12.0103 24.3571 11.7514 24.2536C9.86185 23.6323 8.33467 22.5193 7.1181 20.9662C5.77211 19.2061 5.12501 17.213 5.09912 14.9869Z" fill="#FDFDFE"/>
<path d="M24.5642 14.806C24.5383 17.6791 23.5806 19.9828 21.7428 21.8724C20.6815 22.9595 19.4132 23.7878 17.9378 24.2279C17.4201 24.3832 17.3165 24.2279 17.2648 23.762C17.1871 23.0372 17.446 22.7007 18.119 22.3901C20.9404 21.0959 22.5193 18.8698 22.8558 15.7637C23.1147 13.227 22.2346 11.0786 20.5003 9.26671C19.7497 8.49017 18.8178 7.9466 17.8342 7.53245C17.3683 7.32538 17.0318 6.31589 17.3424 5.92762C17.446 5.7982 17.6272 5.74643 17.8601 5.82408C20.6297 6.73004 22.597 8.54194 23.7876 11.2339C24.0724 11.881 24.2536 12.554 24.4089 13.227C24.5383 13.8224 24.6418 14.4177 24.5642 14.806Z" fill="#FDFDFE"/>
</g>
</g>
</g>
<defs>
<clipPath id="clip0_57_8725">
<rect width="31" height="30" fill="white"/>
</clipPath>
<clipPath id="clip1_57_8725">
<rect width="30" height="30" fill="white"/>
</clipPath>
<clipPath id="clip2_57_8725">
<rect width="30" height="30" fill="white"/>
</clipPath>
</defs>
</svg>
