<svg width="30" height="30" viewBox="0 0 30 30" fill="none" xmlns="http://www.w3.org/2000/svg">
<g clip-path="url(#clip0_57_8746)">
<path d="M29.5407 18.6386C27.5492 26.6812 19.4046 31.5578 11.362 29.5663C3.345 27.5493 -1.55713 19.4046 0.459889 11.362C2.45138 3.345 10.5961 -1.55713 18.6131 0.459889C26.6556 2.45138 31.5578 10.5961 29.5407 18.6386Z" fill="#F7931A"/>
<path d="M21.6256 12.8679C21.932 10.8764 20.4001 9.8041 18.332 9.08921L18.9959 6.38282L17.3618 5.97431L16.698 8.6041C16.2639 8.50197 15.8299 8.39984 15.3703 8.29772L16.0342 5.6424L14.4001 5.23389L13.7363 7.94027C13.3788 7.86367 13.0214 7.78708 12.6895 7.68495L10.4171 7.12325L9.95757 8.85942C9.95757 8.85942 11.1831 9.14027 11.1576 9.1658C11.8214 9.34453 11.9491 9.77857 11.9235 10.1105L11.1576 13.1998C11.2086 13.1998 11.2597 13.2254 11.3363 13.2509C11.2852 13.2254 11.2342 13.2254 11.1576 13.1998L10.0852 17.5147C10.0086 17.719 9.80437 18.0254 9.31927 17.8977C9.3448 17.9232 8.11927 17.5913 8.11927 17.5913L7.30225 19.4807L9.44693 20.0169C9.85544 20.119 10.2384 20.2211 10.6214 20.3232L9.93203 23.0552L11.5661 23.4637L12.2554 20.7828C12.715 20.9105 13.1491 21.0126 13.5576 21.1147L12.8937 23.7956L14.5278 24.2041L15.2171 21.4722C18.0257 22.0084 20.1448 21.7786 21.0129 19.2509C21.7278 17.2084 20.9874 16.0339 19.5065 15.2679C20.5788 15.0381 21.3959 14.3232 21.6256 12.8679ZM17.8469 18.1275C17.3363 20.1701 13.8895 19.0722 12.7916 18.7913L13.6852 15.1658C14.8086 15.4467 18.3831 16.0084 17.8469 18.1275ZM18.3576 12.8424C17.898 14.7062 15.0384 13.7615 14.0937 13.5318L14.9108 10.2381C15.8554 10.4679 18.8427 10.902 18.3576 12.8424Z" fill="white"/>
<g clip-path="url(#clip1_57_8746)">
<path d="M15 0C23.2843 0 30 6.71573 30 15C30 23.2843 23.2843 30 15 30C6.71573 30 0 23.2843 0 15C0 6.71573 6.71573 0 15 0Z" fill="#F0B90B"/>
<path d="M21.3521 18.1636L19.1072 19.4136L15.3317 17.2962L11.5562 19.4136L9.31128 18.1636V15.6381L13.0868 13.4952V9.08194L15.3317 7.78092L17.5766 9.08194V13.4952L21.3521 15.6381V18.1636Z" fill="white"/>
<path d="M22.9081 19.0818V16.4287L25.0254 17.7553V20.3828L22.8061 21.6328L20.6377 20.4083L22.9081 19.0818Z" fill="white"/>
<path d="M22.8061 14.643V10.3572L19.0051 8.13786V5.45928L25.0766 8.90316V16.0205L22.8061 14.643Z" fill="white"/>
<path d="M21.2502 11.0972V13.8013L19.0308 12.6023V9.8727L21.2502 11.0972Z" fill="white"/>
<path d="M15.255 23.4695L19.005 21.3266L21.1989 22.6021L15.255 26.0205L9.33667 22.6021L11.5305 21.3266L15.255 23.4695Z" fill="white"/>
<path d="M7.6276 19.0818L9.89801 20.4083L7.72964 21.6328L5.51025 20.3828V17.7553L7.6276 16.4287V19.0818Z" fill="white"/>
<path d="M7.72964 14.643L5.45923 16.0205V8.90316L11.5307 5.45928V8.13786L7.72964 10.3572V14.643Z" fill="white"/>
<path d="M15.2551 19.0054H15.2807L17.5766 20.2809L15.2807 21.6074H15.2551L12.9592 20.2809L15.2551 19.0054Z" fill="white"/>
<path d="M11.505 12.6023L9.28564 13.8013V11.0972L11.505 9.8727V12.6023Z" fill="white"/>
<path d="M13.0356 7.32129V4.61721L15.2805 3.36721L17.4999 4.61721V7.32129L15.2805 6.02027L13.0356 7.32129Z" fill="white"/>
</g>
</g>
<defs>
<clipPath id="clip0_57_8746">
<rect width="30" height="30" fill="white"/>
</clipPath>
<clipPath id="clip1_57_8746">
<rect width="30" height="30" fill="white" transform="matrix(1 0 0 -1 0 30)"/>
</clipPath>
</defs>
</svg>
