<svg width="31" height="30" viewBox="0 0 31 30" fill="none" xmlns="http://www.w3.org/2000/svg">
<g clip-path="url(#clip0_57_8766)">
<path d="M29.5464 18.6386C27.5545 26.6812 19.4083 31.5578 11.3642 29.5663C3.34563 27.5493 -1.55743 19.4046 0.459976 11.362C2.45184 3.345 10.5981 -1.55713 18.6166 0.459889C26.6607 2.45138 31.5638 10.5961 29.5464 18.6386Z" fill="#F7931A"/>
<path d="M21.6298 12.8684C21.9363 10.8769 20.4041 9.80459 18.3356 9.08969L18.9996 6.38331L17.3652 5.9748L16.7012 8.60459C16.2671 8.50246 15.833 8.40033 15.3733 8.29821L16.0373 5.64289L14.4029 5.23438L13.739 7.94076C13.3815 7.86416 13.024 7.78757 12.692 7.68544L10.4192 7.12374L9.95954 8.85991C9.95954 8.85991 11.1853 9.14076 11.1598 9.16629C11.8237 9.34501 11.9514 9.77906 11.9259 10.111L11.1598 13.2003C11.2108 13.2003 11.2619 13.2259 11.3385 13.2514C11.2874 13.2259 11.2364 13.2259 11.1598 13.2003L10.0872 17.5152C10.0106 17.7195 9.80632 18.0259 9.32112 17.8982C9.34665 17.9237 8.12089 17.5918 8.12089 17.5918L7.30371 19.4812L9.4488 20.0174C9.85739 20.1195 10.2404 20.2216 10.6235 20.3237L9.934 23.0557L11.5684 23.4642L12.2578 20.7833C12.7175 20.911 13.1516 21.0131 13.5602 21.1152L12.8963 23.7961L14.5306 24.2046L15.2201 21.4727C18.0292 22.0088 20.1487 21.7791 21.017 19.2514C21.732 17.2088 20.9914 16.0344 19.5103 15.2684C20.5828 15.0386 21.4 14.3237 21.6298 12.8684ZM17.8504 18.128C17.3397 20.1705 13.8922 19.0727 12.7941 18.7918L13.6879 15.1663C14.8115 15.4471 18.3867 16.0088 17.8504 18.128ZM18.3611 12.8429C17.9015 14.7067 15.0414 13.762 14.0965 13.5322L14.9137 10.2386C15.8585 10.4684 18.8463 10.9025 18.3611 12.8429Z" fill="white"/>
<g clip-path="url(#clip1_57_8766)">
<path d="M13.5806 0.0765648C16.7519 -0.230341 20.0256 0.511347 22.7621 2.17375C25.3453 3.73385 27.4169 6.06122 28.6445 8.79779C29.9488 11.6622 30.3069 14.9359 29.6931 18.005C29.0793 21.0996 27.4425 23.964 25.1151 26.0868C22.7877 28.2351 19.7698 29.6162 16.5985 29.9487C14.578 30.1277 12.4808 29.9743 10.5371 29.3605C7.21228 28.3374 4.24552 26.0868 2.37852 23.1712C0.792838 20.6904 -0.0511524 17.7748 -1.49244e-06 14.8592C-1.49244e-06 11.5344 1.20204 8.23513 3.27366 5.62644C5.78005 2.50623 9.56522 0.434621 13.5806 0.0765648Z" fill="#F4F2F2"/>
<path d="M14.9362 2.32715L14.7827 2.88981V19.1814L14.9362 19.3604L22.5065 14.8847L14.9362 2.32715Z" fill="#343434"/>
<path d="M14.9361 2.32715L7.36572 14.8847L14.9361 19.3604V11.432V2.32715Z" fill="#8C8C8C"/>
<path d="M14.936 20.7926L14.8337 20.8949V26.7005L14.936 26.9819L22.5064 16.3169L14.936 20.7926Z" fill="#3C3C3B"/>
<path d="M14.9361 26.9819V20.7926L7.36572 16.3169L14.9361 26.9819Z" fill="#8C8C8C"/>
<path d="M14.936 19.3605L22.5064 14.8848L14.936 11.4321V19.3605Z" fill="#141414"/>
<path d="M7.36572 14.8848L14.9361 19.3605V11.4321L7.36572 14.8848Z" fill="#393939"/>
</g>
</g>
<defs>
<clipPath id="clip0_57_8766">
<rect width="31" height="30" fill="white"/>
</clipPath>
<clipPath id="clip1_57_8766">
<rect width="30" height="30" fill="white"/>
</clipPath>
</defs>
</svg>
