<svg width="30" height="30" viewBox="0 0 30 30" fill="none" xmlns="http://www.w3.org/2000/svg">
<g clip-path="url(#clip0_57_8782)">
<path d="M29.5407 18.6386C27.5492 26.6812 19.4046 31.5578 11.362 29.5663C3.345 27.5493 -1.55713 19.4046 0.459889 11.362C2.45138 3.345 10.5961 -1.55713 18.6131 0.459889C26.6556 2.45138 31.5578 10.5961 29.5407 18.6386Z" fill="#F7931A"/>
<path d="M21.6254 12.8684C21.9318 10.8769 20.3999 9.80459 18.3318 9.08969L18.9956 6.38331L17.3616 5.9748L16.6977 8.60459C16.2637 8.50246 15.8297 8.40033 15.3701 8.29821L16.0339 5.64289L14.3999 5.23438L13.736 7.94076C13.3786 7.86416 13.0212 7.78757 12.6892 7.68544L10.4169 7.12374L9.95732 8.85991C9.95732 8.85991 11.1829 9.14076 11.1573 9.16629C11.8212 9.34501 11.9488 9.77906 11.9233 10.111L11.1573 13.2003C11.2084 13.2003 11.2594 13.2259 11.336 13.2514C11.285 13.2259 11.2339 13.2259 11.1573 13.2003L10.085 17.5152C10.0084 17.7195 9.80413 18.0259 9.31902 17.8982C9.34456 17.9237 8.11902 17.5918 8.11902 17.5918L7.302 19.4812L9.44668 20.0174C9.85519 20.1195 10.2382 20.2216 10.6212 20.3237L9.93179 23.0557L11.5658 23.4642L12.2552 20.7833C12.7148 20.911 13.1488 21.0131 13.5573 21.1152L12.8935 23.7961L14.5275 24.2046L15.2169 21.4727C18.0254 22.0088 20.1446 21.7791 21.0126 19.2514C21.7275 17.2088 20.9871 16.0344 19.5063 15.2684C20.5786 15.0386 21.3956 14.3237 21.6254 12.8684ZM17.8467 18.128C17.336 20.1705 13.8892 19.0727 12.7914 18.7918L13.685 15.1663C14.8084 15.4471 18.3829 16.0088 17.8467 18.128ZM18.3573 12.8429C17.8977 14.7067 15.0382 13.762 14.0935 13.5322L14.9105 10.2386C15.8552 10.4684 18.8424 10.9025 18.3573 12.8429Z" fill="white"/>
</g>
<defs>
<clipPath id="clip0_57_8782">
<rect width="30" height="30" fill="white"/>
</clipPath>
</defs>
</svg>
