<svg width="135" height="38" viewBox="0 0 135 38" fill="none" xmlns="http://www.w3.org/2000/svg">
<path d="M1 37L7.52434 31L14.0487 14.5L18.5655 20.5H26.5955L31.6142 14.5L37.6367 18.5L42.6554 16H50.1835L53.6966 18.5H60.221L65.7416 16L71.2622 18.5L76.7828 11H82.8052L88.3258 22.5L91.839 20.5L95.8539 16L100.371 8L107.397 1H111.412L117.936 5.5L129.981 4.5L131.989 6.5H135" stroke="#63CD81" stroke-width="2"/>
<path d="M7.52434 31L1 37H135V6.5H131.989L129.981 4.5L117.936 5.5L111.412 1H107.397L100.371 8L95.8539 16L91.839 20.5L88.3258 22.5L82.8052 11H76.7828L71.2622 18.5L65.7416 16L60.221 18.5H53.6966L50.1835 16H42.6554L37.6367 18.5L31.6142 14.5L26.5955 20.5H18.5655L14.0487 14.5L7.52434 31Z" fill="url(#paint0_linear_1_548)"/>
<defs>
<linearGradient id="paint0_linear_1_548" x1="68" y1="1" x2="68" y2="37" gradientUnits="userSpaceOnUse">
<stop stop-color="#65D499" stop-opacity="0.63"/>
<stop offset="1" stop-color="#333156"/>
</linearGradient>
</defs>
</svg>
