<svg width="16" height="16" viewBox="0 0 16 16" fill="none" xmlns="http://www.w3.org/2000/svg">
<circle cx="8" cy="8" r="8" fill="#36EA68"/>
<path d="M5.18046 8.5L10.8195 8.5C11.4375 8.5 11.8966 9.06439 11.5861 9.59866C11.0468 10.5268 9.95322 11.5 8 11.5C6.04678 11.5 4.95325 10.5268 4.4139 9.59866C4.10341 9.06439 4.56252 8.5 5.18046 8.5Z" fill="#412828"/>
<circle cx="5" cy="5" r="1" fill="#412828"/>
<circle cx="11" cy="5" r="1" fill="#412828"/>
<circle cx="8" cy="8" r="8" fill="#EA3636"/>
<path d="M10.8195 11.5H5.18046C4.56252 11.5 4.10341 10.9356 4.4139 10.4013C4.95325 9.47323 6.04678 8.5 8 8.5C9.95322 8.5 11.0468 9.47323 11.5861 10.4013C11.8966 10.9356 11.4375 11.5 10.8195 11.5Z" fill="#412828"/>
<circle cx="5" cy="5" r="1" fill="#412828"/>
<circle cx="11" cy="5" r="1" fill="#412828"/>
<circle cx="8" cy="8" r="8" fill="#36EA68"/>
<path d="M5.18046 8.5L10.8195 8.5C11.4375 8.5 11.8966 9.06439 11.5861 9.59866C11.0468 10.5268 9.95322 11.5 8 11.5C6.04678 11.5 4.95325 10.5268 4.4139 9.59866C4.10341 9.06439 4.56252 8.5 5.18046 8.5Z" fill="#412828"/>
<circle cx="5" cy="5" r="1" fill="#412828"/>
<circle cx="11" cy="5" r="1" fill="#412828"/>
</svg>
