<svg width="19" height="19" viewBox="0 0 19 19" fill="none" xmlns="http://www.w3.org/2000/svg">
<path d="M10.3893 0.0416415C8.38076 -0.146917 6.30744 0.308767 4.57428 1.33013C2.93831 2.28864 1.62629 3.71854 0.848793 5.39986C0.0227056 7.15975 -0.204063 9.17104 0.184684 11.0566C0.573432 12.9579 1.61009 14.7178 3.08409 16.022C4.55809 17.3419 6.46942 18.1904 8.47795 18.3947C9.75757 18.5047 11.0858 18.4104 12.3168 18.0333C14.4225 17.4048 16.3015 16.022 17.4839 14.2307C18.4882 12.7065 19.0227 10.9152 18.9903 9.1239C18.9903 7.08118 18.229 5.05417 16.917 3.45142C15.3296 1.5344 12.9323 0.261627 10.3893 0.0416415Z" fill="#F4F2F2"/>
<path d="M9.53074 1.42432L9.62793 1.77001L9.62793 11.7793L9.53074 11.8893L4.7362 9.13952L9.53074 1.42432Z" fill="#343434"/>
<path d="M9.5309 1.42432L14.3254 9.13952L9.5309 11.8893L9.5309 7.01823L9.5309 1.42432Z" fill="#8C8C8C"/>
<path d="M9.53091 12.7694L9.5957 12.8322L9.5957 16.3991L9.53091 16.572L4.73637 10.0195L9.53091 12.7694Z" fill="#3C3C3B"/>
<path d="M9.5309 16.572L9.5309 12.7694L14.3254 10.0195L9.5309 16.572Z" fill="#8C8C8C"/>
<path d="M9.53076 11.8897L4.73622 9.13984L9.53076 7.01855L9.53076 11.8897Z" fill="#141414"/>
<path d="M14.3254 9.13984L9.5309 11.8897L9.5309 7.01856L14.3254 9.13984Z" fill="#393939"/>
</svg>
