<svg width="32" height="32" viewBox="0 0 32 32" fill="none" xmlns="http://www.w3.org/2000/svg">
<circle cx="16" cy="16" r="16" fill="#323652"/>
<g clip-path="url(#clip0_57_10240)">
<path d="M21.77 23.5102C21.09 23.5102 20.495 23.5102 19.815 23.5102C19.56 23.5102 19.39 23.5932 19.39 23.8421C18.965 25.4189 17.35 26.3318 15.735 25.9168C14.8 25.6679 13.95 24.838 13.695 23.9251C13.61 23.5932 13.44 23.5102 13.1 23.5102C11.91 23.5102 10.635 23.5102 9.44502 23.5102C8.85002 23.5932 8.34002 23.2612 8.08502 22.7633C7.83002 22.2654 8.08502 21.6015 8.51002 21.2695C9.87002 20.1077 10.635 18.3649 10.55 16.5392C10.55 15.7093 10.55 14.8795 10.55 14.0496C10.635 11.8089 12.08 9.81723 14.205 8.98736C14.63 8.90437 14.885 8.48943 14.8 8.07449C14.63 7.24462 15.055 6.49773 15.82 6.16578C16.67 5.83383 17.605 6.16578 18.03 6.99565C18.03 7.07864 18.115 7.16163 18.115 7.16163C18.2 7.57657 18.2 7.9915 18.2 8.40644C18.2 8.65541 18.285 8.82138 18.54 8.90437C20.495 9.56827 21.94 11.228 22.365 13.2197C22.45 13.7176 22.45 14.2156 22.45 14.7135C22.45 15.6264 22.45 16.6222 22.535 17.5351C22.705 18.9459 23.385 20.1907 24.405 21.1865C24.66 21.4355 24.915 21.7674 25 22.1824C25.085 22.8463 24.66 23.4272 23.98 23.5102C23.895 23.5102 23.81 23.5102 23.725 23.5102C23.13 23.5102 22.45 23.5102 21.77 23.5102ZM16.5 22.6803C18.795 22.6803 21.09 22.6803 23.47 22.6803C23.725 22.5973 23.98 22.5143 24.235 22.4313C24.15 22.1824 24.065 22.0164 23.895 21.7674C22.535 20.5226 21.685 18.6969 21.685 16.8712C21.685 16.0413 21.685 15.1284 21.685 14.2986C21.685 13.7176 21.515 13.1367 21.345 12.5558C20.24 9.98321 17.265 8.82138 14.715 9.81723C12.675 10.4811 11.4 12.3069 11.4 14.2986C11.4 15.2114 11.4 16.1243 11.4 17.0371C11.4 18.282 10.975 19.4438 10.295 20.4396C9.95502 20.9376 9.44502 21.3525 9.10502 21.8504C9.02002 22.0164 8.93502 22.1824 8.93502 22.3484C9.02002 22.5143 9.19002 22.5973 9.36002 22.5973C9.53002 22.5973 9.61502 22.5973 9.78502 22.5973L16.5 22.6803ZM18.54 23.5102H14.46C14.63 24.506 15.565 25.1699 16.585 25.1699C17.52 25.1699 18.37 24.423 18.54 23.5102ZM16.585 8.48943C17.52 8.48943 17.52 8.48943 17.435 7.57657C17.265 7.07864 16.925 6.82968 16.415 6.82968C16.075 6.91267 15.735 7.16163 15.735 7.57657C15.565 8.48943 15.65 8.48943 16.585 8.48943Z" fill="#6060A3"/>
</g>
<defs>
<clipPath id="clip0_57_10240">
<rect width="17" height="20" fill="white" transform="translate(8 6)"/>
</clipPath>
</defs>
</svg>
