<svg width="23" height="23" viewBox="0 0 23 23" fill="none" xmlns="http://www.w3.org/2000/svg">
<g clip-path="url(#clip0_57_9804)">
<path d="M11.5 23C17.8513 23 23 17.8513 23 11.5C23 5.14873 17.8513 0 11.5 0C5.14873 0 0 5.14873 0 11.5C0 17.8513 5.14873 23 11.5 23Z" fill="#008DE4"/>
<path d="M4.52563 18.4939C4.52563 18.4743 4.56482 18.2392 4.62359 17.965C4.68236 17.6907 4.74114 17.3576 4.76073 17.2205C4.78032 17.0834 4.83909 16.7699 4.89787 16.4956C4.95664 16.2214 5.01541 15.9079 5.01541 15.7708L5.035 15.5357H8.24795C10.9711 15.5357 11.5001 15.5357 11.7744 15.4769C12.3033 15.3985 12.6755 15.3006 13.2241 15.0851C13.2829 15.0655 13.42 14.9871 13.518 14.9283L13.7139 14.8108C13.7139 14.8108 13.7922 14.752 13.8706 14.6933C13.949 14.6345 14.0077 14.5757 14.0273 14.5757C14.0469 14.5757 14.1253 14.4973 14.2232 14.3798L14.4779 14.1251C14.5171 14.0859 14.5563 14.0467 14.5563 14.0272C14.5563 14.0076 14.5955 13.9684 14.6151 13.9292C14.6934 13.8508 15.0265 13.2043 15.0265 13.1456C15.0265 13.126 15.0657 12.9888 15.1244 12.8713C15.1832 12.7341 15.242 12.5578 15.2616 12.4599C15.2812 12.3619 15.3399 12.1072 15.3987 11.8917C15.8689 10.0697 15.7514 8.95305 15.0461 8.26736C14.7522 7.97349 14.3604 7.77758 13.8118 7.62085C13.3221 7.48371 13.1457 7.48371 9.77606 7.46412C7.97368 7.44453 6.48475 7.42494 6.46516 7.42494C6.44557 7.40535 6.48475 7.15066 6.70025 5.9556C6.75902 5.60296 6.83739 5.23073 6.85698 5.09359C6.87657 4.95646 6.91575 4.78014 6.93535 4.68218L6.97453 4.50586L10.7948 4.52545C14.8893 4.54504 14.6543 4.52545 15.5163 4.72136C15.9277 4.79973 16.0844 4.8585 16.4175 4.97605C16.7113 5.074 17.2403 5.34828 17.3382 5.42664C17.3774 5.46583 17.4362 5.50501 17.4754 5.50501C17.5537 5.54419 18.0239 5.9556 18.1807 6.13192C18.4158 6.42579 18.4941 6.52375 18.6117 6.71966C18.7488 6.95475 18.9447 7.48371 19.0231 7.79717C19.1798 8.46327 19.1798 8.46327 19.1798 9.5016C19.1798 10.3636 19.1602 10.5595 19.1014 10.9318C19.0623 11.1668 19.0035 11.4803 18.9839 11.5979C18.8859 12.2248 18.6313 13.1847 18.3962 13.8312C18.2786 14.1447 17.9847 14.7912 17.9456 14.85C17.926 14.8696 17.8672 14.9675 17.8084 15.0851C17.7497 15.183 17.6909 15.3006 17.6713 15.3202C17.6517 15.3398 17.5537 15.4965 17.4362 15.6532C17.1031 16.143 16.3979 16.9071 15.9865 17.1813C15.5554 17.4752 15.3008 17.6319 15.0461 17.7495C14.6347 17.9454 14.2037 18.1413 14.1449 18.1413C14.1253 18.1413 13.9686 18.1805 13.7922 18.2393C13.6355 18.298 13.42 18.3568 13.3221 18.3568C13.2437 18.3764 13.0086 18.396 12.8323 18.4352C12.656 18.4548 12.3033 18.4939 12.0878 18.5135C11.6764 18.5331 4.52563 18.5331 4.52563 18.4939Z" fill="white"/>
<path d="M1.99829 12.9303C1.99829 12.7736 2.4097 11.1867 2.48807 11.0104C2.72316 10.5402 3.09539 10.2267 3.60476 10.0896C3.85945 10.0112 3.91822 10.0112 7.32708 10.0112C9.22742 10.0112 10.7751 10.0112 10.7751 10.0308C10.7751 10.1092 10.4813 11.3042 10.3637 11.7548C10.3049 11.9899 10.0503 12.3818 9.89352 12.5189C9.81516 12.5973 9.63884 12.6952 9.52129 12.754C9.07069 12.9695 9.24701 12.9695 5.46592 12.9695C2.33134 12.9891 1.99829 12.9891 1.99829 12.9303Z" fill="white"/>
</g>
<defs>
<clipPath id="clip0_57_9804">
<rect width="23" height="23" fill="white"/>
</clipPath>
</defs>
</svg>
