<svg width="23" height="23" viewBox="0 0 23 23" fill="none" xmlns="http://www.w3.org/2000/svg">
<g clip-path="url(#clip0_57_9817)">
<path d="M11.5 23C17.8513 23 23 17.8513 23 11.5C23 5.14873 17.8513 0 11.5 0C5.14873 0 0 5.14873 0 11.5C0 17.8513 5.14873 23 11.5 23Z" fill="#008DE4"/>
<path d="M4.52563 18.4939C4.52563 18.4743 4.56482 18.2392 4.62359 17.965C4.68236 17.6907 4.74114 17.3576 4.76073 17.2205C4.78032 17.0834 4.83909 16.7699 4.89787 16.4956C4.95664 16.2214 5.01541 15.9079 5.01541 15.7708L5.035 15.5357H8.24795C10.9711 15.5357 11.5001 15.5357 11.7744 15.4769C12.3033 15.3985 12.6755 15.3006 13.2241 15.0851C13.2829 15.0655 13.42 14.9871 13.518 14.9283L13.7139 14.8108C13.7139 14.8108 13.7922 14.752 13.8706 14.6933C13.949 14.6345 14.0077 14.5757 14.0273 14.5757C14.0469 14.5757 14.1253 14.4973 14.2232 14.3798L14.4779 14.1251C14.5171 14.0859 14.5563 14.0467 14.5563 14.0272C14.5563 14.0076 14.5955 13.9684 14.6151 13.9292C14.6934 13.8508 15.0265 13.2043 15.0265 13.1456C15.0265 13.126 15.0657 12.9888 15.1244 12.8713C15.1832 12.7341 15.242 12.5578 15.2616 12.4599C15.2812 12.3619 15.3399 12.1072 15.3987 11.8917C15.8689 10.0697 15.7514 8.95305 15.0461 8.26736C14.7522 7.97349 14.3604 7.77758 13.8118 7.62085C13.3221 7.48371 13.1457 7.48371 9.77606 7.46412C7.97368 7.44453 6.48475 7.42494 6.46516 7.42494C6.44557 7.40535 6.48475 7.15066 6.70025 5.9556C6.75902 5.60296 6.83739 5.23073 6.85698 5.09359C6.87657 4.95646 6.91575 4.78014 6.93535 4.68218L6.97453 4.50586L10.7948 4.52545C14.8893 4.54504 14.6543 4.52545 15.5163 4.72136C15.9277 4.79973 16.0844 4.8585 16.4175 4.97605C16.7113 5.074 17.2403 5.34828 17.3382 5.42664C17.3774 5.46583 17.4362 5.50501 17.4754 5.50501C17.5537 5.54419 18.0239 5.9556 18.1807 6.13192C18.4158 6.42579 18.4941 6.52375 18.6117 6.71966C18.7488 6.95475 18.9447 7.48371 19.0231 7.79717C19.1798 8.46327 19.1798 8.46327 19.1798 9.5016C19.1798 10.3636 19.1602 10.5595 19.1014 10.9318C19.0623 11.1668 19.0035 11.4803 18.9839 11.5979C18.8859 12.2248 18.6313 13.1847 18.3962 13.8312C18.2786 14.1447 17.9847 14.7912 17.9456 14.85C17.926 14.8696 17.8672 14.9675 17.8084 15.0851C17.7497 15.183 17.6909 15.3006 17.6713 15.3202C17.6517 15.3398 17.5537 15.4965 17.4362 15.6532C17.1031 16.143 16.3979 16.9071 15.9865 17.1813C15.5554 17.4752 15.3008 17.6319 15.0461 17.7495C14.6347 17.9454 14.2037 18.1413 14.1449 18.1413C14.1253 18.1413 13.9686 18.1805 13.7922 18.2393C13.6355 18.298 13.42 18.3568 13.3221 18.3568C13.2437 18.3764 13.0086 18.396 12.8323 18.4352C12.656 18.4548 12.3033 18.4939 12.0878 18.5135C11.6764 18.5331 4.52563 18.5331 4.52563 18.4939Z" fill="white"/>
<path d="M1.99829 12.9303C1.99829 12.7736 2.4097 11.1867 2.48807 11.0104C2.72316 10.5402 3.09539 10.2267 3.60476 10.0896C3.85945 10.0112 3.91822 10.0112 7.32708 10.0112C9.22742 10.0112 10.7751 10.0112 10.7751 10.0308C10.7751 10.1092 10.4813 11.3042 10.3637 11.7548C10.3049 11.9899 10.0503 12.3818 9.89352 12.5189C9.81516 12.5973 9.63884 12.6952 9.52129 12.754C9.07069 12.9695 9.24701 12.9695 5.46592 12.9695C2.33134 12.9891 1.99829 12.9891 1.99829 12.9303Z" fill="white"/>
<g clip-path="url(#clip1_57_9817)">
<path d="M10.4117 0.0587973C12.8431 -0.176497 15.3529 0.392131 17.451 1.66664C19.4313 2.86272 21.0196 4.64703 21.9608 6.74507C22.9608 8.94115 23.2353 11.451 22.7647 13.8039C22.2941 16.1764 21.0392 18.3725 19.2549 20C17.4706 21.647 15.1568 22.7059 12.7255 22.9608C11.1764 23.098 9.5686 22.9804 8.07841 22.5098C5.52939 21.7255 3.25488 20 1.8235 17.7647C0.607818 15.8627 -0.0392412 13.6274 -2.55583e-05 11.3921C-2.55583e-05 8.84311 0.921543 6.3137 2.50978 4.3137C4.43135 1.92154 7.33331 0.333307 10.4117 0.0587973Z" fill="#988430"/>
<path d="M11.2746 0.353105C13.3138 0.313889 15.3726 0.843301 17.1373 1.88252C19.0393 3.00016 20.6079 4.68644 21.5491 6.68644C22.5687 8.76487 22.8628 11.1766 22.4707 13.4511C21.9413 16.51 20.0785 19.2747 17.4511 20.9217C15.6275 22.0786 13.4707 22.6864 11.3138 22.6472C9.21576 22.6276 7.11772 21.9806 5.37263 20.8237C3.5687 19.6472 2.11772 17.9413 1.27459 15.9609C0.294194 13.7257 0.0981158 11.1766 0.686351 8.82369C1.27459 6.43154 2.68635 4.27467 4.62753 2.76487C6.49027 1.23546 8.88243 0.411929 11.2746 0.353105Z" fill="#7A6A2A"/>
<path d="M7.0393 1.54901C8.96087 0.666652 11.1373 0.392142 13.2158 0.725476C15.3922 1.05881 17.4511 2.07842 19.0197 3.60783C20.9609 5.45097 22.1766 8.01959 22.3726 10.6863C22.6079 13.7255 21.4903 16.8431 19.3726 19.0392C19.3334 18.4117 19.3334 17.7647 19.3138 17.1372C19.3138 16.6667 19.1962 16.1961 19.1569 15.7451C19.1569 15.5882 19.1766 15.4117 19.1962 15.2549C19.2158 14.8235 18.9805 14.4117 19.0393 13.9608C19.0981 13.3333 18.7648 12.7647 18.6079 12.1765C18.4511 11.7647 18.4511 11.3137 18.2942 10.9019C18.1766 9.31371 17.5687 7.70587 16.353 6.62744C16.3922 6.56861 16.4707 6.45097 16.5099 6.41175C16.5491 6.50979 16.6079 6.60783 16.6668 6.70587C16.9413 6.39214 17.0001 5.96077 17.0785 5.549C17.2354 4.84312 17.1177 4.09802 17.0001 3.39214C16.902 3.0392 16.8236 2.60783 16.5295 2.35293C16.2158 2.15685 15.6471 2.15685 15.4511 2.5294C15.4511 2.549 15.4315 2.58822 15.4315 2.60783C15.2942 2.84312 15.0981 3.05881 14.8432 3.21567C14.4118 3.49018 14.1766 3.98038 13.706 4.21567C13.4118 4.31371 13.1177 4.15685 12.8236 4.17646C12.2746 4.23528 11.706 4.25489 11.1569 4.41175C10.6471 4.33332 10.1373 4.25489 9.62754 4.15685V4.01959C9.39224 3.80391 9.17656 3.5294 9.09813 3.21567C8.94126 2.62744 8.56871 2.05881 8.01969 1.76469C7.94126 1.72548 7.86283 1.70587 7.7844 1.66665C7.74518 1.72548 7.68636 1.76469 7.64715 1.82351L7.56871 1.98038C7.45107 2.25489 7.47067 2.56861 7.47067 2.86273C7.47067 3.62744 7.39224 4.39214 7.05891 5.07842H5.50989C5.41185 5.31371 5.45107 5.56861 5.43146 5.80391C4.60793 6.56861 4.2746 7.70587 4.11773 8.7843V9.0392V9.17646C3.74518 9.64704 3.68636 10.2745 3.58832 10.8627C3.72558 10.8627 3.86283 10.8431 3.98048 10.8431C3.86283 10.8627 3.72558 10.8627 3.60793 10.8823C3.58832 11.0196 3.56871 11.1372 3.54911 11.2745C3.66675 11.2353 3.7844 11.1765 3.90205 11.1372H3.96087C3.82362 11.1961 3.68636 11.2549 3.54911 11.3333C3.54911 11.4117 3.54911 11.5882 3.56871 11.6667C3.72558 11.5882 3.90205 11.5098 4.05891 11.4117L4.11773 11.5294C3.98048 11.6274 3.80401 11.6667 3.68636 11.8039C3.68636 12.098 3.72558 12.4118 3.76479 12.7059C3.86283 13.3921 4.11773 14.0392 4.45107 14.647C4.43146 15.0784 4.35303 15.5098 4.09813 15.8823C4.17656 16.0196 4.2942 16.1372 4.2942 16.2941C4.25499 16.5686 4.0393 16.7843 4.07852 17.0784C4.13734 17.7647 3.88244 18.4314 3.58832 19.0392C2.01969 17.4117 1.00009 15.2941 0.686361 13.0588C0.392244 10.9608 0.705969 8.80391 1.60793 6.88234C2.70597 4.5294 4.66675 2.60783 7.0393 1.54901Z" fill="#BA9F33"/>
<path d="M7.70582 1.86292C7.74503 1.80409 7.80385 1.74527 7.84307 1.70605C7.9215 1.72566 7.99993 1.76488 8.07836 1.80409C8.21562 2.21586 8.4117 2.62762 8.37248 3.0786C8.35287 3.37272 8.29405 3.68645 8.45091 3.98056C8.50974 4.13743 8.6666 4.21586 8.80385 4.3139L8.56856 4.49037C8.21562 4.62762 7.94111 4.88252 7.68621 5.13743H7.39209C7.94111 4.47076 8.1764 3.60802 8.1764 2.74527C8.1764 2.39233 7.90189 2.13743 7.70582 1.86292Z" fill="#C79C3B"/>
<path d="M8.07837 1.80371C8.62739 2.09783 8.99994 2.66646 9.1568 3.25469C9.23523 3.56842 9.45092 3.82332 9.68621 4.05861V4.19587C9.39209 4.09783 9.03915 4.03901 8.80386 4.29391C8.6666 4.19587 8.50974 4.11744 8.45092 3.96057C8.29405 3.68606 8.37249 3.37234 8.37249 3.05861C8.43131 2.62724 8.21562 2.21548 8.07837 1.80371Z" fill="#B58634"/>
<path d="M7.70577 1.86279C7.90185 2.11769 8.17636 2.3922 8.15675 2.74515C8.15675 3.58828 7.92146 4.47064 7.37244 5.1373H7.21558C7.45087 4.76475 7.68616 4.3726 7.72538 3.92162C7.7646 3.29417 7.56852 2.66671 7.64695 2.03926C7.66656 2.00005 7.68616 1.92162 7.70577 1.86279Z" fill="#DFC068"/>
<path d="M7.52927 2.90188C7.52927 2.60777 7.50967 2.29404 7.62731 2.01953C7.56849 2.64698 7.76457 3.27443 7.70574 3.90188C7.68614 4.35286 7.45084 4.74502 7.19594 5.11757H7.0979C7.45084 4.4313 7.52927 3.66659 7.52927 2.90188Z" fill="#A78F33"/>
<path d="M15.4902 2.56841C15.6863 2.19586 16.2353 2.19586 16.5687 2.39194C16.8628 2.64684 16.9412 3.05861 17.0393 3.43115C17.1569 4.13704 17.2745 4.86253 17.1177 5.58802C17.0393 5.98017 17 6.43115 16.7059 6.74488C16.6471 6.64684 16.5883 6.5488 16.5491 6.45076C16.4902 6.2939 16.451 6.13704 16.3922 5.98017C16.5883 5.5488 16.6863 5.07821 16.7255 4.60762C16.7647 4.19586 16.4902 3.84292 16.2157 3.56841C16.0785 3.13704 15.7844 2.84292 15.4902 2.56841Z" fill="#A17C34"/>
<path d="M15.451 2.64679C15.451 2.62718 15.4706 2.58797 15.4706 2.56836C15.7647 2.84287 16.0588 3.13699 16.2157 3.52914C16.2157 3.64679 16.1765 3.76444 16.0588 3.80365C15.7255 3.98012 15.3333 4.09777 15.0784 4.4115C14.902 4.62718 14.5686 4.74483 14.549 5.05856C14.5882 5.07816 14.6667 5.13699 14.6863 5.15659C14.6471 5.19581 14.5882 5.29385 14.549 5.33307C14.5882 5.37228 14.6275 5.4311 14.6863 5.47032C14.8627 5.27424 15.1373 5.25463 15.3725 5.1762C15.3333 5.27424 15.2941 5.35267 15.2549 5.45071L15.549 5.39189C15.4314 5.52914 15.2941 5.6664 15.1373 5.78405C15.1176 5.78405 15.0784 5.76444 15.0784 5.74483C14.902 5.64679 14.7255 5.52914 14.5098 5.52914C14.4902 5.48993 14.4706 5.4311 14.4706 5.4115C14.3529 5.4115 14.2353 5.39189 14.1373 5.35267C14.1765 5.27424 14.2353 5.13699 14.2549 5.05856C14.1961 5.09777 14.0588 5.15659 14 5.1762C14.1765 4.90169 14.3333 4.62718 14.4902 4.33307C14.5098 4.31346 14.5294 4.27424 14.5294 4.25463C14.7647 3.84287 15.098 3.48993 15.3137 3.05856C15.4706 2.94091 15.4706 2.78405 15.451 2.64679Z" fill="#B89844"/>
<path d="M15.451 2.64697C15.4707 2.78423 15.4707 2.92148 15.3922 3.05874C15.1569 3.4705 14.8236 3.82344 14.6079 4.25482C14.6079 3.90187 14.6471 3.54893 14.8824 3.25482C15.1177 3.09795 15.3138 2.90187 15.451 2.64697Z" fill="#CBA94C"/>
<path d="M13.7452 4.25488C14.2157 4.01959 14.451 3.50978 14.8824 3.25488C14.6471 3.52939 14.6079 3.90194 14.6079 4.25488C14.5883 4.27449 14.5687 4.31371 14.5687 4.33331C14.5687 4.19606 14.5687 4.0588 14.5491 3.92155C14.3334 4.37253 14.0981 4.82351 13.7648 5.19606C13.5687 5.13724 13.3726 5.11763 13.1765 5.11763C13.2942 4.90194 13.4314 4.70586 13.5687 4.52939C12.804 4.35292 12.0001 4.52939 11.2354 4.45096C11.7844 4.2941 12.3334 4.27449 12.902 4.21567C13.1569 4.19606 13.451 4.35292 13.7452 4.25488Z" fill="#AC8132"/>
<path d="M16.2157 3.5293C16.4902 3.80381 16.7647 4.15675 16.7255 4.56851C16.6666 5.0391 16.5686 5.50969 16.3921 5.94106C16.2549 6.05871 16.098 6.17636 15.9608 6.27439C15.8823 6.21557 15.8235 6.17636 15.7451 6.11753L15.7059 6.09792C15.9215 5.60773 16.2941 5.15675 16.3137 4.60773C15.8823 4.62734 15.451 4.68616 15.0392 4.82341C14.8627 4.86263 14.7843 5.01949 14.7059 5.15675C14.6666 5.13714 14.5882 5.07832 14.5686 5.05871C14.5882 4.76459 14.9215 4.62734 15.098 4.41165C15.3529 4.09792 15.7255 3.98028 16.0784 3.80381C16.1961 3.76459 16.2157 3.64694 16.2157 3.5293Z" fill="#927238"/>
<path d="M14.5294 3.92139C14.549 4.05864 14.5686 4.1959 14.549 4.33315C14.3922 4.60766 14.2157 4.90178 14.0588 5.17629C14.1177 5.13707 14.2549 5.07825 14.3137 5.05864C14.2745 5.13707 14.2157 5.27433 14.1961 5.35276C14.0392 5.29394 13.902 5.25472 13.7451 5.2155C14.0785 4.82335 14.3137 4.37237 14.5294 3.92139Z" fill="#8C6228"/>
<path d="M8.8039 4.29409C9.03919 4.03919 9.39213 4.09801 9.68625 4.19605C10.1961 4.29409 10.7059 4.37252 11.2157 4.45095C12 4.52939 12.7843 4.35292 13.549 4.52939C13.3921 4.70586 13.2549 4.90194 13.1568 5.11762H9.37252C9.3137 4.94115 9.3137 4.70586 9.15684 4.58821C8.98037 4.47056 8.76468 4.47056 8.5686 4.45095C8.64703 4.41174 8.72547 4.35292 8.8039 4.29409Z" fill="#D2A83E"/>
<path d="M7.68628 5.13729C7.94118 4.88239 8.21569 4.62749 8.56863 4.49023C8.76471 4.50984 8.9804 4.50984 9.15687 4.62749C9.31373 4.74514 9.33334 4.96082 9.37255 5.1569C8.80393 5.13729 8.2353 5.13729 7.68628 5.13729Z" fill="#DCBA5A"/>
<path d="M15.0589 4.8236C15.4707 4.68634 15.902 4.62752 16.3334 4.60791C16.3138 5.15693 15.9412 5.60791 15.7256 6.09811C15.5491 5.98046 15.3922 5.88242 15.1961 5.78438C15.3334 5.66673 15.4903 5.52948 15.6079 5.39222L15.3138 5.45105C15.353 5.35301 15.3922 5.27458 15.4314 5.17654C15.1961 5.25497 14.9216 5.27458 14.7452 5.47066L14.6079 5.3334C14.6471 5.29418 14.7059 5.19615 14.7452 5.15693C14.804 5.01967 14.8824 4.86281 15.0589 4.8236Z" fill="#543E26"/>
<path d="M5.58828 5.13721H7.1373H7.23534H7.3922H7.68632H9.37259H13.1569C13.353 5.13721 13.5491 5.15681 13.7451 5.21564C13.902 5.25485 14.0393 5.31368 14.1961 5.35289C14.2942 5.39211 14.4118 5.41172 14.5295 5.41172C14.5491 5.45093 14.5687 5.50976 14.5687 5.52936C14.7844 5.52936 14.9412 5.64701 15.1373 5.74505C15.0197 6.03917 14.7844 6.27446 14.5687 6.49015C14.7648 6.58819 14.9608 6.70583 15.1373 6.84309C15.353 6.6078 15.5687 6.3725 15.7647 6.1176C15.8432 6.17642 15.902 6.21564 15.9804 6.27446C16.1373 6.39211 16.2746 6.50976 16.4118 6.6274C17.6275 7.70583 18.2353 9.31368 18.353 10.9019C18.3726 11.1176 18.3726 11.3137 18.3726 11.5294C18.3726 12.3529 18.2942 13.196 18.0785 14C17.9216 14.549 17.7059 15.098 17.4314 15.5882C17.2353 15.9019 17 16.2156 16.7451 16.4901C16.5687 16.6666 16.3922 16.8431 16.1961 16.9999C16.0981 16.9607 16.0197 16.9019 15.9216 16.8627C15.7647 16.9411 15.6275 17.0784 15.451 17.0784C15.1961 17.098 14.9804 17.196 14.7255 17.2549C14.9608 16.9019 15.451 16.647 15.3726 16.1568C15.2353 16.1568 15.0981 16.1764 14.9804 16.1764C15.0197 16 15.0589 15.8431 15.1177 15.6666C15.0785 15.647 14.9804 15.5882 14.9412 15.549C15.0981 15.3921 15.2353 15.2156 15.3726 15.0392C15.0785 15.098 14.804 15.2549 14.5295 15.3725C15.0785 14.5882 15.5491 13.745 15.9412 12.8823C16.1765 12.3333 16.4706 11.8039 16.4902 11.196C16.5098 10.8039 16.2549 10.4705 16.2549 10.098C16.2157 9.66662 16.2157 9.15681 15.8628 8.84309C15.2353 8.98034 14.6079 8.84309 13.9804 8.78427C13.804 8.76466 13.6471 8.78427 13.4706 8.82348C13.451 8.78427 13.4118 8.76466 13.3726 8.72544C13.1765 8.52936 12.9804 8.33328 12.7059 8.23525C12.451 8.19603 12.2157 8.23525 11.9608 8.23525H11.9216C11.6471 8.1176 11.3726 7.96074 11.0589 8.01956C10.804 8.03917 10.6471 8.27446 10.451 8.41172C10.2353 8.54897 10.0393 8.68623 9.86279 8.8823C10.0785 9.23525 10.451 9.43132 10.8432 9.54897L10.7844 10.2549C10.5491 10.3333 10.3138 10.4509 10.1177 10.6078C10 10.3725 9.96083 10.1176 9.84318 9.8627C9.72553 9.70583 9.56867 9.60779 9.43142 9.47054C9.3922 9.56858 9.37259 9.66662 9.33338 9.78427C9.25495 9.82348 9.19612 9.8627 9.11769 9.90191C9.09808 9.72544 9.09808 9.54897 9.07848 9.3725C9.00004 9.05877 8.78436 8.80387 8.66671 8.50976C8.68632 8.19603 8.78436 7.90191 8.78436 7.60779C8.6275 7.66662 8.47063 7.72544 8.33338 7.78427C8.1373 7.8627 8.01965 8.07838 7.86279 8.19603C7.68632 8.27446 7.50985 8.29407 7.33338 8.35289L7.35299 8.29407C7.50985 8.15681 7.54906 7.94113 7.60789 7.74505C7.50985 7.78427 7.41181 7.84309 7.31377 7.8823C7.19612 7.70583 7.37259 7.58819 7.49024 7.47054C7.33338 7.31368 7.11769 7.19603 6.8824 7.27446C6.50985 7.41172 6.33338 7.82348 6.29416 8.19603C6.1373 8.19603 5.98044 8.21564 5.82357 8.19603C5.8824 8.07838 5.94122 7.98034 6.00004 7.8627C5.92161 7.68623 5.74514 7.6274 5.58828 7.56858V6.31368V5.94113C5.52946 5.6274 5.49024 5.3725 5.58828 5.13721Z" fill="#F3EBDB"/>
<path d="M15.1177 5.74512C15.1373 5.74512 15.1765 5.76473 15.1765 5.78433C15.353 5.88237 15.5295 5.98041 15.7059 6.09806L15.7452 6.11767C15.5491 6.37257 15.3334 6.60786 15.1177 6.84316C14.9412 6.7059 14.7452 6.58825 14.5491 6.49022C14.7648 6.25492 15.0001 6.03923 15.1177 5.74512Z" fill="#DCDAD7"/>
<path d="M4.21558 8.84318C4.37244 7.76475 4.70577 6.6275 5.5293 5.86279V6.23534C4.98028 6.80397 4.66656 7.56868 4.50969 8.33338C4.45087 8.58828 4.33322 8.84318 4.23518 9.07848C4.21558 9.00005 4.21558 8.92162 4.21558 8.84318Z" fill="#A78E32"/>
<path d="M15.9607 6.27425C16.0979 6.1566 16.2548 6.05857 16.3921 5.94092C16.4509 6.09778 16.4901 6.25464 16.5489 6.41151C16.5097 6.47033 16.4313 6.58798 16.3921 6.62719C16.2352 6.50955 16.0979 6.3919 15.9607 6.27425Z" fill="#B59544"/>
<path d="M4.50986 8.35292C4.66672 7.58822 4.98045 6.82351 5.52947 6.25488V7.50978C5.27457 7.72547 5.15692 8.09802 4.82359 8.23528C4.78437 8.47057 4.68633 8.68626 4.54908 8.88233C4.45104 8.99998 4.353 9.13724 4.23535 9.25488V9.11763C4.33339 8.84312 4.45104 8.60782 4.50986 8.35292Z" fill="#EBCC73"/>
<path d="M6.78436 7.19586C7.01965 7.11743 7.23534 7.23508 7.3922 7.39194C7.27455 7.50959 7.09808 7.62724 7.21573 7.80371C7.31377 7.74488 7.41181 7.70567 7.50985 7.66645C7.47063 7.86253 7.43142 8.07822 7.25495 8.21547C7.03926 8.17626 6.84318 8.17625 6.62749 8.19586C6.6471 8.07822 6.6471 7.94096 6.68632 7.82331C6.78436 7.72527 6.92161 7.68606 7.03926 7.60763C6.96083 7.5292 6.902 7.43116 6.82357 7.39194C6.58828 7.45077 6.37259 7.62724 6.33338 7.86253C6.33338 7.98018 6.35298 8.07822 6.37259 8.19586H6.21573H6.17651L6.19612 8.11743C6.23534 7.74488 6.41181 7.33312 6.78436 7.19586Z" fill="#D7D7D5"/>
<path d="M16.1568 7.35274C16.3529 7.29392 16.5489 7.21549 16.7254 7.17627C16.8627 7.47039 16.8234 7.78411 16.6666 8.05862H16.8823C16.9019 8.31352 16.8823 8.64686 16.6078 8.72529C16.4509 8.37235 16.0587 8.17627 15.9607 7.78411C15.9803 7.62725 16.0783 7.49 16.1568 7.35274Z" fill="#E6DED7"/>
<path d="M6.35303 7.86268C6.39224 7.62738 6.60793 7.45091 6.84322 7.39209C6.94126 7.43131 7.00009 7.52934 7.05891 7.60778C6.94126 7.6666 6.80401 7.70582 6.70597 7.82346C6.66675 7.94111 6.66675 8.07836 6.64714 8.19601C6.58832 8.19601 6.45107 8.21562 6.37263 8.21562C6.37263 8.07836 6.35303 7.98032 6.35303 7.86268Z" fill="#F5F2E6"/>
<path d="M8.2744 7.68624C8.43126 7.62741 8.58812 7.56859 8.72538 7.50977C8.72538 7.82349 8.62734 8.11761 8.60773 8.41173C8.72538 8.70584 8.96067 8.96075 9.0195 9.27447C9.05871 9.45094 9.05871 9.62741 9.05871 9.80388C9.13714 9.76467 9.19597 9.72545 9.2744 9.68624C9.31361 9.5882 9.33322 9.49016 9.37244 9.37251C9.50969 9.49016 9.66655 9.6078 9.7842 9.76467C9.88224 9.99996 9.94106 10.2549 10.0587 10.5098C10.2744 10.3725 10.4901 10.2353 10.7254 10.1568L10.7842 9.45094V9.3529C10.6469 9.23526 10.4313 9.15682 10.4117 8.96075C10.392 8.70584 10.5685 8.47055 10.745 8.29408C10.8038 8.31369 10.843 8.31369 10.9018 8.3333C10.9999 8.3333 11.0587 8.27447 11.0587 8.15682H11.4705C11.3332 8.3529 11.1568 8.52937 10.9215 8.56859V8.94114C10.9215 9.07839 10.9018 9.19604 10.9018 9.33329V9.41173V10.3137V14.8627C10.9018 14.8823 10.9215 14.9411 10.9411 14.9804C11.6273 14.9411 12.392 15.1568 12.9803 14.7058C13.8038 14.1176 14.1567 13.0784 14.2352 12.098C14.3332 10.9411 14.1175 9.70584 13.4117 8.76467C13.5685 8.74506 13.745 8.70584 13.9215 8.72545C14.5489 8.80388 15.1764 8.92153 15.8038 8.78428C16.1764 9.098 16.1764 9.60781 16.196 10.0392C16.2156 10.4117 16.4509 10.7451 16.4313 11.1372C16.4313 11.7451 16.1175 12.2745 15.8822 12.8235C15.4901 13.6862 14.9999 14.5294 14.4705 15.3137C14.745 15.196 15.0195 15.0588 15.3136 14.9804C15.1764 15.1568 15.0195 15.3137 14.8822 15.4902C14.9215 15.5098 15.0195 15.5686 15.0587 15.6078C15.0195 15.7843 14.9803 15.9607 14.9215 16.1176C15.0587 16.1176 15.1764 16.098 15.3136 16.098C15.392 16.5882 14.9018 16.8431 14.6666 17.196C14.9018 17.1568 15.1371 17.0392 15.392 17.0196C15.5685 17.0196 15.7254 16.8823 15.8626 16.8039C15.9607 16.8431 16.0391 16.9019 16.1371 16.9411C15.196 17.6666 13.9803 18.0588 12.8038 18.0196H9.68616H8.33322H7.33322H7.0391C6.60773 18.0196 6.15675 18.0392 5.72538 18.0196C5.56851 18.0392 5.50969 17.8627 5.50969 17.7255C5.49008 17.3725 5.50969 17.0196 5.50969 16.6666V15.4706C5.50969 15.2941 5.5293 15.1176 5.56851 14.9607C6.11753 14.9019 6.68616 14.9804 7.23518 14.9411V14.3725V13.9411C7.2744 14.0588 7.31361 14.196 7.35283 14.3137C7.60773 14.2745 7.90185 14.196 8.09793 14.4313C8.56851 14.0196 9.23518 14.0392 9.80381 13.8039C9.92146 13.4902 10.196 13.2353 10.1764 12.8823C10.1568 12.8823 10.1175 12.8627 10.0783 12.8627C9.49008 12.6862 8.96067 13.0588 8.39204 13.098C8.01949 13.0588 7.64695 12.8823 7.41165 12.5882C7.43126 12.5098 7.45087 12.4117 7.47048 12.3333C7.41165 12.2941 7.35283 12.2353 7.294 12.196V11.6862C7.35283 11.4902 7.47048 11.3333 7.66655 11.2353C7.72538 10.9411 7.76459 10.647 7.82342 10.3333C7.66655 10.1372 7.45087 9.99996 7.23518 9.92153V9.90192V9.29408V8.25486V8.17643C7.41165 8.13722 7.60773 8.098 7.76459 8.01957C7.96067 7.98035 8.05871 7.76467 8.2744 7.68624Z" fill="#F8F3E4"/>
<path d="M4.80388 8.21572C5.13722 8.07847 5.25486 7.72553 5.50977 7.49023C5.50977 7.68631 5.50977 7.88239 5.52937 8.07847C5.5882 8.07847 5.68624 8.09808 5.74506 8.09808H6.21565L6.19604 8.17651H5.56859L5.50977 8.52945C5.098 8.68631 4.8431 9.07847 4.50977 9.33337C4.50977 9.17651 4.50977 9.00004 4.52937 8.84318C4.66663 8.6667 4.76467 8.45102 4.80388 8.21572Z" fill="#F4EFC8"/>
<path d="M5.50977 7.49023C5.66663 7.54906 5.8431 7.60788 5.92153 7.78435C5.86271 7.902 5.80388 8.00004 5.74506 8.11769C5.68624 8.11769 5.5882 8.09808 5.52937 8.09808C5.50977 7.902 5.50977 7.70592 5.50977 7.49023Z" fill="#FCFCF4"/>
<path d="M10.3922 8.33315C10.5883 8.1959 10.7451 7.98021 11 7.94099C11.3138 7.88217 11.5883 8.03903 11.8628 8.15668H11.4706C11.3334 8.15668 11.1961 8.13707 11.0589 8.15668C10.9412 8.15668 10.902 8.2155 10.902 8.33315C10.8432 8.33315 10.804 8.31354 10.7451 8.29394C10.5491 8.47041 10.3922 8.68609 10.4118 8.9606C10.4314 9.17629 10.6471 9.23511 10.7843 9.35276V9.4508C10.3922 9.35276 10.0196 9.15668 9.80396 8.78413C9.98043 8.60766 10.1765 8.47041 10.3922 8.33315Z" fill="#D7D7D5"/>
<path d="M5.54906 8.17627H6.17651H6.21572C6.29416 8.35274 6.4118 8.48999 6.58827 8.58803C6.6471 8.62725 6.68631 8.66647 6.74514 8.70568C6.58827 8.96058 6.33337 9.15666 6.21572 9.45078C6.09808 9.49 5.98043 9.54882 5.86278 9.58803C5.84318 9.56843 5.78435 9.54882 5.76474 9.52921C5.78435 9.48999 5.84318 9.41156 5.86278 9.37235C5.76474 9.35274 5.68631 9.33313 5.58827 9.31352C5.54906 9.05862 5.50984 8.80372 5.49023 8.54882C5.50984 8.41156 5.52945 8.29392 5.54906 8.17627Z" fill="#E5C66B"/>
<path d="M6.23535 8.19606H6.39221C6.37261 8.50979 6.74516 8.47057 6.94123 8.45096C6.8432 8.35292 6.74516 8.27449 6.64712 8.17645C6.8628 8.15685 7.05888 8.15685 7.27457 8.19606L7.25496 8.25488V8.33332C7.01967 8.37253 6.8628 8.62743 6.6079 8.60783C6.43143 8.50979 6.33339 8.35292 6.23535 8.19606Z" fill="#242110"/>
<path d="M6.39214 8.19588C6.45096 8.19588 6.58822 8.17627 6.66665 8.17627C6.76469 8.2547 6.86273 8.35274 6.96077 8.45078C6.72547 8.47039 6.37253 8.5096 6.39214 8.19588Z" fill="#938357"/>
<path d="M10.9214 8.33321C10.9018 8.21556 10.9607 8.15674 11.0783 8.15674C11.0587 8.25478 11.0195 8.33321 10.9214 8.33321Z" fill="#CDBD83"/>
<path d="M11.4706 8.15674H11.8627H11.9019C12.0784 8.27439 12.2549 8.39203 12.3921 8.5489C12.2353 8.90184 11.9411 9.19595 11.5686 9.35282C11.3529 9.41164 11.1176 9.39203 10.8823 9.41164V9.33321C11.0588 9.33321 11.2157 9.33321 11.3921 9.3136C11.196 9.23517 11.0196 9.11752 10.9019 8.94105C10.9019 8.8234 10.8823 8.68615 10.9019 8.5685C11.1568 8.52929 11.3333 8.35282 11.4706 8.15674Z" fill="#252211"/>
<path d="M11.9019 8.17661C12.1568 8.17661 12.3921 8.13739 12.647 8.17661C12.9215 8.27465 13.1175 8.47073 13.3136 8.66681C13.0587 8.92171 12.9019 9.25504 12.6862 9.52955C12.4705 9.82367 12.0979 9.88249 11.7842 10.0394C11.5097 10.1962 11.2156 10.2943 10.9019 10.3139V9.4119C11.1371 9.3923 11.3528 9.43151 11.5881 9.35308C11.9607 9.19622 12.2548 8.9021 12.4117 8.54916C12.2548 8.4119 12.0783 8.29426 11.9019 8.17661Z" fill="#D2B257"/>
<path d="M6.6079 8.60801C6.8628 8.62761 7.01967 8.39232 7.25496 8.3335V9.37271C7.05888 9.41193 6.8628 9.50997 6.66672 9.45114C6.52947 9.39232 6.37261 9.41193 6.23535 9.47075C6.353 9.19624 6.58829 8.98055 6.76476 8.72565C6.70594 8.68644 6.66672 8.64722 6.6079 8.60801Z" fill="#E6BD62"/>
<path d="M11.4902 8.35303C11.7451 8.37264 11.3726 8.58832 11.4902 8.35303V8.35303Z" fill="#696148"/>
<path d="M4.50989 9.35275C4.84322 9.09785 5.09812 8.70569 5.50989 8.54883C5.52949 8.80373 5.5491 9.05863 5.60792 9.31353C5.70596 9.33314 5.78439 9.35275 5.88243 9.37236C5.86283 9.41157 5.804 9.49 5.78439 9.52922C5.50989 9.7253 5.17655 9.88216 5.0393 10.2155C4.88243 10.6273 4.90204 11.0586 4.84322 11.49C4.74518 11.392 4.60792 11.3135 4.60792 11.1567C4.58832 10.8429 4.66675 10.5292 4.68636 10.2155C4.5491 10.4312 4.45106 10.6665 4.35302 10.9214C4.31381 11.0782 4.13734 11.0978 4.01969 11.1763C3.90204 11.2155 3.7844 11.2743 3.66675 11.3135C3.68636 11.1763 3.70596 11.0586 3.72557 10.9214C3.84322 10.9018 3.96087 10.9018 4.09812 10.8822C3.96087 10.8822 3.82361 10.9018 3.70596 10.9018C3.804 10.3331 3.86283 9.70569 4.23538 9.2155C4.33341 9.09785 4.45106 8.9802 4.5491 8.84295C4.50989 9.01942 4.50989 9.17628 4.50989 9.35275Z" fill="#F4ECB4"/>
<path d="M11.5686 8.6471C11.8235 8.54906 11.6078 8.902 11.5686 8.6471V8.6471Z" fill="#71694F"/>
<path d="M13.3138 8.6665L13.4118 8.76454C14.1373 9.70572 14.3334 10.941 14.2353 12.0979C14.1177 12.1567 13.9804 12.2351 13.8628 12.3136C13.6667 12.4508 13.5491 12.6861 13.353 12.8234C13 12.9998 12.5687 12.9606 12.2549 13.2155C12.0785 13.4116 11.9608 13.6665 11.7451 13.843C11.8628 13.9606 11.9804 14.0587 12.0785 14.1763C12.1373 14.2743 12.1177 14.392 12.1569 14.49C12.2549 14.5685 12.3726 14.6273 12.4706 14.7057C12.1961 14.7449 11.902 14.7449 11.6079 14.7057C11.3334 14.6469 11.0981 14.8038 10.8628 14.9018V10.3528C11.1765 10.3332 11.4706 10.2155 11.7451 10.0783C12.0393 9.92141 12.4314 9.86258 12.6471 9.56846C12.902 9.25474 13.0589 8.94101 13.3138 8.6665Z" fill="#DFCD88"/>
<path d="M10.9215 8.94092C11.0391 9.11739 11.2156 9.21543 11.4117 9.31347C11.2352 9.31347 11.0783 9.33307 10.9019 9.33307C10.9019 9.19582 10.9215 9.07817 10.9215 8.94092Z" fill="#DFCD88"/>
<path d="M6.23527 9.4706C6.37252 9.41177 6.52938 9.39217 6.66664 9.45099C6.86272 9.52942 7.05879 9.43138 7.25487 9.37256V9.9804C6.88232 9.84315 6.49017 9.74511 6.0784 9.76472C6.01958 9.7255 5.94115 9.66668 5.88232 9.62746C5.99997 9.56864 6.11762 9.50981 6.23527 9.4706Z" fill="#DFC57C"/>
<path d="M5.03925 10.2156C5.1765 9.88224 5.50984 9.72538 5.78435 9.5293C5.80396 9.5489 5.86278 9.56851 5.88239 9.58812C5.94121 9.62734 6.01964 9.68616 6.07846 9.72538C5.72552 9.74498 5.37258 9.96067 5.33337 10.3528C5.27454 10.8234 5.09807 11.294 5.05886 11.7646C5.01964 12.1175 5.33337 12.3332 5.43141 12.6469C5.47062 12.8038 5.47062 12.9803 5.50984 13.1371C5.47062 13.3528 5.4118 13.5489 5.39219 13.7646H5.1765C5.09807 13.9411 5.01964 14.0979 4.96082 14.2744C5.01964 14.6273 5.13729 14.9607 5.21572 15.294C5.19611 15.3332 5.1765 15.4117 5.1569 15.4509C4.98043 15.2548 4.88239 14.9999 4.6667 14.8822C4.60788 14.7842 4.54905 14.6862 4.49023 14.5881C4.13729 13.9999 3.90199 13.3332 3.80396 12.6469C3.84317 12.4509 3.88239 12.2548 3.90199 12.0391C4.03925 12.3332 4.03925 12.6666 4.21572 12.9411C4.35297 12.9018 4.47062 12.8822 4.60788 12.843L4.6667 12.9215C4.80396 12.7254 4.94121 12.5097 4.96082 12.2548C4.86278 12.3724 4.78435 12.5097 4.70592 12.6273C4.58827 12.4509 4.47062 12.294 4.39219 12.0979C4.35297 11.8626 4.37258 11.6469 4.35297 11.4117C4.27454 11.4313 4.19611 11.4509 4.09807 11.4705L4.1569 11.4117C4.23533 11.3332 4.29415 11.2548 4.37258 11.1567C4.27454 11.1371 4.1765 11.1371 4.07846 11.1175H4.01964C4.13729 11.0391 4.31376 10.9999 4.35297 10.8626C4.43141 10.6273 4.52945 10.3724 4.68631 10.1567C4.6667 10.4705 4.58827 10.7842 4.60788 11.0979C4.60788 11.2548 4.74513 11.3332 4.84317 11.4313C4.90199 11.0783 4.88239 10.6273 5.03925 10.2156Z" fill="#F3E19D"/>
<path d="M5.33341 10.3726C5.37262 10.0001 5.72556 9.76478 6.0785 9.74517C6.47066 9.72557 6.86282 9.82361 7.25497 9.96086V9.98047V11.0393V11.0981C7.13733 11.2158 7.01968 11.3334 6.92164 11.4511C6.72556 11.6079 6.49027 11.6864 6.23537 11.7452C6.21576 11.804 6.19615 11.902 6.19615 11.9413C6.17654 12.0001 6.15693 12.1177 6.13733 12.1765C5.80399 11.8628 5.60791 11.4511 5.37262 11.0589C5.25497 10.8432 5.29419 10.6079 5.33341 10.3726Z" fill="#252211"/>
<path d="M7.25496 9.98047C7.49025 10.0589 7.70594 10.1962 7.84319 10.3922C7.78437 10.6864 7.74516 10.9805 7.68633 11.2942C7.50986 11.3922 7.37261 11.5491 7.31378 11.7452C7.33339 11.5099 7.29418 11.2746 7.23535 11.0393C7.25496 10.6864 7.25496 10.3334 7.25496 9.98047Z" fill="#DFDDD9"/>
<path d="M1.90186 10.0782C2.15676 10.039 2.41166 10.0782 2.66656 10.0586L2.54891 10.2155C2.94107 10.1958 3.33323 10.2155 3.70578 10.3331C3.35284 10.2547 3.0195 10.2155 2.66656 10.2351C2.52931 10.2547 2.41166 10.1958 2.31362 10.1174C2.17637 10.0978 1.98029 10.2351 1.90186 10.0782Z" fill="#D6D6D5"/>
<path d="M5.0589 11.7843C5.09812 11.2941 5.27459 10.8431 5.33341 10.3726C5.3138 10.6079 5.25498 10.8431 5.39223 11.0588C5.60792 11.451 5.804 11.8628 6.15694 12.1765C6.17655 12.1177 6.19616 12 6.21576 11.9412C6.33341 11.9412 6.47067 11.9608 6.58831 11.9608C6.76478 12.098 6.94125 12.2353 7.09812 12.3922C7.25498 12.0784 7.03929 11.7843 7.0589 11.4706C7.01969 11.4706 6.96086 11.451 6.94125 11.451C7.0589 11.3333 7.15694 11.2157 7.27459 11.098V12.7059C6.66674 12.5098 6.01969 12.2941 5.39223 12.5098C5.98047 12.7843 6.64714 12.8039 7.27459 12.9608V13.4902C6.98047 13.6275 6.72557 13.8039 6.45106 13.9412C6.15694 13.7451 5.94125 13.451 5.64714 13.2549C5.62753 13.2353 5.56871 13.1765 5.52949 13.1569C5.49027 13 5.47067 12.8235 5.45106 12.6667C5.33341 12.3726 5.00008 12.1373 5.0589 11.7843Z" fill="#6E6342"/>
<path d="M2.64697 11.2351C2.94109 11.0586 3.29403 10.9998 3.62736 10.9214C3.58815 10.9998 3.52933 11.039 3.45089 11.0586C3.19599 11.1567 2.92148 11.2351 2.64697 11.2351Z" fill="#BFA64C"/>
<path d="M18.3137 10.9019C18.4706 11.3136 18.451 11.7646 18.6274 12.1764C18.7843 12.7646 19.1176 13.3332 19.0588 13.9607C18.9804 13.8234 18.902 13.6862 18.902 13.5293C18.902 13.196 18.7255 12.9019 18.6471 12.5881C18.549 12.2352 18.451 11.8822 18.3333 11.5489C18.3333 11.3136 18.3333 11.1175 18.3137 10.9019Z" fill="#988430"/>
<path d="M7.25488 11.0391C7.2941 11.2744 7.33331 11.5097 7.33331 11.7449V12.2547C7.39214 12.294 7.45096 12.3528 7.50978 12.392C7.49018 12.4704 7.47057 12.5489 7.45096 12.6469C7.41175 12.7646 7.41175 12.9018 7.41175 13.0195C8.27449 13.3136 9.33331 13.5293 10.1176 12.9214C10.1372 12.9214 10.1765 12.941 10.2157 12.941C10.2549 13.294 9.98037 13.5489 9.84312 13.8626C9.2941 14.0979 8.60782 14.0783 8.13724 14.49C7.94116 14.2547 7.64704 14.3332 7.39214 14.3724C7.35292 14.2547 7.31371 14.1175 7.27449 13.9998V13.5097V12.9802V12.7253V11.1175L7.25488 11.0391Z" fill="#E7E3DB"/>
<path d="M4.09812 11.1763C4.19616 11.1763 4.2942 11.1959 4.39224 11.2155C4.31381 11.2939 4.25498 11.392 4.17655 11.4704C4.01969 11.5488 3.84322 11.6272 3.68636 11.7253C3.68636 11.6469 3.68636 11.4704 3.66675 11.392C3.82361 11.3135 3.96087 11.2351 4.09812 11.1763Z" fill="#F5EDB6"/>
<path d="M4.11774 11.5295C4.19617 11.5099 4.27461 11.4903 4.37264 11.4707C4.39225 11.706 4.39225 11.9217 4.41186 12.157C4.47068 12.3531 4.60794 12.5099 4.72559 12.6864C4.68637 12.7452 4.64715 12.8236 4.60794 12.8825C4.47068 12.9021 4.33343 12.9413 4.21578 12.9805C4.0197 12.7256 4.03931 12.3727 3.90206 12.0785C3.86284 12.2746 3.82363 12.4707 3.80402 12.6864C3.7648 12.3923 3.72559 12.0785 3.72559 11.7844C3.80402 11.6668 3.98049 11.6276 4.11774 11.5295Z" fill="#F4ECB4"/>
<path d="M6.23526 11.7453C6.47055 11.6865 6.72546 11.6276 6.92153 11.4512C6.96075 11.4512 7.01957 11.4708 7.03918 11.4708C6.99997 11.7845 7.23526 12.0786 7.0784 12.3923C6.92153 12.2159 6.74506 12.0982 6.56859 11.961C6.45095 11.961 6.31369 11.9414 6.19604 11.9414C6.19604 11.9022 6.21565 11.8041 6.23526 11.7453Z" fill="#39331F"/>
<path d="M18.3333 11.5293C18.4313 11.8822 18.5489 12.2352 18.647 12.5685C18.7254 12.8822 18.9019 13.1764 18.9019 13.5097C18.9019 13.6666 18.9607 13.8038 19.0588 13.9411C18.9999 14.392 19.2352 14.8038 19.2156 15.2352C19.2156 15.392 19.196 15.5685 19.1764 15.7254C19.1176 15.6273 19.0391 15.5293 18.9803 15.4509C18.9019 15.7254 18.9607 16.0391 18.7254 16.2548C18.6274 16.1175 18.5882 15.9018 18.3921 15.8822C18.1176 15.843 17.8431 15.9803 17.6666 16.1764C17.4117 16.4313 17.0391 16.4509 16.7058 16.4901C16.9607 16.2156 17.196 15.9215 17.3921 15.5881C17.5686 15.6469 17.7058 15.4901 17.8235 15.392C17.9607 15.2744 18.1372 15.2352 18.2744 15.1567C18.3921 14.9607 18.4901 14.7254 18.5489 14.4901C18.5097 14.3332 18.4313 14.196 18.3921 14.0391L18.1568 14.0979C18.1176 14.0783 18.0588 14.0195 18.0195 13.9803C18.2548 13.196 18.3333 12.3528 18.3333 11.5293Z" fill="#CCA847"/>
<path d="M3.35284 11.8823C3.47049 11.8234 3.47049 11.9803 3.37245 11.9999C3.29402 12.0391 3.19598 12.1372 3.09794 12.0783C3.07833 11.9607 3.25481 11.9215 3.35284 11.8823Z" fill="#C1A956"/>
<path d="M13.8626 12.3138C13.9803 12.2354 14.0979 12.1766 14.2352 12.0981C14.1568 13.0785 13.8038 14.1178 12.9803 14.706C12.3921 15.157 11.6077 14.9413 10.9411 14.9805C10.9411 14.9609 10.9215 14.9021 10.9019 14.8629C11.1371 14.7648 11.3724 14.6276 11.647 14.6668C11.9215 14.706 12.2156 14.706 12.5097 14.6668C12.3921 14.6079 12.294 14.5295 12.196 14.4511C12.1371 14.353 12.1568 14.2354 12.1175 14.1374C12.0195 14.0197 11.9019 13.9021 11.7842 13.804C11.9999 13.6276 12.1175 13.3727 12.294 13.1766C12.6077 12.9217 13.0391 12.9609 13.3921 12.7844C13.5489 12.6864 13.6666 12.4511 13.8626 12.3138Z" fill="#ECD592"/>
<path d="M4.72548 12.706C4.80391 12.5688 4.88234 12.4511 4.98038 12.3335C4.96077 12.5884 4.82352 12.8041 4.68626 13.0002L4.62744 12.9217C4.64705 12.8433 4.68626 12.7649 4.72548 12.706Z" fill="#D7C27C"/>
<path d="M5.37256 12.5099C6.00001 12.3138 6.64707 12.5295 7.25491 12.706V12.9609C6.62746 12.804 5.96079 12.7844 5.37256 12.5099Z" fill="#242110"/>
<path d="M7.39209 13.0195C7.39209 12.9019 7.39209 12.7646 7.43131 12.647C7.6666 12.9411 8.03915 13.1176 8.4117 13.1568C8.98033 13.1176 9.50974 12.745 10.098 12.9215C9.31366 13.5293 8.25483 13.3136 7.39209 13.0195Z" fill="#D6D6D5"/>
<path d="M5.50988 13.1567C5.52949 13.1763 5.58831 13.2352 5.62753 13.2548C5.64714 13.6469 5.88243 13.9607 6.0589 14.294C6.19616 14.5685 6.45106 14.7646 6.70596 14.9214C6.88243 14.9803 7.07851 14.9607 7.25498 14.9803C6.70596 15.0195 6.13733 14.9411 5.58831 14.9999C5.5491 15.1763 5.52949 15.3332 5.52949 15.5097L5.23537 15.3332C5.15694 14.9999 5.03929 14.6469 4.98047 14.3136C5.03929 14.1371 5.11772 13.9607 5.19616 13.8038H5.41184C5.41184 13.5881 5.47066 13.3724 5.50988 13.1567Z" fill="#EED88B"/>
<path d="M5.62744 13.2549C5.92156 13.451 6.13725 13.7451 6.43136 13.9412L6.66666 14.1765C6.84313 14.3137 7.05881 14.3529 7.2745 14.4117V14.9804C7.09803 14.9608 6.90195 14.9804 6.72548 14.9215C6.47058 14.7451 6.23528 14.549 6.07842 14.2941C5.88234 13.9608 5.64705 13.647 5.62744 13.2549Z" fill="#DFC677"/>
<path d="M6.41162 13.9412C6.68613 13.804 6.96064 13.6079 7.23515 13.4902V13.9804C7.01946 14.0196 6.78417 14 6.62731 14.1765C6.56848 14.0981 6.49005 14.0196 6.41162 13.9412Z" fill="#927D49"/>
<path d="M6.64697 14.1765C6.80384 14.0001 7.03913 14.0197 7.25482 13.9805V14.4118C7.03913 14.353 6.82344 14.3138 6.64697 14.1765Z" fill="#C4A859"/>
<path d="M18.0391 14C18.0783 14.0196 18.1371 14.0784 18.1763 14.1176L18.4116 14.0588C18.4508 14.2157 18.5097 14.3529 18.5685 14.5098C18.5097 14.7451 18.4116 14.9608 18.294 15.1765C18.1371 15.2549 17.9606 15.2941 17.843 15.4118C17.7057 15.4902 17.5881 15.6667 17.4116 15.6078C17.6861 15.098 17.9018 14.549 18.0391 14Z" fill="#C0993A"/>
<path d="M4.47049 14.6274C4.52931 14.7255 4.58814 14.8235 4.64696 14.9216C4.80382 15.5686 5.03912 16.2353 5.5097 16.7255C5.5097 17.0784 5.4901 17.4314 5.5097 17.7843C5.5097 17.902 5.56853 18.0784 5.72539 18.0784C6.15676 18.098 6.60774 18.0784 7.03912 18.0784C6.86265 18.3137 6.9999 18.5686 6.9999 18.8235C6.9999 19.1176 7.15676 19.3921 7.21559 19.6667C7.09794 19.9804 6.88225 20.2549 6.72539 20.549C6.56853 20.5686 6.39206 20.5098 6.23519 20.549C6.13715 20.6863 6.09794 20.8627 5.90186 20.902C5.05872 20.3725 4.27441 19.7647 3.58813 19.0392C3.88225 18.4314 4.13715 17.7647 4.07833 17.0784C4.03912 16.7843 4.2548 16.5686 4.29402 16.2941C4.29402 16.1372 4.17637 16.0196 4.09794 15.8823C4.37245 15.4902 4.47049 15.0588 4.47049 14.6274Z" fill="#E5CB7A"/>
<path d="M4.64697 14.9214C4.88227 15.0586 4.98031 15.3135 5.13717 15.49C5.15678 15.4508 5.17638 15.3724 5.19599 15.3332L5.49011 15.5096C5.50972 15.9018 5.49011 16.3135 5.49011 16.7057C5.05874 16.2351 4.82344 15.5684 4.64697 14.9214Z" fill="#D2B159"/>
<path d="M18.9608 15.4512C19.0393 15.5492 19.0981 15.6276 19.1569 15.7257C19.1961 16.1963 19.2942 16.6473 19.3138 17.1178C19.3334 17.7453 19.3334 18.3923 19.3726 19.0198C18.6667 19.7649 17.8432 20.412 16.9608 20.9218C16.6275 20.6865 16.2354 20.8629 15.9216 21.059C15.9805 20.9414 16.0589 20.8629 16.1569 20.7649C16.353 20.608 16.4118 20.3531 16.6275 20.1963C16.8236 20.0198 17.0981 19.9022 17.2746 19.6865C17.4314 19.3335 17.7844 19.1374 18.0001 18.8237C18.1961 18.5296 18.5295 18.2747 18.4903 17.8825C18.4707 17.5492 18.5491 17.2355 18.5883 16.9022C18.6079 16.6669 18.6275 16.4316 18.7452 16.2159C18.9412 16.059 18.8824 15.7257 18.9608 15.4512Z" fill="#BA9040"/>
<path d="M17.6667 16.1763C17.8628 15.9802 18.1177 15.843 18.3922 15.8822C18.5882 15.9018 18.6275 16.1175 18.7255 16.2547C18.6275 16.4704 18.5882 16.7057 18.5686 16.941C18.5294 17.2744 18.4706 17.5881 18.4706 17.9214C18.5098 18.3136 18.1765 18.5685 17.9804 18.8626C17.7647 19.1763 17.4118 19.3724 17.2549 19.7253H16.9216C17.2157 19.294 17.3922 18.7842 17.6079 18.3332C17.6667 18.2547 17.6471 18.1763 17.6079 18.0979C17.549 17.9606 17.6275 17.8234 17.6079 17.6861C17.5882 17.5489 17.5294 17.4116 17.4706 17.2744C17.2353 17.2351 16.9804 17.1763 16.7255 17.1763C16.4118 17.2351 16.1961 17.49 15.9216 17.6077C15.7843 17.6665 15.6471 17.6861 15.5098 17.7645C15.2549 17.9802 15.1961 18.3332 14.9216 18.5096C14.6471 18.7057 14.3922 18.941 14.1373 19.1371C13.9804 19.2744 13.7647 19.1763 13.5686 19.1959C13.4118 19.2744 13.2941 19.4312 13.1373 19.5293C12.9412 19.5881 12.7059 19.5685 12.5294 19.7253C12.2549 19.9606 11.8628 19.9018 11.5686 20.0979C11.2353 20.2547 11.098 20.6273 10.7843 20.8234C10.549 20.9606 10.3726 21.1763 10.1765 21.3724C10.1177 21.3136 10.0784 21.2547 10.0196 21.1959C9.76472 21.3528 9.54903 21.5881 9.25491 21.6469C9.13726 21.5096 9.03923 21.3528 8.86276 21.3528C8.90197 21.294 8.92158 21.2351 8.96079 21.1567C8.90197 21.0783 8.82354 20.9998 8.70589 20.9998C8.41177 20.9606 8.13726 21.0195 7.84315 20.9998C7.64707 20.9018 7.49021 20.7449 7.37256 20.5489C7.58824 20.294 7.68628 19.9606 7.88236 19.6861C8.00001 19.5293 8.15687 19.6469 8.29413 19.6861C8.35295 19.5489 8.41177 19.4312 8.4706 19.294C8.54903 19.294 8.62746 19.3136 8.70589 19.3136C8.88236 19.1371 9.00001 18.9214 9.07844 18.6861C9.19609 18.6469 9.33334 18.6077 9.45099 18.5685C9.45099 18.3528 9.54903 18.1763 9.68628 18.0391H12.8039C14 18.0587 15.1961 17.6861 16.1373 16.9606C16.3333 16.8038 16.5098 16.6469 16.6863 16.4508C17.0392 16.4508 17.4118 16.4312 17.6667 16.1763Z" fill="#D8C173"/>
<path d="M15.9607 17.5881C16.2352 17.4704 16.4509 17.2155 16.7646 17.1567C17.0195 17.1371 17.2548 17.1959 17.5097 17.2547C17.5489 17.392 17.6077 17.5292 17.6469 17.6665C17.6469 17.8037 17.5881 17.941 17.6469 18.0782C17.6666 18.1567 17.7058 18.2351 17.6469 18.3135C17.4117 18.7841 17.2352 19.2743 16.9607 19.7057H17.294C17.1371 19.941 16.8626 20.039 16.6469 20.2155C16.4509 20.3724 16.3724 20.6273 16.1764 20.7841C16.0783 20.8626 15.9999 20.9606 15.9411 21.0782C15.5293 21.3528 15.0587 21.4704 14.6273 21.6861V21.4508C14.3136 21.5292 13.9999 21.5881 13.6862 21.6665C13.4313 21.7449 13.2548 21.9802 13.0195 22.0979C12.8234 22.1567 12.6273 22.1763 12.4705 22.3528C11.0391 22.4704 9.58813 22.3331 8.21558 21.9018C8.37244 21.8626 8.5293 21.8037 8.66656 21.7449C8.68616 21.5684 8.7842 21.4312 8.90185 21.3135C9.09793 21.3135 9.19597 21.4704 9.29401 21.6077C9.58813 21.5488 9.80381 21.2939 10.0587 21.1567C10.1175 21.2155 10.1568 21.2743 10.2156 21.3331C10.4117 21.1371 10.5881 20.941 10.8234 20.7841C11.1371 20.6077 11.2744 20.2351 11.6077 20.0586C11.9019 19.843 12.294 19.9214 12.5685 19.6861C12.745 19.5292 12.9803 19.5684 13.1764 19.49C13.3332 19.392 13.4509 19.2351 13.6077 19.1567C13.7842 19.1175 14.0195 19.2351 14.1764 19.0979C14.4313 18.8822 14.6862 18.6469 14.9607 18.4704C15.2548 18.2939 15.3136 17.9214 15.5489 17.7253C15.6666 17.6665 15.8234 17.6469 15.9607 17.5881Z" fill="#E0CD81"/>
<path d="M7.05892 18.0586H7.35304C7.56872 18.3135 7.86284 18.6076 8.23539 18.6076C8.52951 18.588 8.37264 18.2351 8.35304 18.0586H9.70598C9.54912 18.1958 9.47068 18.3723 9.47068 18.588C9.35304 18.6272 9.21578 18.6664 9.09814 18.7057C9.0197 18.9409 8.92166 19.1762 8.72559 19.3331C8.64715 19.3135 8.56872 19.3135 8.49029 19.3135C8.43147 19.4508 8.37265 19.5684 8.31382 19.7057C8.17657 19.6664 8.0001 19.5488 7.90206 19.7057C7.72559 19.9802 7.62755 20.3135 7.39225 20.5684L7.27461 20.3331C7.09813 20.4115 6.92166 20.49 6.72559 20.5488C6.88245 20.2547 7.09813 19.9802 7.21578 19.6664C7.17657 19.3723 7.0197 19.1174 7.0001 18.8233C7.0197 18.5488 6.90206 18.2939 7.05892 18.0586Z" fill="#C2A44D"/>
<path d="M7.35303 18.0586H8.35303C8.39224 18.2351 8.5295 18.588 8.23538 18.6076C7.86283 18.6272 7.58832 18.3331 7.35303 18.0586Z" fill="#D2B159"/>
<path d="M6.74516 20.5292C6.92163 20.4703 7.11771 20.3919 7.29418 20.3135L7.41183 20.5488C7.52947 20.7252 7.68634 20.8821 7.88242 20.9998C8.17653 21.0194 8.45104 20.9605 8.74516 20.9998C8.86281 20.9801 8.94124 21.0586 9.00006 21.1566C8.98045 21.2154 8.94124 21.2743 8.90202 21.3527C8.78438 21.4703 8.68634 21.6076 8.66673 21.7841C8.50987 21.8429 8.353 21.9017 8.21575 21.9409C7.41183 21.686 6.64712 21.3331 5.92163 20.9213C6.0981 20.8821 6.15692 20.7056 6.25496 20.5684C6.39222 20.4899 6.56869 20.5684 6.74516 20.5292Z" fill="#CEB052"/>
<path d="M15.9215 21.0785C16.2352 20.8824 16.6274 20.7059 16.9607 20.9412C15.5882 21.7451 14.0392 22.2353 12.4509 22.353C12.5882 22.1961 12.8039 22.1765 12.9999 22.0981C13.2352 21.9804 13.3921 21.7255 13.6666 21.6667C13.9803 21.5687 14.2941 21.5099 14.6078 21.451V21.6863C15.0196 21.4706 15.5098 21.353 15.9215 21.0785Z" fill="#D2BA6B"/>
</g>
</g>
<defs>
<clipPath id="clip0_57_9817">
<rect width="23" height="23" fill="white"/>
</clipPath>
<clipPath id="clip1_57_9817">
<rect width="23" height="23" fill="white"/>
</clipPath>
</defs>
</svg>
