<svg width="23" height="23" viewBox="0 0 23 23" fill="none" xmlns="http://www.w3.org/2000/svg">
<g clip-path="url(#clip0_57_9923)">
<path d="M11.5 23C17.8513 23 23 17.8513 23 11.5C23 5.14873 17.8513 0 11.5 0C5.14873 0 0 5.14873 0 11.5C0 17.8513 5.14873 23 11.5 23Z" fill="#008DE4"/>
<path d="M4.52563 18.4939C4.52563 18.4743 4.56482 18.2392 4.62359 17.965C4.68236 17.6907 4.74114 17.3576 4.76073 17.2205C4.78032 17.0834 4.83909 16.7699 4.89787 16.4956C4.95664 16.2214 5.01541 15.9079 5.01541 15.7708L5.035 15.5357H8.24795C10.9711 15.5357 11.5001 15.5357 11.7744 15.4769C12.3033 15.3985 12.6755 15.3006 13.2241 15.0851C13.2829 15.0655 13.42 14.9871 13.518 14.9283L13.7139 14.8108C13.7139 14.8108 13.7922 14.752 13.8706 14.6933C13.949 14.6345 14.0077 14.5757 14.0273 14.5757C14.0469 14.5757 14.1253 14.4973 14.2232 14.3798L14.4779 14.1251C14.5171 14.0859 14.5563 14.0467 14.5563 14.0272C14.5563 14.0076 14.5955 13.9684 14.6151 13.9292C14.6934 13.8508 15.0265 13.2043 15.0265 13.1456C15.0265 13.126 15.0657 12.9888 15.1244 12.8713C15.1832 12.7341 15.242 12.5578 15.2616 12.4599C15.2812 12.3619 15.3399 12.1072 15.3987 11.8917C15.8689 10.0697 15.7514 8.95305 15.0461 8.26736C14.7522 7.97349 14.3604 7.77758 13.8118 7.62085C13.3221 7.48371 13.1457 7.48371 9.77606 7.46412C7.97368 7.44453 6.48475 7.42494 6.46516 7.42494C6.44557 7.40535 6.48475 7.15066 6.70025 5.9556C6.75902 5.60296 6.83739 5.23073 6.85698 5.09359C6.87657 4.95646 6.91575 4.78014 6.93535 4.68218L6.97453 4.50586L10.7948 4.52545C14.8893 4.54504 14.6543 4.52545 15.5163 4.72136C15.9277 4.79973 16.0844 4.8585 16.4175 4.97605C16.7113 5.074 17.2403 5.34828 17.3382 5.42664C17.3774 5.46583 17.4362 5.50501 17.4754 5.50501C17.5537 5.54419 18.0239 5.9556 18.1807 6.13192C18.4158 6.42579 18.4941 6.52375 18.6117 6.71966C18.7488 6.95475 18.9447 7.48371 19.0231 7.79717C19.1798 8.46327 19.1798 8.46327 19.1798 9.5016C19.1798 10.3636 19.1602 10.5595 19.1014 10.9318C19.0623 11.1668 19.0035 11.4803 18.9839 11.5979C18.8859 12.2248 18.6313 13.1847 18.3962 13.8312C18.2786 14.1447 17.9847 14.7912 17.9456 14.85C17.926 14.8696 17.8672 14.9675 17.8084 15.0851C17.7497 15.183 17.6909 15.3006 17.6713 15.3202C17.6517 15.3398 17.5537 15.4965 17.4362 15.6532C17.1031 16.143 16.3979 16.9071 15.9865 17.1813C15.5554 17.4752 15.3008 17.6319 15.0461 17.7495C14.6347 17.9454 14.2037 18.1413 14.1449 18.1413C14.1253 18.1413 13.9686 18.1805 13.7922 18.2393C13.6355 18.298 13.42 18.3568 13.3221 18.3568C13.2437 18.3764 13.0086 18.396 12.8323 18.4352C12.656 18.4548 12.3033 18.4939 12.0878 18.5135C11.6764 18.5331 4.52563 18.5331 4.52563 18.4939Z" fill="white"/>
<path d="M1.99829 12.9303C1.99829 12.7736 2.4097 11.1867 2.48807 11.0104C2.72316 10.5402 3.09539 10.2267 3.60476 10.0896C3.85945 10.0112 3.91822 10.0112 7.32708 10.0112C9.22742 10.0112 10.7751 10.0112 10.7751 10.0308C10.7751 10.1092 10.4813 11.3042 10.3637 11.7548C10.3049 11.9899 10.0503 12.3818 9.89352 12.5189C9.81516 12.5973 9.63884 12.6952 9.52129 12.754C9.07069 12.9695 9.24701 12.9695 5.46592 12.9695C2.33134 12.9891 1.99829 12.9891 1.99829 12.9303Z" fill="white"/>
<g clip-path="url(#clip1_57_9923)">
<path d="M11.5 0C17.8513 0 23 5.14873 23 11.5C23 17.8513 17.8513 23 11.5 23C5.14873 23 0 17.8513 0 11.5C0 5.14873 5.14873 0 11.5 0Z" fill="#7866D5"/>
<path d="M16.1039 17.4951C16.4957 17.4363 16.9071 17.4167 17.3185 17.3383C18.1022 17.1816 18.3569 16.7898 18.2393 15.9865C18.2001 15.6927 17.965 15.4576 17.6712 15.3988C17.4949 15.3596 17.299 15.34 17.103 15.3596C14.517 15.3596 11.9506 15.34 9.36454 15.34C8.99231 15.34 8.58089 15.3008 8.20866 15.2421C6.93524 15.0462 6.44546 14.5172 6.32791 13.2242C6.26914 12.6365 6.26914 12.6365 6.89605 12.6365H17.1618H17.4557C17.6124 12.6365 17.7691 12.5777 17.9259 12.4993C18.3961 12.2054 18.2785 11.7157 18.2589 11.2847C18.2393 10.932 18.0238 10.7361 17.6712 10.6773C17.5145 10.6382 17.3773 10.6382 17.201 10.6382H6.66096C6.28873 10.6382 6.28873 10.6382 6.30832 10.2659C6.32791 9.91328 6.36709 9.56064 6.44546 9.22759C6.60219 8.60068 6.99401 8.20886 7.64052 8.01294C8.3458 7.81703 9.07067 7.77785 9.77595 7.75826H17.3185C17.632 7.75826 17.9259 7.71908 18.1218 7.42521C18.4352 6.93543 18.2785 6.28892 17.7691 5.97546C17.7104 5.91669 17.632 5.8971 17.5536 5.87751C17.0051 5.70119 16.4369 5.66201 15.8688 5.64242C13.5179 5.62282 11.1669 5.62282 8.81599 5.66201C8.09111 5.6816 7.36624 5.75996 6.64137 5.91669C4.95653 6.26933 4.11411 7.13134 3.83983 8.81618C3.78106 9.18841 3.74188 9.59983 3.68311 9.99165V13.0675C3.72229 13.3613 3.74188 13.6748 3.78106 13.9882C3.99656 15.8886 4.85857 16.829 6.73932 17.26C7.40542 17.4167 8.09111 17.4363 8.75721 17.5146L16.1039 17.4951Z" fill="white"/>
<path d="M12.3423 5.32855C11.1473 5.32855 9.97178 5.34814 8.79632 5.36773C8.05185 5.38732 7.30739 5.46569 6.58252 5.64201C4.78013 6.01424 3.83976 6.9938 3.54589 8.77659C3.48712 9.05087 3.46752 9.34473 3.44793 9.59942C3.42834 9.71696 3.40875 9.83451 3.38916 9.97165V13.1062L3.42834 13.4001C3.44793 13.6156 3.48712 13.8115 3.48712 14.0074C3.72221 16.0449 4.68218 17.0832 6.68047 17.5338C7.20943 17.6514 7.7188 17.6906 8.24776 17.7493C8.40449 17.7689 8.58081 17.7885 8.73754 17.8081H16.1626C16.2801 17.7885 16.4173 17.7689 16.5348 17.7689C16.8091 17.7297 17.103 17.7101 17.3968 17.6514C18.3372 17.4751 18.7094 16.9461 18.5331 15.9861C18.4743 15.5747 18.1609 15.2221 17.7103 15.1633C17.5144 15.1241 17.3185 15.1045 17.103 15.1045C14.5365 15.0849 11.9505 15.0653 9.38405 15.0653C9.01182 15.0653 8.63959 15.0262 8.26735 14.9674C7.13107 14.7911 6.73925 14.3797 6.64129 13.2042C6.64129 13.1062 6.6217 13.0083 6.6217 12.9299H6.89597H17.4752C17.6907 12.9299 17.9062 12.8711 18.0825 12.7732C18.6507 12.401 18.5919 11.8524 18.5723 11.4606C18.5723 11.4018 18.5527 11.343 18.5527 11.3038C18.5135 10.8337 18.2392 10.5202 17.7299 10.4222C17.5536 10.3831 17.3772 10.3831 17.2205 10.3831H6.68047H6.6217V10.3243V10.3047C6.64129 9.95206 6.68047 9.61901 6.75884 9.28596C6.89597 8.77659 7.20943 8.46313 7.73839 8.3064C8.44367 8.11049 9.18814 8.07131 9.81505 8.07131C11.7742 8.05172 13.7529 8.05172 15.6924 8.05172H17.3576C17.6123 8.05172 18.1217 8.05172 18.4156 7.56194C18.6115 7.24848 18.6702 6.87625 18.5723 6.5432C18.4939 6.19056 18.2784 5.89669 17.965 5.70078C17.8866 5.64201 17.7886 5.60283 17.6907 5.56364C17.0834 5.36773 16.4565 5.32855 15.9275 5.30896C14.7128 5.34814 13.5374 5.32855 12.3423 5.32855ZM3.97689 10.0108C3.99649 9.89328 4.01608 9.77574 4.01608 9.65819C4.05526 9.38391 4.07485 9.12923 4.11403 8.85495C4.38831 7.28766 5.13277 6.5432 6.68047 6.21015C7.38575 6.05342 8.09103 5.97506 8.79632 5.95547C11.1277 5.89669 13.5178 5.89669 15.8687 5.95547C16.3585 5.97506 16.9266 6.01424 17.4556 6.17097C17.5144 6.19056 17.5536 6.22974 17.6123 6.22974C17.7691 6.34729 17.9062 6.50402 17.965 6.71952C18.0237 6.91543 17.9846 7.11134 17.867 7.30725C17.7691 7.46398 17.6319 7.50317 17.3185 7.50317H15.6728C13.7529 7.50317 11.7546 7.50317 9.79546 7.52276C9.12936 7.52276 8.34572 7.56194 7.58166 7.79703C6.8372 7.99294 6.36701 8.48272 6.19069 9.22719C6.11233 9.59942 6.05356 9.97165 6.05356 10.3439V10.3635C6.03396 10.5986 6.01437 10.7553 6.15151 10.912C6.28865 11.0688 6.46497 11.0688 6.70006 11.0688H17.2401C17.3772 11.0688 17.5144 11.0688 17.6515 11.1079C17.9258 11.1667 17.9846 11.2647 18.0042 11.441C18.0042 11.4998 18.0237 11.5585 18.0237 11.6173C18.0629 12.0287 18.0629 12.2246 17.8278 12.3814C17.7495 12.4401 17.6319 12.4597 17.534 12.4597H6.89597C6.52374 12.4597 6.30824 12.4597 6.15151 12.6165C5.99478 12.7732 6.01437 13.0083 6.03396 13.3609C6.15151 14.7911 6.73925 15.4376 8.14981 15.6531C8.54163 15.7119 8.95304 15.751 9.36446 15.7706C11.9505 15.7314 14.5169 15.751 17.103 15.751C17.2793 15.751 17.4556 15.751 17.6123 15.7902C17.7691 15.8098 17.9062 15.9469 17.9258 16.1037C18.0433 16.7698 17.867 16.9853 17.2401 17.1224C16.9658 17.1812 16.7111 17.2008 16.4369 17.2204C16.3193 17.24 16.1822 17.2596 16.0646 17.2596H8.77672C8.61999 17.24 8.44367 17.2204 8.28695 17.2008C7.77758 17.142 7.2878 17.1224 6.79802 17.0049C5.05441 16.5739 4.29035 15.7314 4.09444 13.9487C4.07485 13.7527 4.03567 13.5568 4.03567 13.3413L3.99649 13.067V10.0108H3.97689Z" fill="white"/>
</g>
</g>
<defs>
<clipPath id="clip0_57_9923">
<rect width="23" height="23" fill="white"/>
</clipPath>
<clipPath id="clip1_57_9923">
<rect width="23" height="23" fill="white" transform="matrix(1 0 0 -1 0 23)"/>
</clipPath>
</defs>
</svg>
