<svg width="23" height="23" viewBox="0 0 23 23" fill="none" xmlns="http://www.w3.org/2000/svg">
<g clip-path="url(#clip0_57_9905)">
<path d="M11.5 23C17.8513 23 23 17.8513 23 11.5C23 5.14873 17.8513 0 11.5 0C5.14873 0 0 5.14873 0 11.5C0 17.8513 5.14873 23 11.5 23Z" fill="#008DE4"/>
<path d="M4.52563 18.4939C4.52563 18.4743 4.56482 18.2392 4.62359 17.965C4.68236 17.6907 4.74114 17.3576 4.76073 17.2205C4.78032 17.0834 4.83909 16.7699 4.89787 16.4956C4.95664 16.2214 5.01541 15.9079 5.01541 15.7708L5.035 15.5357H8.24795C10.9711 15.5357 11.5001 15.5357 11.7744 15.4769C12.3033 15.3985 12.6755 15.3006 13.2241 15.0851C13.2829 15.0655 13.42 14.9871 13.518 14.9283L13.7139 14.8108C13.7139 14.8108 13.7922 14.752 13.8706 14.6933C13.949 14.6345 14.0077 14.5757 14.0273 14.5757C14.0469 14.5757 14.1253 14.4973 14.2232 14.3798L14.4779 14.1251C14.5171 14.0859 14.5563 14.0467 14.5563 14.0272C14.5563 14.0076 14.5955 13.9684 14.6151 13.9292C14.6934 13.8508 15.0265 13.2043 15.0265 13.1456C15.0265 13.126 15.0657 12.9888 15.1244 12.8713C15.1832 12.7341 15.242 12.5578 15.2616 12.4599C15.2812 12.3619 15.3399 12.1072 15.3987 11.8917C15.8689 10.0697 15.7514 8.95305 15.0461 8.26736C14.7522 7.97349 14.3604 7.77758 13.8118 7.62085C13.3221 7.48371 13.1457 7.48371 9.77606 7.46412C7.97368 7.44453 6.48475 7.42494 6.46516 7.42494C6.44557 7.40535 6.48475 7.15066 6.70025 5.9556C6.75902 5.60296 6.83739 5.23073 6.85698 5.09359C6.87657 4.95646 6.91575 4.78014 6.93535 4.68218L6.97453 4.50586L10.7948 4.52545C14.8893 4.54504 14.6543 4.52545 15.5163 4.72136C15.9277 4.79973 16.0844 4.8585 16.4175 4.97605C16.7113 5.074 17.2403 5.34828 17.3382 5.42664C17.3774 5.46583 17.4362 5.50501 17.4754 5.50501C17.5537 5.54419 18.0239 5.9556 18.1807 6.13192C18.4158 6.42579 18.4941 6.52375 18.6117 6.71966C18.7488 6.95475 18.9447 7.48371 19.0231 7.79717C19.1798 8.46327 19.1798 8.46327 19.1798 9.5016C19.1798 10.3636 19.1602 10.5595 19.1014 10.9318C19.0623 11.1668 19.0035 11.4803 18.9839 11.5979C18.8859 12.2248 18.6313 13.1847 18.3962 13.8312C18.2786 14.1447 17.9847 14.7912 17.9456 14.85C17.926 14.8696 17.8672 14.9675 17.8084 15.0851C17.7497 15.183 17.6909 15.3006 17.6713 15.3202C17.6517 15.3398 17.5537 15.4965 17.4362 15.6532C17.1031 16.143 16.3979 16.9071 15.9865 17.1813C15.5554 17.4752 15.3008 17.6319 15.0461 17.7495C14.6347 17.9454 14.2037 18.1413 14.1449 18.1413C14.1253 18.1413 13.9686 18.1805 13.7922 18.2393C13.6355 18.298 13.42 18.3568 13.3221 18.3568C13.2437 18.3764 13.0086 18.396 12.8323 18.4352C12.656 18.4548 12.3033 18.4939 12.0878 18.5135C11.6764 18.5331 4.52563 18.5331 4.52563 18.4939Z" fill="white"/>
<path d="M1.99829 12.9303C1.99829 12.7736 2.4097 11.1867 2.48807 11.0104C2.72316 10.5402 3.09539 10.2267 3.60476 10.0896C3.85945 10.0112 3.91822 10.0112 7.32708 10.0112C9.22742 10.0112 10.7751 10.0112 10.7751 10.0308C10.7751 10.1092 10.4813 11.3042 10.3637 11.7548C10.3049 11.9899 10.0503 12.3818 9.89352 12.5189C9.81516 12.5973 9.63884 12.6952 9.52129 12.754C9.07069 12.9695 9.24701 12.9695 5.46592 12.9695C2.33134 12.9891 1.99829 12.9891 1.99829 12.9303Z" fill="white"/>
<g clip-path="url(#clip1_57_9905)">
<path d="M11.4901 22.9802C17.8359 22.9802 22.9802 17.8359 22.9802 11.4901C22.9802 5.14428 17.8359 0 11.4901 0C5.14428 0 0 5.14428 0 11.4901C0 17.8359 5.14428 22.9802 11.4901 22.9802Z" fill="#2D2925"/>
<path d="M7.62046 10.7755C8.31503 10.4778 8.9699 10.2 9.64462 9.92214C12.2046 8.89022 14.8241 7.97736 17.5428 7.4614C18.2572 7.32249 18.9915 7.2828 19.7059 7.24311C20.0036 7.22326 20.3806 7.24311 20.5195 7.56062C20.6783 7.91783 20.3806 8.17581 20.1425 8.37426C19.309 9.16804 18.2969 9.74354 17.2848 10.2793C17.0864 10.3984 16.9872 10.2793 16.9276 10.0809C16.8482 9.78323 16.7689 9.48556 16.6895 9.18789C16.63 8.98944 16.5307 8.92991 16.3323 8.9696C13.435 9.72369 10.617 10.7755 7.89829 12.0058C7.8586 12.0257 7.81891 12.0654 7.77922 12.0852C8.09674 13.1171 8.69208 13.9308 9.58509 14.546C11.8077 16.0542 14.8241 15.3199 16.1338 12.9782C16.1537 12.9385 16.1735 12.879 16.1934 12.8592C16.3124 12.7996 16.4514 12.7401 16.5704 12.6806C16.6101 12.8195 16.7292 12.9782 16.6895 13.0774C16.4514 13.7919 16.0743 14.4269 15.5385 14.9627C13.7525 16.8479 11.391 17.3242 8.91037 16.3121C8.29518 16.0542 7.68 15.7565 7.08466 15.4588C6.13211 14.9627 5.12003 14.8436 4.04842 14.923C3.57215 14.9627 3.07603 14.9825 2.59976 14.9429C2.38146 14.923 2.10364 14.7841 2.02426 14.6253C1.96473 14.4864 2.08379 14.1689 2.22271 14.03C2.57991 13.6529 2.99665 13.3354 3.39354 13.0179C4.26671 12.3432 4.90174 11.5296 5.29863 10.4778C5.5963 9.72369 5.91382 8.94975 6.31071 8.23534C7.79907 5.61584 11.0933 4.60376 13.8319 5.9532C13.8914 5.97305 13.9708 5.99289 14.0105 6.05243C14.07 6.17149 14.1097 6.29056 14.1494 6.40963C14.0303 6.44932 13.8914 6.54854 13.7922 6.5287C13.4151 6.46917 13.0579 6.33025 12.7007 6.27072C10.1407 5.87382 7.58077 8.07658 7.60062 10.6762C7.58077 10.6961 7.60062 10.7159 7.62046 10.7755Z" fill="white"/>
</g>
</g>
<defs>
<clipPath id="clip0_57_9905">
<rect width="23" height="23" fill="white"/>
</clipPath>
<clipPath id="clip1_57_9905">
<rect width="23" height="23" fill="white"/>
</clipPath>
</defs>
</svg>
