<svg width="23" height="23" viewBox="0 0 23 23" fill="none" xmlns="http://www.w3.org/2000/svg">
<g clip-path="url(#clip0_57_9940)">
<path d="M11.5 23C17.8513 23 23 17.8513 23 11.5C23 5.14873 17.8513 0 11.5 0C5.14873 0 0 5.14873 0 11.5C0 17.8513 5.14873 23 11.5 23Z" fill="#008DE4"/>
<path d="M4.52551 18.4939C4.52551 18.4743 4.56469 18.2392 4.62347 17.965C4.68224 17.6907 4.74102 17.3576 4.76061 17.2205C4.7802 17.0834 4.83897 16.7699 4.89774 16.4956C4.95652 16.2214 5.01529 15.9079 5.01529 15.7708L5.03488 15.5357H8.24783C10.971 15.5357 11.5 15.5357 11.7742 15.4769C12.3032 15.3985 12.6754 15.3006 13.224 15.0851C13.2828 15.0655 13.4199 14.9871 13.5178 14.9283L13.7138 14.8108C13.7138 14.8108 13.7921 14.752 13.8705 14.6933C13.9489 14.6345 14.0076 14.5757 14.0272 14.5757C14.0468 14.5757 14.1252 14.4973 14.2231 14.3798L14.4778 14.1251C14.517 14.0859 14.5562 14.0467 14.5562 14.0272C14.5562 14.0076 14.5954 13.9684 14.615 13.9292C14.6933 13.8508 15.0264 13.2043 15.0264 13.1456C15.0264 13.126 15.0655 12.9888 15.1243 12.8713C15.1831 12.7341 15.2419 12.5578 15.2615 12.4599C15.281 12.3619 15.3398 12.1072 15.3986 11.8917C15.8688 10.0697 15.7512 8.95305 15.046 8.26736C14.7521 7.97349 14.3603 7.77758 13.8117 7.62085C13.3219 7.48371 13.1456 7.48371 9.77594 7.46412C7.97355 7.44453 6.48463 7.42494 6.46504 7.42494C6.44544 7.40535 6.48463 7.15066 6.70013 5.9556C6.7589 5.60296 6.83727 5.23073 6.85686 5.09359C6.87645 4.95646 6.91563 4.78014 6.93522 4.68218L6.9744 4.50586L10.7947 4.52545C14.8892 4.54504 14.6541 4.52545 15.5161 4.72136C15.9276 4.79973 16.0843 4.8585 16.4173 4.97605C16.7112 5.074 17.2402 5.34828 17.3381 5.42664C17.3773 5.46583 17.4361 5.50501 17.4753 5.50501C17.5536 5.54419 18.0238 5.9556 18.1805 6.13192C18.4156 6.42579 18.494 6.52375 18.6115 6.71966C18.7487 6.95475 18.9446 7.48371 19.023 7.79717C19.1797 8.46327 19.1797 8.46327 19.1797 9.5016C19.1797 10.3636 19.1601 10.5595 19.1013 10.9318C19.0621 11.1668 19.0034 11.4803 18.9838 11.5979C18.8858 12.2248 18.6311 13.1847 18.396 13.8312C18.2785 14.1447 17.9846 14.7912 17.9454 14.85C17.9259 14.8696 17.8671 14.9675 17.8083 15.0851C17.7495 15.183 17.6908 15.3006 17.6712 15.3202C17.6516 15.3398 17.5536 15.4965 17.4361 15.6532C17.103 16.143 16.3977 16.9071 15.9863 17.1813C15.5553 17.4752 15.3006 17.6319 15.046 17.7495C14.6345 17.9454 14.2035 18.1413 14.1448 18.1413C14.1252 18.1413 13.9684 18.1805 13.7921 18.2393C13.6354 18.298 13.4199 18.3568 13.3219 18.3568C13.2436 18.3764 13.0085 18.396 12.8322 18.4352C12.6558 18.4548 12.3032 18.4939 12.0877 18.5135C11.6763 18.5331 4.52551 18.5331 4.52551 18.4939Z" fill="white"/>
<path d="M1.99829 12.9303C1.99829 12.7736 2.4097 11.1867 2.48807 11.0104C2.72316 10.5402 3.09539 10.2267 3.60476 10.0896C3.85945 10.0112 3.91822 10.0112 7.32708 10.0112C9.22742 10.0112 10.7751 10.0112 10.7751 10.0308C10.7751 10.1092 10.4813 11.3042 10.3637 11.7548C10.3049 11.9899 10.0503 12.3818 9.89352 12.5189C9.81516 12.5973 9.63884 12.6952 9.52129 12.754C9.07069 12.9695 9.24701 12.9695 5.46592 12.9695C2.33134 12.9891 1.99829 12.9891 1.99829 12.9303Z" fill="white"/>
<g clip-path="url(#clip1_57_9940)">
<path d="M11.5 23C17.8513 23 23 17.8513 23 11.5C23 5.14873 17.8513 0 11.5 0C5.14873 0 0 5.14873 0 11.5C0 17.8513 5.14873 23 11.5 23Z" fill="#0090FF"/>
<path fill-rule="evenodd" clip-rule="evenodd" d="M12.8713 10.246L12.5383 12.068L15.7904 12.5186L15.5553 13.3806L12.362 12.93C12.1269 13.6745 12.0289 14.4777 11.735 15.1634C11.4412 15.9666 11.1669 16.7699 10.8143 17.4948C10.3637 18.4547 9.56042 19.1404 8.48291 19.3167C7.85599 19.4343 7.1703 19.3755 6.66093 18.9837C6.48461 18.8661 6.32788 18.6506 6.32788 18.4743C6.32788 18.2392 6.44543 17.9649 6.62175 17.8474C6.73929 17.7886 7.01357 17.8474 7.18989 17.9062C7.36621 18.0825 7.52294 18.298 7.64049 18.5331C7.97354 18.9837 8.44372 19.0425 8.89432 18.7094C9.40369 18.2588 9.69756 17.6319 9.85429 17.005C10.1873 15.6336 10.54 14.321 10.8143 12.9496V12.7145L7.79722 12.2639L7.91476 11.4019L11.0493 11.8525L11.4412 10.0893L8.18904 9.57994L8.30659 8.65915L11.6763 9.10975C11.7938 8.7767 11.8526 8.48283 11.9701 8.18896C12.264 7.17022 12.5383 6.13189 13.224 5.2307C13.9097 4.30992 14.6933 3.74177 15.9079 3.80055C16.4173 3.80055 16.9267 3.97687 17.2793 4.36869C17.3381 4.42746 17.4556 4.54501 17.4556 4.66256C17.4556 4.89765 17.4556 5.17193 17.2793 5.34825C17.0442 5.52457 16.77 5.4658 16.5349 5.2307C16.3585 5.05438 16.241 4.89765 16.0843 4.72133C15.7512 4.27074 15.2223 4.21196 14.8304 4.60378C14.5366 4.89765 14.2623 5.28947 14.086 5.6813C13.6942 6.87636 13.4003 8.13019 13.0085 9.38402L16.143 9.83462L15.9079 10.6966L12.8713 10.246Z" fill="white"/>
</g>
</g>
<defs>
<clipPath id="clip0_57_9940">
<rect width="23" height="23" fill="white"/>
</clipPath>
<clipPath id="clip1_57_9940">
<rect width="23" height="23" fill="white"/>
</clipPath>
</defs>
</svg>
