<svg width="23" height="23" viewBox="0 0 23 23" fill="none" xmlns="http://www.w3.org/2000/svg">
<g clip-path="url(#clip0_57_9956)">
<path d="M11.5 23C17.8513 23 23 17.8513 23 11.5C23 5.14873 17.8513 0 11.5 0C5.14873 0 0 5.14873 0 11.5C0 17.8513 5.14873 23 11.5 23Z" fill="#008DE4"/>
<path d="M4.52551 18.4939C4.52551 18.4743 4.56469 18.2392 4.62347 17.965C4.68224 17.6907 4.74102 17.3576 4.76061 17.2205C4.7802 17.0834 4.83897 16.7699 4.89774 16.4956C4.95652 16.2214 5.01529 15.9079 5.01529 15.7708L5.03488 15.5357H8.24783C10.971 15.5357 11.5 15.5357 11.7742 15.4769C12.3032 15.3985 12.6754 15.3006 13.224 15.0851C13.2828 15.0655 13.4199 14.9871 13.5178 14.9283L13.7138 14.8108C13.7138 14.8108 13.7921 14.752 13.8705 14.6933C13.9489 14.6345 14.0076 14.5757 14.0272 14.5757C14.0468 14.5757 14.1252 14.4973 14.2231 14.3798L14.4778 14.1251C14.517 14.0859 14.5562 14.0467 14.5562 14.0272C14.5562 14.0076 14.5954 13.9684 14.615 13.9292C14.6933 13.8508 15.0264 13.2043 15.0264 13.1456C15.0264 13.126 15.0655 12.9888 15.1243 12.8713C15.1831 12.7341 15.2419 12.5578 15.2615 12.4599C15.281 12.3619 15.3398 12.1072 15.3986 11.8917C15.8688 10.0697 15.7512 8.95305 15.046 8.26736C14.7521 7.97349 14.3603 7.77758 13.8117 7.62085C13.3219 7.48371 13.1456 7.48371 9.77594 7.46412C7.97355 7.44453 6.48463 7.42494 6.46504 7.42494C6.44544 7.40535 6.48463 7.15066 6.70013 5.9556C6.7589 5.60296 6.83727 5.23073 6.85686 5.09359C6.87645 4.95646 6.91563 4.78014 6.93522 4.68218L6.9744 4.50586L10.7947 4.52545C14.8892 4.54504 14.6541 4.52545 15.5161 4.72136C15.9276 4.79973 16.0843 4.8585 16.4173 4.97605C16.7112 5.074 17.2402 5.34828 17.3381 5.42664C17.3773 5.46583 17.4361 5.50501 17.4753 5.50501C17.5536 5.54419 18.0238 5.9556 18.1805 6.13192C18.4156 6.42579 18.494 6.52375 18.6115 6.71966C18.7487 6.95475 18.9446 7.48371 19.023 7.79717C19.1797 8.46327 19.1797 8.46327 19.1797 9.5016C19.1797 10.3636 19.1601 10.5595 19.1013 10.9318C19.0621 11.1668 19.0034 11.4803 18.9838 11.5979C18.8858 12.2248 18.6311 13.1847 18.396 13.8312C18.2785 14.1447 17.9846 14.7912 17.9454 14.85C17.9259 14.8696 17.8671 14.9675 17.8083 15.0851C17.7495 15.183 17.6908 15.3006 17.6712 15.3202C17.6516 15.3398 17.5536 15.4965 17.4361 15.6532C17.103 16.143 16.3977 16.9071 15.9863 17.1813C15.5553 17.4752 15.3006 17.6319 15.046 17.7495C14.6345 17.9454 14.2035 18.1413 14.1448 18.1413C14.1252 18.1413 13.9684 18.1805 13.7921 18.2393C13.6354 18.298 13.4199 18.3568 13.3219 18.3568C13.2436 18.3764 13.0085 18.396 12.8322 18.4352C12.6558 18.4548 12.3032 18.4939 12.0877 18.5135C11.6763 18.5331 4.52551 18.5331 4.52551 18.4939Z" fill="white"/>
<path d="M1.99829 12.9303C1.99829 12.7736 2.4097 11.1867 2.48807 11.0104C2.72316 10.5402 3.09539 10.2267 3.60476 10.0896C3.85945 10.0112 3.91822 10.0112 7.32708 10.0112C9.22742 10.0112 10.7751 10.0112 10.7751 10.0308C10.7751 10.1092 10.4813 11.3042 10.3637 11.7548C10.3049 11.9899 10.0503 12.3818 9.89352 12.5189C9.81516 12.5973 9.63884 12.6952 9.52129 12.754C9.07069 12.9695 9.24701 12.9695 5.46592 12.9695C2.33134 12.9891 1.99829 12.9891 1.99829 12.9303Z" fill="white"/>
<g clip-path="url(#clip1_57_9956)">
<path d="M10.4117 0.0587973C12.8431 -0.176497 15.3529 0.392131 17.451 1.66664C19.4313 2.86272 21.0196 4.64703 21.9608 6.74507C22.9608 8.94115 23.2353 11.451 22.7647 13.8039C22.2941 16.1764 21.0392 18.3725 19.2549 20C17.4706 21.647 15.1568 22.7059 12.7255 22.9608C11.1764 23.098 9.5686 22.9804 8.07841 22.5098C5.52939 21.7255 3.25488 20 1.8235 17.7647C0.607818 15.8627 -0.0392412 13.6274 -2.55583e-05 11.3921C-2.55583e-05 8.84311 0.921543 6.3137 2.50978 4.3137C4.43135 1.92154 7.33331 0.333307 10.4117 0.0587973Z" fill="#988430"/>
<path d="M11.2745 0.353105C13.3137 0.313889 15.3725 0.843301 17.1372 1.88252C19.0392 3.00016 20.6078 4.68644 21.549 6.68644C22.5686 8.76487 22.8627 11.1766 22.4705 13.4511C21.9411 16.51 20.0784 19.2747 17.4509 20.9217C15.6274 22.0786 13.4705 22.6864 11.3137 22.6472C9.21564 22.6276 7.1176 21.9806 5.3725 20.8237C3.56858 19.6472 2.1176 17.9413 1.27446 15.9609C0.294072 13.7257 0.0979938 11.1766 0.686229 8.82369C1.27446 6.43154 2.68623 4.27467 4.62741 2.76487C6.49015 1.23546 8.88231 0.411929 11.2745 0.353105Z" fill="#7A6A2A"/>
<path d="M7.03918 1.54901C8.96075 0.666652 11.1372 0.392142 13.2156 0.725476C15.3921 1.05881 17.4509 2.07842 19.0196 3.60783C20.9607 5.45097 22.1764 8.01959 22.3725 10.6863C22.6078 13.7255 21.4902 16.8431 19.3725 19.0392C19.3333 18.4117 19.3333 17.7647 19.3137 17.1372C19.3137 16.6667 19.196 16.1961 19.1568 15.7451C19.1568 15.5882 19.1764 15.4117 19.196 15.2549C19.2156 14.8235 18.9804 14.4117 19.0392 13.9608C19.098 13.3333 18.7647 12.7647 18.6078 12.1765C18.4509 11.7647 18.4509 11.3137 18.2941 10.9019C18.1764 9.31371 17.5686 7.70587 16.3529 6.62744C16.3921 6.56861 16.4706 6.45097 16.5098 6.41175C16.549 6.50979 16.6078 6.60783 16.6666 6.70587C16.9411 6.39214 17 5.96077 17.0784 5.549C17.2353 4.84312 17.1176 4.09802 17 3.39214C16.9019 3.0392 16.8235 2.60783 16.5294 2.35293C16.2156 2.15685 15.647 2.15685 15.4509 2.5294C15.4509 2.549 15.4313 2.58822 15.4313 2.60783C15.2941 2.84312 15.098 3.05881 14.8431 3.21567C14.4117 3.49018 14.1764 3.98038 13.7058 4.21567C13.4117 4.31371 13.1176 4.15685 12.8235 4.17646C12.2745 4.23528 11.7058 4.25489 11.1568 4.41175C10.647 4.33332 10.1372 4.25489 9.62741 4.15685V4.01959C9.39212 3.80391 9.17644 3.5294 9.098 3.21567C8.94114 2.62744 8.56859 2.05881 8.01957 1.76469C7.94114 1.72548 7.86271 1.70587 7.78428 1.66665C7.74506 1.72548 7.68624 1.76469 7.64702 1.82351L7.56859 1.98038C7.45094 2.25489 7.47055 2.56861 7.47055 2.86273C7.47055 3.62744 7.39212 4.39214 7.05879 5.07842H5.50977C5.41173 5.31371 5.45094 5.56861 5.43134 5.80391C4.60781 6.56861 4.27447 7.70587 4.11761 8.7843V9.0392V9.17646C3.74506 9.64704 3.68624 10.2745 3.5882 10.8627C3.72545 10.8627 3.86271 10.8431 3.98036 10.8431C3.86271 10.8627 3.72545 10.8627 3.60781 10.8823C3.5882 11.0196 3.56859 11.1372 3.54898 11.2745C3.66663 11.2353 3.78428 11.1765 3.90193 11.1372H3.96075C3.82349 11.1961 3.68624 11.2549 3.54898 11.3333C3.54898 11.4117 3.54898 11.5882 3.56859 11.6667C3.72545 11.5882 3.90193 11.5098 4.05879 11.4117L4.11761 11.5294C3.98036 11.6274 3.80389 11.6667 3.68624 11.8039C3.68624 12.098 3.72546 12.4118 3.76467 12.7059C3.86271 13.3921 4.11761 14.0392 4.45095 14.647C4.43134 15.0784 4.35291 15.5098 4.098 15.8823C4.17644 16.0196 4.29408 16.1372 4.29408 16.2941C4.25487 16.5686 4.03918 16.7843 4.0784 17.0784C4.13722 17.7647 3.88232 18.4314 3.5882 19.0392C2.01957 17.4117 0.999965 15.2941 0.686239 13.0588C0.392122 10.9608 0.705847 8.80391 1.60781 6.88234C2.70585 4.5294 4.66663 2.60783 7.03918 1.54901Z" fill="#BA9F33"/>
<path d="M7.70582 1.86292C7.74503 1.80409 7.80385 1.74527 7.84307 1.70605C7.9215 1.72566 7.99993 1.76488 8.07836 1.80409C8.21562 2.21586 8.4117 2.62762 8.37248 3.0786C8.35287 3.37272 8.29405 3.68645 8.45091 3.98056C8.50974 4.13743 8.6666 4.21586 8.80385 4.3139L8.56856 4.49037C8.21562 4.62762 7.94111 4.88252 7.68621 5.13743H7.39209C7.94111 4.47076 8.1764 3.60802 8.1764 2.74527C8.1764 2.39233 7.90189 2.13743 7.70582 1.86292Z" fill="#C79C3B"/>
<path d="M8.07837 1.80371C8.62739 2.09783 8.99994 2.66646 9.1568 3.25469C9.23523 3.56842 9.45092 3.82332 9.68621 4.05861V4.19587C9.39209 4.09783 9.03915 4.03901 8.80386 4.29391C8.6666 4.19587 8.50974 4.11744 8.45092 3.96057C8.29405 3.68606 8.37249 3.37234 8.37249 3.05861C8.43131 2.62724 8.21562 2.21548 8.07837 1.80371Z" fill="#B58634"/>
<path d="M7.70589 1.86279C7.90197 2.11769 8.17648 2.3922 8.15687 2.74515C8.15687 3.58828 7.92158 4.47064 7.37256 5.1373H7.2157C7.45099 4.76475 7.68629 4.3726 7.7255 3.92162C7.76472 3.29417 7.56864 2.66671 7.64707 2.03926C7.66668 2.00005 7.68629 1.92162 7.70589 1.86279Z" fill="#DFC068"/>
<path d="M7.5294 2.90188C7.5294 2.60777 7.50979 2.29404 7.62743 2.01953C7.56861 2.64698 7.76469 3.27443 7.70587 3.90188C7.68626 4.35286 7.45096 4.74502 7.19606 5.11757H7.09802C7.45096 4.4313 7.5294 3.66659 7.5294 2.90188Z" fill="#A78F33"/>
<path d="M15.4901 2.56841C15.6862 2.19586 16.2352 2.19586 16.5685 2.39194C16.8627 2.64684 16.9411 3.05861 17.0391 3.43115C17.1568 4.13704 17.2744 4.86253 17.1176 5.58802C17.0391 5.98017 16.9999 6.43115 16.7058 6.74488C16.647 6.64684 16.5882 6.5488 16.5489 6.45076C16.4901 6.2939 16.4509 6.13704 16.3921 5.98017C16.5882 5.5488 16.6862 5.07821 16.7254 4.60762C16.7646 4.19586 16.4901 3.84292 16.2156 3.56841C16.0783 3.13704 15.7842 2.84292 15.4901 2.56841Z" fill="#A17C34"/>
<path d="M15.451 2.64679C15.451 2.62718 15.4706 2.58797 15.4706 2.56836C15.7647 2.84287 16.0588 3.13699 16.2157 3.52914C16.2157 3.64679 16.1765 3.76444 16.0588 3.80365C15.7255 3.98012 15.3333 4.09777 15.0784 4.4115C14.902 4.62718 14.5686 4.74483 14.549 5.05856C14.5882 5.07816 14.6667 5.13699 14.6863 5.15659C14.6471 5.19581 14.5882 5.29385 14.549 5.33307C14.5882 5.37228 14.6275 5.4311 14.6863 5.47032C14.8627 5.27424 15.1373 5.25463 15.3725 5.1762C15.3333 5.27424 15.2941 5.35267 15.2549 5.45071L15.549 5.39189C15.4314 5.52914 15.2941 5.6664 15.1373 5.78405C15.1176 5.78405 15.0784 5.76444 15.0784 5.74483C14.902 5.64679 14.7255 5.52914 14.5098 5.52914C14.4902 5.48993 14.4706 5.4311 14.4706 5.4115C14.3529 5.4115 14.2353 5.39189 14.1373 5.35267C14.1765 5.27424 14.2353 5.13699 14.2549 5.05856C14.1961 5.09777 14.0588 5.15659 14 5.1762C14.1765 4.90169 14.3333 4.62718 14.4902 4.33307C14.5098 4.31346 14.5294 4.27424 14.5294 4.25463C14.7647 3.84287 15.098 3.48993 15.3137 3.05856C15.4706 2.94091 15.4706 2.78405 15.451 2.64679Z" fill="#B89844"/>
<path d="M15.4509 2.64697C15.4705 2.78423 15.4705 2.92148 15.3921 3.05874C15.1568 3.4705 14.8235 3.82344 14.6078 4.25482C14.6078 3.90187 14.647 3.54893 14.8823 3.25482C15.1176 3.09795 15.3137 2.90187 15.4509 2.64697Z" fill="#CBA94C"/>
<path d="M13.745 4.25488C14.2156 4.01959 14.4509 3.50978 14.8823 3.25488C14.647 3.52939 14.6078 3.90194 14.6078 4.25488C14.5882 4.27449 14.5686 4.31371 14.5686 4.33331C14.5686 4.19606 14.5686 4.0588 14.549 3.92155C14.3333 4.37253 14.098 4.82351 13.7646 5.19606C13.5686 5.13724 13.3725 5.11763 13.1764 5.11763C13.2941 4.90194 13.4313 4.70586 13.5686 4.52939C12.8039 4.35292 11.9999 4.52939 11.2352 4.45096C11.7842 4.2941 12.3333 4.27449 12.9019 4.21567C13.1568 4.19606 13.4509 4.35292 13.745 4.25488Z" fill="#AC8132"/>
<path d="M16.2157 3.5293C16.4902 3.80381 16.7647 4.15675 16.7255 4.56851C16.6666 5.0391 16.5686 5.50969 16.3921 5.94106C16.2549 6.05871 16.098 6.17636 15.9608 6.27439C15.8823 6.21557 15.8235 6.17636 15.7451 6.11753L15.7059 6.09792C15.9215 5.60773 16.2941 5.15675 16.3137 4.60773C15.8823 4.62734 15.451 4.68616 15.0392 4.82341C14.8627 4.86263 14.7843 5.01949 14.7059 5.15675C14.6666 5.13714 14.5882 5.07832 14.5686 5.05871C14.5882 4.76459 14.9215 4.62734 15.098 4.41165C15.3529 4.09792 15.7255 3.98028 16.0784 3.80381C16.1961 3.76459 16.2157 3.64694 16.2157 3.5293Z" fill="#927238"/>
<path d="M14.5294 3.92139C14.549 4.05864 14.5686 4.1959 14.549 4.33315C14.3922 4.60766 14.2157 4.90178 14.0588 5.17629C14.1177 5.13707 14.2549 5.07825 14.3137 5.05864C14.2745 5.13707 14.2157 5.27433 14.1961 5.35276C14.0392 5.29394 13.902 5.25472 13.7451 5.2155C14.0785 4.82335 14.3137 4.37237 14.5294 3.92139Z" fill="#8C6228"/>
<path d="M8.8039 4.29409C9.03919 4.03919 9.39213 4.09801 9.68625 4.19605C10.1961 4.29409 10.7059 4.37252 11.2157 4.45095C12 4.52939 12.7843 4.35292 13.549 4.52939C13.3921 4.70586 13.2549 4.90194 13.1568 5.11762H9.37252C9.3137 4.94115 9.3137 4.70586 9.15684 4.58821C8.98037 4.47056 8.76468 4.47056 8.5686 4.45095C8.64703 4.41174 8.72547 4.35292 8.8039 4.29409Z" fill="#D2A83E"/>
<path d="M7.68628 5.13729C7.94118 4.88239 8.21569 4.62749 8.56863 4.49023C8.76471 4.50984 8.9804 4.50984 9.15687 4.62749C9.31373 4.74514 9.33334 4.96082 9.37255 5.1569C8.80393 5.13729 8.2353 5.13729 7.68628 5.13729Z" fill="#DCBA5A"/>
<path d="M15.0588 4.8236C15.4705 4.68634 15.9019 4.62752 16.3333 4.60791C16.3137 5.15693 15.9411 5.60791 15.7254 6.09811C15.549 5.98046 15.3921 5.88242 15.196 5.78438C15.3333 5.66673 15.4901 5.52948 15.6078 5.39222L15.3137 5.45105C15.3529 5.35301 15.3921 5.27458 15.4313 5.17654C15.196 5.25497 14.9215 5.27458 14.745 5.47066L14.6078 5.3334C14.647 5.29418 14.7058 5.19615 14.745 5.15693C14.8039 5.01967 14.8823 4.86281 15.0588 4.8236Z" fill="#543E26"/>
<path d="M5.58816 5.13721H7.13718H7.23522H7.39208H7.6862H9.37247H13.1568C13.3529 5.13721 13.5489 5.15681 13.745 5.21564C13.9019 5.25485 14.0391 5.31368 14.196 5.35289C14.294 5.39211 14.4117 5.41172 14.5293 5.41172C14.5489 5.45093 14.5685 5.50976 14.5685 5.52936C14.7842 5.52936 14.9411 5.64701 15.1372 5.74505C15.0195 6.03917 14.7842 6.27446 14.5685 6.49015C14.7646 6.58819 14.9607 6.70583 15.1372 6.84309C15.3529 6.6078 15.5685 6.3725 15.7646 6.1176C15.8431 6.17642 15.9019 6.21564 15.9803 6.27446C16.1372 6.39211 16.2744 6.50976 16.4117 6.6274C17.6274 7.70583 18.2352 9.31368 18.3529 10.9019C18.3725 11.1176 18.3725 11.3137 18.3725 11.5294C18.3725 12.3529 18.294 13.196 18.0784 14C17.9215 14.549 17.7058 15.098 17.4313 15.5882C17.2352 15.9019 16.9999 16.2156 16.745 16.4901C16.5685 16.6666 16.3921 16.8431 16.196 16.9999C16.098 16.9607 16.0195 16.9019 15.9215 16.8627C15.7646 16.9411 15.6274 17.0784 15.4509 17.0784C15.196 17.098 14.9803 17.196 14.7254 17.2549C14.9607 16.9019 15.4509 16.647 15.3725 16.1568C15.2352 16.1568 15.098 16.1764 14.9803 16.1764C15.0195 16 15.0587 15.8431 15.1176 15.6666C15.0784 15.647 14.9803 15.5882 14.9411 15.549C15.098 15.3921 15.2352 15.2156 15.3725 15.0392C15.0784 15.098 14.8038 15.2549 14.5293 15.3725C15.0784 14.5882 15.5489 13.745 15.9411 12.8823C16.1764 12.3333 16.4705 11.8039 16.4901 11.196C16.5097 10.8039 16.2548 10.4705 16.2548 10.098C16.2156 9.66662 16.2156 9.15681 15.8627 8.84309C15.2352 8.98034 14.6078 8.84309 13.9803 8.78427C13.8038 8.76466 13.647 8.78427 13.4705 8.82348C13.4509 8.78427 13.4117 8.76466 13.3725 8.72544C13.1764 8.52936 12.9803 8.33328 12.7058 8.23525C12.4509 8.19603 12.2156 8.23525 11.9607 8.23525H11.9215C11.647 8.1176 11.3725 7.96074 11.0587 8.01956C10.8038 8.03917 10.647 8.27446 10.4509 8.41172C10.2352 8.54897 10.0391 8.68623 9.86267 8.8823C10.0784 9.23525 10.4509 9.43132 10.8431 9.54897L10.7842 10.2549C10.5489 10.3333 10.3136 10.4509 10.1176 10.6078C9.99992 10.3725 9.96071 10.1176 9.84306 9.8627C9.72541 9.70583 9.56855 9.60779 9.43129 9.47054C9.39208 9.56858 9.37247 9.66662 9.33326 9.78427C9.25482 9.82348 9.196 9.8627 9.11757 9.90191C9.09796 9.72544 9.09796 9.54897 9.07835 9.3725C8.99992 9.05877 8.78424 8.80387 8.66659 8.50976C8.6862 8.19603 8.78424 7.90191 8.78424 7.60779C8.62737 7.66662 8.47051 7.72544 8.33326 7.78427C8.13718 7.8627 8.01953 8.07838 7.86267 8.19603C7.6862 8.27446 7.50973 8.29407 7.33326 8.35289L7.35286 8.29407C7.50973 8.15681 7.54894 7.94113 7.60777 7.74505C7.50973 7.78427 7.41169 7.84309 7.31365 7.8823C7.196 7.70583 7.37247 7.58819 7.49012 7.47054C7.33326 7.31368 7.11757 7.19603 6.88228 7.27446C6.50973 7.41172 6.33326 7.82348 6.29404 8.19603C6.13718 8.19603 5.98032 8.21564 5.82345 8.19603C5.88228 8.07838 5.9411 7.98034 5.99992 7.8627C5.92149 7.68623 5.74502 7.6274 5.58816 7.56858V6.31368V5.94113C5.52933 5.6274 5.49012 5.3725 5.58816 5.13721Z" fill="#F3EBDB"/>
<path d="M15.1176 5.74512C15.1372 5.74512 15.1764 5.76473 15.1764 5.78433C15.3529 5.88237 15.5293 5.98041 15.7058 6.09806L15.745 6.11767C15.549 6.37257 15.3333 6.60786 15.1176 6.84316C14.9411 6.7059 14.745 6.58825 14.549 6.49022C14.7646 6.25492 14.9999 6.03923 15.1176 5.74512Z" fill="#DCDAD7"/>
<path d="M4.2157 8.84318C4.37256 7.76475 4.70589 6.6275 5.52942 5.86279V6.23534C4.9804 6.80397 4.66668 7.56868 4.50982 8.33338C4.45099 8.58828 4.33335 8.84318 4.23531 9.07848C4.2157 9.00005 4.2157 8.92162 4.2157 8.84318Z" fill="#A78E32"/>
<path d="M15.9608 6.27425C16.0981 6.1566 16.2549 6.05857 16.3922 5.94092C16.451 6.09778 16.4902 6.25464 16.5491 6.41151C16.5098 6.47033 16.4314 6.58798 16.3922 6.62719C16.2353 6.50955 16.0981 6.3919 15.9608 6.27425Z" fill="#B59544"/>
<path d="M4.50974 8.35292C4.6666 7.58822 4.98033 6.82351 5.52935 6.25488V7.50978C5.27445 7.72547 5.1568 8.09802 4.82346 8.23528C4.78425 8.47057 4.68621 8.68626 4.54896 8.88233C4.45092 8.99998 4.35288 9.13724 4.23523 9.25488V9.11763C4.33327 8.84312 4.45092 8.60782 4.50974 8.35292Z" fill="#EBCC73"/>
<path d="M6.78423 7.19586C7.01953 7.11743 7.23522 7.23508 7.39208 7.39194C7.27443 7.50959 7.09796 7.62724 7.21561 7.80371C7.31365 7.74488 7.41169 7.70567 7.50972 7.66645C7.47051 7.86253 7.43129 8.07822 7.25482 8.21547C7.03914 8.17626 6.84306 8.17625 6.62737 8.19586C6.64698 8.07822 6.64698 7.94096 6.6862 7.82331C6.78423 7.72527 6.92149 7.68606 7.03914 7.60763C6.96071 7.5292 6.90188 7.43116 6.82345 7.39194C6.58816 7.45077 6.37247 7.62724 6.33325 7.86253C6.33325 7.98018 6.35286 8.07822 6.37247 8.19586H6.21561H6.17639L6.196 8.11743C6.23522 7.74488 6.41169 7.33312 6.78423 7.19586Z" fill="#D7D7D5"/>
<path d="M16.1569 7.35274C16.353 7.29392 16.5491 7.21549 16.7255 7.17627C16.8628 7.47039 16.8236 7.78411 16.6667 8.05862H16.8824C16.902 8.31352 16.8824 8.64686 16.6079 8.72529C16.451 8.37235 16.0589 8.17627 15.9608 7.78411C15.9804 7.62725 16.0785 7.49 16.1569 7.35274Z" fill="#E6DED7"/>
<path d="M6.35291 7.86268C6.39212 7.62738 6.60781 7.45091 6.8431 7.39209C6.94114 7.43131 6.99996 7.52934 7.05879 7.60778C6.94114 7.6666 6.80389 7.70582 6.70585 7.82346C6.66663 7.94111 6.66663 8.07836 6.64702 8.19601C6.5882 8.19601 6.45094 8.21562 6.37251 8.21562C6.37251 8.07836 6.35291 7.98032 6.35291 7.86268Z" fill="#F5F2E6"/>
<path d="M8.27452 7.68624C8.43138 7.62741 8.58824 7.56859 8.7255 7.50977C8.7255 7.82349 8.62746 8.11761 8.60785 8.41173C8.7255 8.70584 8.96079 8.96075 9.01962 9.27447C9.05883 9.45094 9.05883 9.62741 9.05883 9.80388C9.13726 9.76467 9.19609 9.72545 9.27452 9.68624C9.31373 9.5882 9.33334 9.49016 9.37256 9.37251C9.50981 9.49016 9.66668 9.6078 9.78432 9.76467C9.88236 9.99996 9.94119 10.2549 10.0588 10.5098C10.2745 10.3725 10.4902 10.2353 10.7255 10.1568L10.7843 9.45094V9.3529C10.6471 9.23526 10.4314 9.15682 10.4118 8.96075C10.3922 8.70584 10.5686 8.47055 10.7451 8.29408C10.8039 8.31369 10.8431 8.31369 10.902 8.3333C11 8.3333 11.0588 8.27447 11.0588 8.15682H11.4706C11.3333 8.3529 11.1569 8.52937 10.9216 8.56859V8.94114C10.9216 9.07839 10.902 9.19604 10.902 9.33329V9.41173V10.3137V14.8627C10.902 14.8823 10.9216 14.9411 10.9412 14.9804C11.6275 14.9411 12.3922 15.1568 12.9804 14.7058C13.8039 14.1176 14.1569 13.0784 14.2353 12.098C14.3333 10.9411 14.1177 9.70584 13.4118 8.76467C13.5686 8.74506 13.7451 8.70584 13.9216 8.72545C14.549 8.80388 15.1765 8.92153 15.8039 8.78428C16.1765 9.098 16.1765 9.60781 16.1961 10.0392C16.2157 10.4117 16.451 10.7451 16.4314 11.1372C16.4314 11.7451 16.1177 12.2745 15.8824 12.8235C15.4902 13.6862 15 14.5294 14.4706 15.3137C14.7451 15.196 15.0196 15.0588 15.3137 14.9804C15.1765 15.1568 15.0196 15.3137 14.8824 15.4902C14.9216 15.5098 15.0196 15.5686 15.0588 15.6078C15.0196 15.7843 14.9804 15.9607 14.9216 16.1176C15.0588 16.1176 15.1765 16.098 15.3137 16.098C15.3922 16.5882 14.902 16.8431 14.6667 17.196C14.902 17.1568 15.1373 17.0392 15.3922 17.0196C15.5686 17.0196 15.7255 16.8823 15.8628 16.8039C15.9608 16.8431 16.0392 16.9019 16.1373 16.9411C15.1961 17.6666 13.9804 18.0588 12.8039 18.0196H9.68628H8.33334H7.33334H7.03923C6.60785 18.0196 6.15687 18.0392 5.7255 18.0196C5.56864 18.0392 5.50981 17.8627 5.50981 17.7255C5.49021 17.3725 5.50981 17.0196 5.50981 16.6666V15.4706C5.50981 15.2941 5.52942 15.1176 5.56864 14.9607C6.11766 14.9019 6.68628 14.9804 7.2353 14.9411V14.3725V13.9411C7.27452 14.0588 7.31373 14.196 7.35295 14.3137C7.60785 14.2745 7.90197 14.196 8.09805 14.4313C8.56864 14.0196 9.2353 14.0392 9.80393 13.8039C9.92158 13.4902 10.1961 13.2353 10.1765 12.8823C10.1569 12.8823 10.1177 12.8627 10.0784 12.8627C9.49021 12.6862 8.96079 13.0588 8.39217 13.098C8.01962 13.0588 7.64707 12.8823 7.41177 12.5882C7.43138 12.5098 7.45099 12.4117 7.4706 12.3333C7.41177 12.2941 7.35295 12.2353 7.29413 12.196V11.6862C7.35295 11.4902 7.4706 11.3333 7.66668 11.2353C7.7255 10.9411 7.76472 10.647 7.82354 10.3333C7.66668 10.1372 7.45099 9.99996 7.2353 9.92153V9.90192V9.29408V8.25486V8.17643C7.41177 8.13722 7.60785 8.098 7.76471 8.01957C7.96079 7.98035 8.05883 7.76467 8.27452 7.68624Z" fill="#F8F3E4"/>
<path d="M4.80388 8.21572C5.13722 8.07847 5.25486 7.72553 5.50977 7.49023C5.50977 7.68631 5.50977 7.88239 5.52937 8.07847C5.5882 8.07847 5.68624 8.09808 5.74506 8.09808H6.21565L6.19604 8.17651H5.56859L5.50977 8.52945C5.098 8.68631 4.8431 9.07847 4.50977 9.33337C4.50977 9.17651 4.50977 9.00004 4.52937 8.84318C4.66663 8.6667 4.76467 8.45102 4.80388 8.21572Z" fill="#F4EFC8"/>
<path d="M5.50977 7.49023C5.66663 7.54906 5.8431 7.60788 5.92153 7.78435C5.86271 7.902 5.80388 8.00004 5.74506 8.11769C5.68624 8.11769 5.5882 8.09808 5.52937 8.09808C5.50977 7.902 5.50977 7.70592 5.50977 7.49023Z" fill="#FCFCF4"/>
<path d="M10.3922 8.33315C10.5883 8.1959 10.7451 7.98021 11 7.94099C11.3138 7.88217 11.5883 8.03903 11.8628 8.15668H11.4706C11.3334 8.15668 11.1961 8.13707 11.0589 8.15668C10.9412 8.15668 10.902 8.2155 10.902 8.33315C10.8432 8.33315 10.804 8.31354 10.7451 8.29394C10.5491 8.47041 10.3922 8.68609 10.4118 8.9606C10.4314 9.17629 10.6471 9.23511 10.7843 9.35276V9.4508C10.3922 9.35276 10.0196 9.15668 9.80396 8.78413C9.98043 8.60766 10.1765 8.47041 10.3922 8.33315Z" fill="#D7D7D5"/>
<path d="M5.54894 8.17627H6.17639H6.2156C6.29403 8.35274 6.41168 8.48999 6.58815 8.58803C6.64697 8.62725 6.68619 8.66647 6.74501 8.70568C6.58815 8.96058 6.33325 9.15666 6.2156 9.45078C6.09796 9.49 5.98031 9.54882 5.86266 9.58803C5.84305 9.56843 5.78423 9.54882 5.76462 9.52921C5.78423 9.48999 5.84305 9.41156 5.86266 9.37235C5.76462 9.35274 5.68619 9.33313 5.58815 9.31352C5.54894 9.05862 5.50972 8.80372 5.49011 8.54882C5.50972 8.41156 5.52933 8.29392 5.54894 8.17627Z" fill="#E5C66B"/>
<path d="M6.23523 8.19606H6.39209C6.37248 8.50979 6.74503 8.47057 6.94111 8.45096C6.84307 8.35292 6.74503 8.27449 6.64699 8.17645C6.86268 8.15685 7.05876 8.15685 7.27444 8.19606L7.25484 8.25488V8.33332C7.01954 8.37253 6.86268 8.62743 6.60778 8.60783C6.43131 8.50979 6.33327 8.35292 6.23523 8.19606Z" fill="#242110"/>
<path d="M6.39214 8.19588C6.45096 8.19588 6.58822 8.17627 6.66665 8.17627C6.76469 8.2547 6.86273 8.35274 6.96077 8.45078C6.72547 8.47039 6.37253 8.5096 6.39214 8.19588Z" fill="#938357"/>
<path d="M10.9216 8.33321C10.902 8.21556 10.9608 8.15674 11.0784 8.15674C11.0588 8.25478 11.0196 8.33321 10.9216 8.33321Z" fill="#CDBD83"/>
<path d="M11.4706 8.15674H11.8627H11.9019C12.0784 8.27439 12.2549 8.39203 12.3921 8.5489C12.2353 8.90184 11.9411 9.19595 11.5686 9.35282C11.3529 9.41164 11.1176 9.39203 10.8823 9.41164V9.33321C11.0588 9.33321 11.2157 9.33321 11.3921 9.3136C11.196 9.23517 11.0196 9.11752 10.9019 8.94105C10.9019 8.8234 10.8823 8.68615 10.9019 8.5685C11.1568 8.52929 11.3333 8.35282 11.4706 8.15674Z" fill="#252211"/>
<path d="M11.902 8.17661C12.1569 8.17661 12.3922 8.13739 12.6471 8.17661C12.9216 8.27465 13.1177 8.47073 13.3137 8.66681C13.0588 8.92171 12.902 9.25504 12.6863 9.52955C12.4706 9.82367 12.0981 9.88249 11.7843 10.0394C11.5098 10.1962 11.2157 10.2943 10.902 10.3139V9.4119C11.1373 9.3923 11.353 9.43151 11.5883 9.35308C11.9608 9.19622 12.2549 8.9021 12.4118 8.54916C12.2549 8.4119 12.0784 8.29426 11.902 8.17661Z" fill="#D2B257"/>
<path d="M6.60778 8.60801C6.86268 8.62761 7.01954 8.39232 7.25484 8.3335V9.37271C7.05876 9.41193 6.86268 9.50997 6.6666 9.45114C6.52935 9.39232 6.37248 9.41193 6.23523 9.47075C6.35288 9.19624 6.58817 8.98055 6.76464 8.72565C6.70582 8.68644 6.6666 8.64722 6.60778 8.60801Z" fill="#E6BD62"/>
<path d="M11.4902 8.35303C11.7451 8.37264 11.3726 8.58832 11.4902 8.35303V8.35303Z" fill="#696148"/>
<path d="M4.50976 9.35275C4.8431 9.09785 5.098 8.70569 5.50976 8.54883C5.52937 8.80373 5.54898 9.05863 5.6078 9.31353C5.70584 9.33314 5.78427 9.35275 5.88231 9.37236C5.8627 9.41157 5.80388 9.49 5.78427 9.52922C5.50976 9.7253 5.17643 9.88216 5.03918 10.2155C4.88231 10.6273 4.90192 11.0586 4.8431 11.49C4.74506 11.392 4.6078 11.3135 4.6078 11.1567C4.58819 10.8429 4.66663 10.5292 4.68623 10.2155C4.54898 10.4312 4.45094 10.6665 4.3529 10.9214C4.31368 11.0782 4.13721 11.0978 4.01957 11.1763C3.90192 11.2155 3.78427 11.2743 3.66663 11.3135C3.68623 11.1763 3.70584 11.0586 3.72545 10.9214C3.8431 10.9018 3.96074 10.9018 4.098 10.8822C3.96074 10.8822 3.82349 10.9018 3.70584 10.9018C3.80388 10.3331 3.8627 9.70569 4.23525 9.2155C4.33329 9.09785 4.45094 8.9802 4.54898 8.84295C4.50976 9.01942 4.50976 9.17628 4.50976 9.35275Z" fill="#F4ECB4"/>
<path d="M11.5686 8.6471C11.8235 8.54906 11.6078 8.902 11.5686 8.6471V8.6471Z" fill="#71694F"/>
<path d="M13.3137 8.6665L13.4117 8.76454C14.1372 9.70572 14.3333 10.941 14.2352 12.0979C14.1176 12.1567 13.9803 12.2351 13.8627 12.3136C13.6666 12.4508 13.5489 12.6861 13.3529 12.8234C12.9999 12.9998 12.5686 12.9606 12.2548 13.2155C12.0784 13.4116 11.9607 13.6665 11.745 13.843C11.8627 13.9606 11.9803 14.0587 12.0784 14.1763C12.1372 14.2743 12.1176 14.392 12.1568 14.49C12.2548 14.5685 12.3725 14.6273 12.4705 14.7057C12.196 14.7449 11.9019 14.7449 11.6078 14.7057C11.3333 14.6469 11.098 14.8038 10.8627 14.9018V10.3528C11.1764 10.3332 11.4705 10.2155 11.745 10.0783C12.0391 9.92141 12.4313 9.86258 12.647 9.56846C12.9019 9.25474 13.0587 8.94101 13.3137 8.6665Z" fill="#DFCD88"/>
<path d="M10.9216 8.94092C11.0392 9.11739 11.2157 9.21543 11.4118 9.31347C11.2353 9.31347 11.0784 9.33307 10.902 9.33307C10.902 9.19582 10.9216 9.07817 10.9216 8.94092Z" fill="#DFCD88"/>
<path d="M6.23527 9.4706C6.37252 9.41177 6.52938 9.39217 6.66664 9.45099C6.86272 9.52942 7.05879 9.43138 7.25487 9.37256V9.9804C6.88232 9.84315 6.49017 9.74511 6.0784 9.76472C6.01958 9.7255 5.94115 9.66668 5.88232 9.62746C5.99997 9.56864 6.11762 9.50981 6.23527 9.4706Z" fill="#DFC57C"/>
<path d="M5.03925 10.2156C5.1765 9.88224 5.50984 9.72538 5.78435 9.5293C5.80396 9.5489 5.86278 9.56851 5.88239 9.58812C5.94121 9.62734 6.01964 9.68616 6.07846 9.72538C5.72552 9.74498 5.37258 9.96067 5.33337 10.3528C5.27454 10.8234 5.09807 11.294 5.05886 11.7646C5.01964 12.1175 5.33337 12.3332 5.43141 12.6469C5.47062 12.8038 5.47062 12.9803 5.50984 13.1371C5.47062 13.3528 5.4118 13.5489 5.39219 13.7646H5.1765C5.09807 13.9411 5.01964 14.0979 4.96082 14.2744C5.01964 14.6273 5.13729 14.9607 5.21572 15.294C5.19611 15.3332 5.1765 15.4117 5.1569 15.4509C4.98043 15.2548 4.88239 14.9999 4.6667 14.8822C4.60788 14.7842 4.54905 14.6862 4.49023 14.5881C4.13729 13.9999 3.90199 13.3332 3.80396 12.6469C3.84317 12.4509 3.88239 12.2548 3.90199 12.0391C4.03925 12.3332 4.03925 12.6666 4.21572 12.9411C4.35297 12.9018 4.47062 12.8822 4.60788 12.843L4.6667 12.9215C4.80396 12.7254 4.94121 12.5097 4.96082 12.2548C4.86278 12.3724 4.78435 12.5097 4.70592 12.6273C4.58827 12.4509 4.47062 12.294 4.39219 12.0979C4.35297 11.8626 4.37258 11.6469 4.35297 11.4117C4.27454 11.4313 4.19611 11.4509 4.09807 11.4705L4.1569 11.4117C4.23533 11.3332 4.29415 11.2548 4.37258 11.1567C4.27454 11.1371 4.1765 11.1371 4.07846 11.1175H4.01964C4.13729 11.0391 4.31376 10.9999 4.35297 10.8626C4.43141 10.6273 4.52945 10.3724 4.68631 10.1567C4.6667 10.4705 4.58827 10.7842 4.60788 11.0979C4.60788 11.2548 4.74513 11.3332 4.84317 11.4313C4.90199 11.0783 4.88239 10.6273 5.03925 10.2156Z" fill="#F3E19D"/>
<path d="M5.33328 10.3726C5.3725 10.0001 5.72544 9.76478 6.07838 9.74517C6.47054 9.72557 6.86269 9.82361 7.25485 9.96086V9.98047V11.0393V11.0981C7.1372 11.2158 7.01956 11.3334 6.92152 11.4511C6.72544 11.6079 6.49015 11.6864 6.23524 11.7452C6.21564 11.804 6.19603 11.902 6.19603 11.9413C6.17642 12.0001 6.15681 12.1177 6.1372 12.1765C5.80387 11.8628 5.60779 11.4511 5.3725 11.0589C5.25485 10.8432 5.29407 10.6079 5.33328 10.3726Z" fill="#252211"/>
<path d="M7.25484 9.98047C7.49013 10.0589 7.70582 10.1962 7.84307 10.3922C7.78425 10.6864 7.74503 10.9805 7.68621 11.2942C7.50974 11.3922 7.37248 11.5491 7.31366 11.7452C7.33327 11.5099 7.29405 11.2746 7.23523 11.0393C7.25484 10.6864 7.25484 10.3334 7.25484 9.98047Z" fill="#DFDDD9"/>
<path d="M1.90198 10.0782C2.15688 10.039 2.41178 10.0782 2.66668 10.0586L2.54904 10.2155C2.94119 10.1958 3.33335 10.2155 3.7059 10.3331C3.35296 10.2547 3.01962 10.2155 2.66668 10.2351C2.52943 10.2547 2.41178 10.1958 2.31374 10.1174C2.17649 10.0978 1.98041 10.2351 1.90198 10.0782Z" fill="#D6D6D5"/>
<path d="M5.05878 11.7843C5.098 11.2941 5.27447 10.8431 5.33329 10.3726C5.31368 10.6079 5.25486 10.8431 5.39211 11.0588C5.6078 11.451 5.80388 11.8628 6.15682 12.1765C6.17643 12.1177 6.19603 12 6.21564 11.9412C6.33329 11.9412 6.47054 11.9608 6.58819 11.9608C6.76466 12.098 6.94113 12.2353 7.098 12.3922C7.25486 12.0784 7.03917 11.7843 7.05878 11.4706C7.01956 11.4706 6.96074 11.451 6.94113 11.451C7.05878 11.3333 7.15682 11.2157 7.27447 11.098V12.7059C6.66662 12.5098 6.01956 12.2941 5.39211 12.5098C5.98035 12.7843 6.64701 12.8039 7.27447 12.9608V13.4902C6.98035 13.6275 6.72545 13.8039 6.45094 13.9412C6.15682 13.7451 5.94113 13.451 5.64701 13.2549C5.62741 13.2353 5.56858 13.1765 5.52937 13.1569C5.49015 13 5.47054 12.8235 5.45094 12.6667C5.33329 12.3726 4.99996 12.1373 5.05878 11.7843Z" fill="#6E6342"/>
<path d="M2.64697 11.2351C2.94109 11.0586 3.29403 10.9998 3.62736 10.9214C3.58815 10.9998 3.52933 11.039 3.45089 11.0586C3.19599 11.1567 2.92148 11.2351 2.64697 11.2351Z" fill="#BFA64C"/>
<path d="M18.3137 10.9019C18.4706 11.3136 18.451 11.7646 18.6274 12.1764C18.7843 12.7646 19.1176 13.3332 19.0588 13.9607C18.9804 13.8234 18.902 13.6862 18.902 13.5293C18.902 13.196 18.7255 12.9019 18.6471 12.5881C18.549 12.2352 18.451 11.8822 18.3333 11.5489C18.3333 11.3136 18.3333 11.1175 18.3137 10.9019Z" fill="#988430"/>
<path d="M7.25488 11.0391C7.2941 11.2744 7.33331 11.5097 7.33331 11.7449V12.2547C7.39214 12.294 7.45096 12.3528 7.50978 12.392C7.49018 12.4704 7.47057 12.5489 7.45096 12.6469C7.41175 12.7646 7.41175 12.9018 7.41175 13.0195C8.27449 13.3136 9.33331 13.5293 10.1176 12.9214C10.1372 12.9214 10.1765 12.941 10.2157 12.941C10.2549 13.294 9.98037 13.5489 9.84312 13.8626C9.2941 14.0979 8.60782 14.0783 8.13724 14.49C7.94116 14.2547 7.64704 14.3332 7.39214 14.3724C7.35292 14.2547 7.31371 14.1175 7.27449 13.9998V13.5097V12.9802V12.7253V11.1175L7.25488 11.0391Z" fill="#E7E3DB"/>
<path d="M4.098 11.1763C4.19604 11.1763 4.29408 11.1959 4.39212 11.2155C4.31368 11.2939 4.25486 11.392 4.17643 11.4704C4.01957 11.5488 3.8431 11.6272 3.68623 11.7253C3.68623 11.6469 3.68623 11.4704 3.66663 11.392C3.82349 11.3135 3.96074 11.2351 4.098 11.1763Z" fill="#F5EDB6"/>
<path d="M4.11762 11.5295C4.19605 11.5099 4.27448 11.4903 4.37252 11.4707C4.39213 11.706 4.39213 11.9217 4.41174 12.157C4.47056 12.3531 4.60782 12.5099 4.72546 12.6864C4.68625 12.7452 4.64703 12.8236 4.60782 12.8825C4.47056 12.9021 4.33331 12.9413 4.21566 12.9805C4.01958 12.7256 4.03919 12.3727 3.90193 12.0785C3.86272 12.2746 3.8235 12.4707 3.8039 12.6864C3.76468 12.3923 3.72546 12.0785 3.72546 11.7844C3.8039 11.6668 3.98037 11.6276 4.11762 11.5295Z" fill="#F4ECB4"/>
<path d="M6.23526 11.7453C6.47055 11.6865 6.72546 11.6276 6.92153 11.4512C6.96075 11.4512 7.01957 11.4708 7.03918 11.4708C6.99997 11.7845 7.23526 12.0786 7.0784 12.3923C6.92153 12.2159 6.74506 12.0982 6.56859 11.961C6.45095 11.961 6.31369 11.9414 6.19604 11.9414C6.19604 11.9022 6.21565 11.8041 6.23526 11.7453Z" fill="#39331F"/>
<path d="M18.3333 11.5293C18.4313 11.8822 18.5489 12.2352 18.647 12.5685C18.7254 12.8822 18.9019 13.1764 18.9019 13.5097C18.9019 13.6666 18.9607 13.8038 19.0588 13.9411C18.9999 14.392 19.2352 14.8038 19.2156 15.2352C19.2156 15.392 19.196 15.5685 19.1764 15.7254C19.1176 15.6273 19.0391 15.5293 18.9803 15.4509C18.9019 15.7254 18.9607 16.0391 18.7254 16.2548C18.6274 16.1175 18.5882 15.9018 18.3921 15.8822C18.1176 15.843 17.8431 15.9803 17.6666 16.1764C17.4117 16.4313 17.0391 16.4509 16.7058 16.4901C16.9607 16.2156 17.196 15.9215 17.3921 15.5881C17.5686 15.6469 17.7058 15.4901 17.8235 15.392C17.9607 15.2744 18.1372 15.2352 18.2744 15.1567C18.3921 14.9607 18.4901 14.7254 18.5489 14.4901C18.5097 14.3332 18.4313 14.196 18.3921 14.0391L18.1568 14.0979C18.1176 14.0783 18.0588 14.0195 18.0195 13.9803C18.2548 13.196 18.3333 12.3528 18.3333 11.5293Z" fill="#CCA847"/>
<path d="M3.35297 11.8823C3.47061 11.8234 3.47061 11.9803 3.37257 11.9999C3.29414 12.0391 3.1961 12.1372 3.09806 12.0783C3.07846 11.9607 3.25493 11.9215 3.35297 11.8823Z" fill="#C1A956"/>
<path d="M13.8628 12.3138C13.9804 12.2354 14.0981 12.1766 14.2353 12.0981C14.1569 13.0785 13.8039 14.1178 12.9804 14.706C12.3922 15.157 11.6079 14.9413 10.9412 14.9805C10.9412 14.9609 10.9216 14.9021 10.902 14.8629C11.1373 14.7648 11.3726 14.6276 11.6471 14.6668C11.9216 14.706 12.2157 14.706 12.5098 14.6668C12.3922 14.6079 12.2941 14.5295 12.1961 14.4511C12.1373 14.353 12.1569 14.2354 12.1177 14.1374C12.0196 14.0197 11.902 13.9021 11.7843 13.804C12 13.6276 12.1177 13.3727 12.2941 13.1766C12.6079 12.9217 13.0392 12.9609 13.3922 12.7844C13.549 12.6864 13.6667 12.4511 13.8628 12.3138Z" fill="#ECD592"/>
<path d="M4.72548 12.706C4.80391 12.5688 4.88234 12.4511 4.98038 12.3335C4.96077 12.5884 4.82352 12.8041 4.68626 13.0002L4.62744 12.9217C4.64705 12.8433 4.68626 12.7649 4.72548 12.706Z" fill="#D7C27C"/>
<path d="M5.37256 12.5099C6.00001 12.3138 6.64707 12.5295 7.25491 12.706V12.9609C6.62746 12.804 5.96079 12.7844 5.37256 12.5099Z" fill="#242110"/>
<path d="M7.39209 13.0195C7.39209 12.9019 7.39209 12.7646 7.43131 12.647C7.6666 12.9411 8.03915 13.1176 8.4117 13.1568C8.98033 13.1176 9.50974 12.745 10.098 12.9215C9.31366 13.5293 8.25483 13.3136 7.39209 13.0195Z" fill="#D6D6D5"/>
<path d="M5.50976 13.1567C5.52937 13.1763 5.58819 13.2352 5.62741 13.2548C5.64701 13.6469 5.88231 13.9607 6.05878 14.294C6.19603 14.5685 6.45094 14.7646 6.70584 14.9214C6.88231 14.9803 7.07839 14.9607 7.25486 14.9803C6.70584 15.0195 6.13721 14.9411 5.58819 14.9999C5.54897 15.1763 5.52937 15.3332 5.52937 15.5097L5.23525 15.3332C5.15682 14.9999 5.03917 14.6469 4.98035 14.3136C5.03917 14.1371 5.1176 13.9607 5.19603 13.8038H5.41172C5.41172 13.5881 5.47054 13.3724 5.50976 13.1567Z" fill="#EED88B"/>
<path d="M5.62744 13.2549C5.92156 13.451 6.13725 13.7451 6.43136 13.9412L6.66666 14.1765C6.84313 14.3137 7.05881 14.3529 7.2745 14.4117V14.9804C7.09803 14.9608 6.90195 14.9804 6.72548 14.9215C6.47058 14.7451 6.23528 14.549 6.07842 14.2941C5.88234 13.9608 5.64705 13.647 5.62744 13.2549Z" fill="#DFC677"/>
<path d="M6.41174 13.9412C6.68625 13.804 6.96076 13.6079 7.23527 13.4902V13.9804C7.01959 14.0196 6.78429 14 6.62743 14.1765C6.56861 14.0981 6.49017 14.0196 6.41174 13.9412Z" fill="#927D49"/>
<path d="M6.64697 14.1765C6.80384 14.0001 7.03913 14.0197 7.25482 13.9805V14.4118C7.03913 14.353 6.82344 14.3138 6.64697 14.1765Z" fill="#C4A859"/>
<path d="M18.0392 14C18.0784 14.0196 18.1372 14.0784 18.1764 14.1176L18.4117 14.0588C18.451 14.2157 18.5098 14.3529 18.5686 14.5098C18.5098 14.7451 18.4117 14.9608 18.2941 15.1765C18.1372 15.2549 17.9608 15.2941 17.8431 15.4118C17.7059 15.4902 17.5882 15.6667 17.4117 15.6078C17.6863 15.098 17.9019 14.549 18.0392 14Z" fill="#C0993A"/>
<path d="M4.47061 14.6274C4.52943 14.7255 4.58826 14.8235 4.64708 14.9216C4.80394 15.5686 5.03924 16.2353 5.50983 16.7255C5.50983 17.0784 5.49022 17.4314 5.50983 17.7843C5.50983 17.902 5.56865 18.0784 5.72551 18.0784C6.15688 18.098 6.60787 18.0784 7.03924 18.0784C6.86277 18.3137 7.00002 18.5686 7.00002 18.8235C7.00002 19.1176 7.15688 19.3921 7.21571 19.6667C7.09806 19.9804 6.88237 20.2549 6.72551 20.549C6.56865 20.5686 6.39218 20.5098 6.23532 20.549C6.13728 20.6863 6.09806 20.8627 5.90198 20.902C5.05885 20.3725 4.27453 19.7647 3.58826 19.0392C3.88237 18.4314 4.13728 17.7647 4.07845 17.0784C4.03924 16.7843 4.25492 16.5686 4.29414 16.2941C4.29414 16.1372 4.17649 16.0196 4.09806 15.8823C4.37257 15.4902 4.47061 15.0588 4.47061 14.6274Z" fill="#E5CB7A"/>
<path d="M4.64697 14.9214C4.88227 15.0586 4.98031 15.3135 5.13717 15.49C5.15678 15.4508 5.17638 15.3724 5.19599 15.3332L5.49011 15.5096C5.50972 15.9018 5.49011 16.3135 5.49011 16.7057C5.05874 16.2351 4.82344 15.5684 4.64697 14.9214Z" fill="#D2B159"/>
<path d="M18.9607 15.4512C19.0392 15.5492 19.098 15.6276 19.1568 15.7257C19.196 16.1963 19.2941 16.6473 19.3137 17.1178C19.3333 17.7453 19.3333 18.3923 19.3725 19.0198C18.6666 19.7649 17.8431 20.412 16.9607 20.9218C16.6274 20.6865 16.2352 20.8629 15.9215 21.059C15.9803 20.9414 16.0588 20.8629 16.1568 20.7649C16.3529 20.608 16.4117 20.3531 16.6274 20.1963C16.8235 20.0198 17.098 19.9022 17.2745 19.6865C17.4313 19.3335 17.7843 19.1374 17.9999 18.8237C18.196 18.5296 18.5294 18.2747 18.4901 17.8825C18.4705 17.5492 18.549 17.2355 18.5882 16.9022C18.6078 16.6669 18.6274 16.4316 18.745 16.2159C18.9411 16.059 18.8823 15.7257 18.9607 15.4512Z" fill="#BA9040"/>
<path d="M17.6667 16.1763C17.8628 15.9802 18.1177 15.843 18.3922 15.8822C18.5882 15.9018 18.6275 16.1175 18.7255 16.2547C18.6275 16.4704 18.5882 16.7057 18.5686 16.941C18.5294 17.2744 18.4706 17.5881 18.4706 17.9214C18.5098 18.3136 18.1765 18.5685 17.9804 18.8626C17.7647 19.1763 17.4118 19.3724 17.2549 19.7253H16.9216C17.2157 19.294 17.3922 18.7842 17.6079 18.3332C17.6667 18.2547 17.6471 18.1763 17.6079 18.0979C17.549 17.9606 17.6275 17.8234 17.6079 17.6861C17.5882 17.5489 17.5294 17.4116 17.4706 17.2744C17.2353 17.2351 16.9804 17.1763 16.7255 17.1763C16.4118 17.2351 16.1961 17.49 15.9216 17.6077C15.7843 17.6665 15.6471 17.6861 15.5098 17.7645C15.2549 17.9802 15.1961 18.3332 14.9216 18.5096C14.6471 18.7057 14.3922 18.941 14.1373 19.1371C13.9804 19.2744 13.7647 19.1763 13.5686 19.1959C13.4118 19.2744 13.2941 19.4312 13.1373 19.5293C12.9412 19.5881 12.7059 19.5685 12.5294 19.7253C12.2549 19.9606 11.8628 19.9018 11.5686 20.0979C11.2353 20.2547 11.098 20.6273 10.7843 20.8234C10.549 20.9606 10.3726 21.1763 10.1765 21.3724C10.1177 21.3136 10.0784 21.2547 10.0196 21.1959C9.76472 21.3528 9.54903 21.5881 9.25491 21.6469C9.13726 21.5096 9.03923 21.3528 8.86276 21.3528C8.90197 21.294 8.92158 21.2351 8.96079 21.1567C8.90197 21.0783 8.82354 20.9998 8.70589 20.9998C8.41177 20.9606 8.13726 21.0195 7.84315 20.9998C7.64707 20.9018 7.49021 20.7449 7.37256 20.5489C7.58824 20.294 7.68628 19.9606 7.88236 19.6861C8.00001 19.5293 8.15687 19.6469 8.29413 19.6861C8.35295 19.5489 8.41177 19.4312 8.4706 19.294C8.54903 19.294 8.62746 19.3136 8.70589 19.3136C8.88236 19.1371 9.00001 18.9214 9.07844 18.6861C9.19609 18.6469 9.33334 18.6077 9.45099 18.5685C9.45099 18.3528 9.54903 18.1763 9.68628 18.0391H12.8039C14 18.0587 15.1961 17.6861 16.1373 16.9606C16.3333 16.8038 16.5098 16.6469 16.6863 16.4508C17.0392 16.4508 17.4118 16.4312 17.6667 16.1763Z" fill="#D8C173"/>
<path d="M15.9608 17.5881C16.2353 17.4704 16.451 17.2155 16.7647 17.1567C17.0196 17.1371 17.2549 17.1959 17.5098 17.2547C17.549 17.392 17.6079 17.5292 17.6471 17.6665C17.6471 17.8037 17.5882 17.941 17.6471 18.0782C17.6667 18.1567 17.7059 18.2351 17.6471 18.3135C17.4118 18.7841 17.2353 19.2743 16.9608 19.7057H17.2941C17.1373 19.941 16.8628 20.039 16.6471 20.2155C16.451 20.3724 16.3726 20.6273 16.1765 20.7841C16.0784 20.8626 16 20.9606 15.9412 21.0782C15.5294 21.3528 15.0588 21.4704 14.6275 21.6861V21.4508C14.3137 21.5292 14 21.5881 13.6863 21.6665C13.4314 21.7449 13.2549 21.9802 13.0196 22.0979C12.8235 22.1567 12.6275 22.1763 12.4706 22.3528C11.0392 22.4704 9.58825 22.3331 8.2157 21.9018C8.37256 21.8626 8.52942 21.8037 8.66668 21.7449C8.68629 21.5684 8.78433 21.4312 8.90197 21.3135C9.09805 21.3135 9.19609 21.4704 9.29413 21.6077C9.58825 21.5488 9.80393 21.2939 10.0588 21.1567C10.1177 21.2155 10.1569 21.2743 10.2157 21.3331C10.4118 21.1371 10.5882 20.941 10.8235 20.7841C11.1373 20.6077 11.2745 20.2351 11.6079 20.0586C11.902 19.843 12.2941 19.9214 12.5686 19.6861C12.7451 19.5292 12.9804 19.5684 13.1765 19.49C13.3333 19.392 13.451 19.2351 13.6079 19.1567C13.7843 19.1175 14.0196 19.2351 14.1765 19.0979C14.4314 18.8822 14.6863 18.6469 14.9608 18.4704C15.2549 18.2939 15.3137 17.9214 15.549 17.7253C15.6667 17.6665 15.8235 17.6469 15.9608 17.5881Z" fill="#E0CD81"/>
<path d="M7.0588 18.0586H7.35291C7.5686 18.3135 7.86272 18.6076 8.23527 18.6076C8.52939 18.588 8.37252 18.2351 8.35291 18.0586H9.70586C9.54899 18.1958 9.47056 18.3723 9.47056 18.588C9.35291 18.6272 9.21566 18.6664 9.09801 18.7057C9.01958 18.9409 8.92154 19.1762 8.72546 19.3331C8.64703 19.3135 8.5686 19.3135 8.49017 19.3135C8.43135 19.4508 8.37252 19.5684 8.3137 19.7057C8.17644 19.6664 7.99997 19.5488 7.90193 19.7057C7.72546 19.9802 7.62742 20.3135 7.39213 20.5684L7.27448 20.3331C7.09801 20.4115 6.92154 20.49 6.72546 20.5488C6.88233 20.2547 7.09801 19.9802 7.21566 19.6664C7.17644 19.3723 7.01958 19.1174 6.99997 18.8233C7.01958 18.5488 6.90193 18.2939 7.0588 18.0586Z" fill="#C2A44D"/>
<path d="M7.35291 18.0586H8.3529C8.39212 18.2351 8.52938 18.588 8.23526 18.6076C7.86271 18.6272 7.5882 18.3331 7.35291 18.0586Z" fill="#D2B159"/>
<path d="M6.74504 20.5292C6.92151 20.4703 7.11759 20.3919 7.29406 20.3135L7.4117 20.5488C7.52935 20.7252 7.68621 20.8821 7.88229 20.9998C8.17641 21.0194 8.45092 20.9605 8.74504 20.9998C8.86268 20.9801 8.94112 21.0586 8.99994 21.1566C8.98033 21.2154 8.94112 21.2743 8.9019 21.3527C8.78425 21.4703 8.68621 21.6076 8.66661 21.7841C8.50974 21.8429 8.35288 21.9017 8.21563 21.9409C7.41171 21.686 6.647 21.3331 5.92151 20.9213C6.09798 20.8821 6.1568 20.7056 6.25484 20.5684C6.3921 20.4899 6.56857 20.5684 6.74504 20.5292Z" fill="#CEB052"/>
<path d="M15.9215 21.0785C16.2352 20.8824 16.6274 20.7059 16.9607 20.9412C15.5882 21.7451 14.0392 22.2353 12.4509 22.353C12.5882 22.1961 12.8039 22.1765 12.9999 22.0981C13.2352 21.9804 13.3921 21.7255 13.6666 21.6667C13.9803 21.5687 14.2941 21.5099 14.6078 21.451V21.6863C15.0196 21.4706 15.5098 21.353 15.9215 21.0785Z" fill="#D2BA6B"/>
<g clip-path="url(#clip2_57_9956)">
<path d="M11.5 23C17.8513 23 23 17.8513 23 11.5C23 5.14873 17.8513 0 11.5 0C5.14873 0 0 5.14873 0 11.5C0 17.8513 5.14873 23 11.5 23Z" fill="#008DE4"/>
<path d="M4.52551 18.4939C4.52551 18.4743 4.56469 18.2392 4.62347 17.965C4.68224 17.6907 4.74102 17.3576 4.76061 17.2205C4.7802 17.0834 4.83897 16.7699 4.89774 16.4956C4.95652 16.2214 5.01529 15.9079 5.01529 15.7708L5.03488 15.5357H8.24783C10.971 15.5357 11.5 15.5357 11.7742 15.4769C12.3032 15.3985 12.6754 15.3006 13.224 15.0851C13.2828 15.0655 13.4199 14.9871 13.5178 14.9283L13.7138 14.8108C13.7138 14.8108 13.7921 14.752 13.8705 14.6933C13.9489 14.6345 14.0076 14.5757 14.0272 14.5757C14.0468 14.5757 14.1252 14.4973 14.2231 14.3798L14.4778 14.1251C14.517 14.0859 14.5562 14.0467 14.5562 14.0272C14.5562 14.0076 14.5954 13.9684 14.615 13.9292C14.6933 13.8508 15.0264 13.2043 15.0264 13.1456C15.0264 13.126 15.0655 12.9888 15.1243 12.8713C15.1831 12.7341 15.2419 12.5578 15.2615 12.4599C15.281 12.3619 15.3398 12.1072 15.3986 11.8917C15.8688 10.0697 15.7512 8.95305 15.046 8.26736C14.7521 7.97349 14.3603 7.77758 13.8117 7.62085C13.3219 7.48371 13.1456 7.48371 9.77594 7.46412C7.97355 7.44453 6.48463 7.42494 6.46504 7.42494C6.44544 7.40535 6.48463 7.15066 6.70013 5.9556C6.7589 5.60296 6.83727 5.23073 6.85686 5.09359C6.87645 4.95646 6.91563 4.78014 6.93522 4.68218L6.9744 4.50586L10.7947 4.52545C14.8892 4.54504 14.6541 4.52545 15.5161 4.72136C15.9276 4.79973 16.0843 4.8585 16.4173 4.97605C16.7112 5.074 17.2402 5.34828 17.3381 5.42664C17.3773 5.46583 17.4361 5.50501 17.4753 5.50501C17.5536 5.54419 18.0238 5.9556 18.1805 6.13192C18.4156 6.42579 18.494 6.52375 18.6115 6.71966C18.7487 6.95475 18.9446 7.48371 19.023 7.79717C19.1797 8.46327 19.1797 8.46327 19.1797 9.5016C19.1797 10.3636 19.1601 10.5595 19.1013 10.9318C19.0621 11.1668 19.0034 11.4803 18.9838 11.5979C18.8858 12.2248 18.6311 13.1847 18.396 13.8312C18.2785 14.1447 17.9846 14.7912 17.9454 14.85C17.9259 14.8696 17.8671 14.9675 17.8083 15.0851C17.7495 15.183 17.6908 15.3006 17.6712 15.3202C17.6516 15.3398 17.5536 15.4965 17.4361 15.6532C17.103 16.143 16.3977 16.9071 15.9863 17.1813C15.5553 17.4752 15.3006 17.6319 15.046 17.7495C14.6345 17.9454 14.2035 18.1413 14.1448 18.1413C14.1252 18.1413 13.9684 18.1805 13.7921 18.2393C13.6354 18.298 13.4199 18.3568 13.3219 18.3568C13.2436 18.3764 13.0085 18.396 12.8322 18.4352C12.6558 18.4548 12.3032 18.4939 12.0877 18.5135C11.6763 18.5331 4.52551 18.5331 4.52551 18.4939Z" fill="white"/>
<path d="M1.99829 12.9303C1.99829 12.7736 2.4097 11.1867 2.48807 11.0104C2.72316 10.5402 3.09539 10.2267 3.60476 10.0896C3.85945 10.0112 3.91822 10.0112 7.32708 10.0112C9.22742 10.0112 10.7751 10.0112 10.7751 10.0308C10.7751 10.1092 10.4813 11.3042 10.3637 11.7548C10.3049 11.9899 10.0503 12.3818 9.89352 12.5189C9.81516 12.5973 9.63884 12.6952 9.52129 12.754C9.07069 12.9695 9.24701 12.9695 5.46592 12.9695C2.33134 12.9891 1.99829 12.9891 1.99829 12.9303Z" fill="white"/>
<g clip-path="url(#clip3_57_9956)">
<path d="M11.5 23C17.8513 23 23 17.8513 23 11.5C23 5.14873 17.8513 0 11.5 0C5.14873 0 0 5.14873 0 11.5C0 17.8513 5.14873 23 11.5 23Z" fill="#F4F6F9"/>
<path d="M17.0835 14.6736C16.9267 16.5347 14.7325 18.102 11.4412 18.0237C8.34581 17.9453 6.17119 16.6523 6.01446 14.7911C5.99487 14.556 6.01446 14.3209 6.03405 14.0662C6.13201 13.3414 6.38669 12.6557 6.75893 12.0288L6.99402 12.1267C7.60134 11.8916 8.22826 11.7153 8.87477 11.5978C9.71719 11.4802 10.5792 11.4606 11.4216 11.5194C12.264 11.4606 13.126 11.4802 13.9685 11.5978C14.615 11.7153 15.2419 11.8916 15.8492 12.1267L16.0843 12.0288L16.241 11.9504C16.6133 12.5773 16.868 13.263 17.0051 13.9879C17.0443 14.2034 17.0639 14.4385 17.0443 14.654" fill="#F4A427"/>
<path d="M17.0835 14.674C16.9267 16.5155 14.7521 18.0241 11.4412 18.0045C8.34581 17.9261 6.17119 16.6331 6.01446 14.7719C5.99487 14.5368 6.01446 14.3017 6.03405 14.0471C6.3671 13.9687 6.70015 13.9687 7.0332 14.0275C7.66012 14.1254 8.01276 14.5173 8.46336 14.7132C8.71804 14.8307 8.97272 14.6348 9.20782 14.4193C9.83473 13.812 10.6772 13.4593 11.5392 13.4397C12.4208 13.4201 13.1456 13.7728 13.9097 14.4781C14.0664 14.6348 14.2819 14.7328 14.4974 14.7132C14.6933 14.6544 14.8892 14.5564 15.046 14.4193C15.6337 14.0275 16.339 13.8707 17.0247 13.9687C17.0835 14.2234 17.103 14.4389 17.0835 14.674Z" fill="white"/>
<path d="M7.97362 10.0896C7.75811 10.3051 7.48384 10.4618 7.18997 10.5206L7.07242 10.5402C6.95488 10.5794 6.83733 10.5989 6.70019 10.5989C6.6806 10.5989 6.64142 10.5989 6.62183 10.5989C6.56305 10.5794 6.48469 10.5598 6.42592 10.5402C6.21041 10.4422 6.0145 10.3247 5.83818 10.1679C5.48554 9.87407 5.15249 9.54102 4.89781 9.1492C3.8203 7.58191 4.15334 5.46607 5.64227 4.2906C5.74023 4.23183 5.85777 4.23183 5.93614 4.32978C5.97532 4.38855 5.99491 4.44733 5.97532 4.5061C5.83818 5.13302 5.72064 6.11257 6.30837 6.95499C6.81774 7.66027 7.87566 8.34596 8.52217 8.34596C8.65931 9.12961 8.4438 9.65857 7.97362 10.0896Z" fill="#F79422"/>
<path d="M7.97362 10.0896C7.75811 10.3051 7.48384 10.4618 7.18997 10.5206L7.07242 10.5402C6.95488 10.5794 6.83733 10.5989 6.70019 10.5989C6.6806 10.5989 6.64142 10.5989 6.62183 10.5989C6.56305 10.5794 6.48469 10.5598 6.42592 10.5402C6.21041 10.4422 6.0145 10.3247 5.83818 10.1679C5.48554 9.87407 5.15249 9.54102 4.89781 9.1492C3.82029 7.58191 4.15334 5.46607 5.64227 4.2906C5.74023 4.23183 5.85777 4.23183 5.93614 4.32978C5.97532 4.38855 5.99491 4.44733 5.97532 4.5061C5.83818 5.13302 5.72064 6.11257 6.30837 6.95499C6.81774 7.66027 7.87566 8.34596 8.52217 8.34596C8.65931 9.12961 8.4438 9.65857 7.97362 10.0896Z" stroke="#221F1F" stroke-linejoin="round"/>
<path d="M10.7947 7.38574L10.54 9.89341H10.5204C10.1286 9.95218 9.59962 10.0305 8.87475 10.1481C8.20865 10.246 7.30746 10.7162 6.7785 11.0297L6.71973 10.6183C6.83727 10.5987 6.97441 10.5791 7.09196 10.5595L7.20951 10.5399C7.50337 10.4811 7.77765 10.3244 7.99315 10.1089C8.44375 9.65831 8.67884 9.14894 8.52211 8.34571L8.60048 8.3653C8.83557 8.11061 9.10985 7.9147 9.4233 7.75797C9.83472 7.52288 10.3049 7.40533 10.7947 7.38574Z" fill="#5A595C"/>
<path d="M10.7947 7.38574L10.54 9.89341H10.5204C10.1286 9.95218 9.59962 10.0305 8.87475 10.1481C8.20865 10.246 7.30746 10.7162 6.7785 11.0297L6.71973 10.6183C6.83727 10.5987 6.97441 10.5791 7.09196 10.5595L7.20951 10.5399C7.50337 10.4811 7.77765 10.3244 7.99315 10.1089C8.44375 9.65831 8.67884 9.14894 8.52211 8.34571L8.60048 8.3653C8.83557 8.11061 9.10985 7.9147 9.4233 7.75797C9.83472 7.52288 10.3049 7.40533 10.7947 7.38574Z" stroke="#221F1F" stroke-linejoin="round"/>
<path d="M16.5153 11.892L16.3586 11.9703L16.2019 12.0487L15.9668 12.1467C15.3595 11.9116 14.7326 11.7352 14.086 11.6177C13.2436 11.461 12.4012 11.3826 11.5392 11.3826C10.6772 11.3826 9.83477 11.4414 8.99235 11.6177C8.34584 11.7352 7.71892 11.9116 7.1116 12.1467C7.03324 12.1075 6.95487 12.0683 6.87651 12.0487L6.54346 11.892C6.56305 11.6177 6.54346 11.461 6.54346 11.1867C6.60223 11.1475 6.70019 11.0887 6.79814 11.03L6.81773 11.0104C7.3271 10.6969 8.22829 10.2463 8.89439 10.1288C9.61927 10.0112 10.1286 9.93286 10.54 9.87408C10.7947 9.85449 11.069 9.85449 11.3433 9.85449C11.7547 9.85449 12.1269 9.85449 12.4992 9.87408C12.891 9.93286 13.4199 10.0112 14.1644 10.1288C14.8501 10.2267 15.7513 10.6969 16.2803 11.0104H16.2998C16.3978 11.0691 16.4762 11.1083 16.5349 11.1671C16.5153 11.461 16.4958 11.6177 16.5153 11.892Z" fill="#929497"/>
<path d="M16.5153 11.892L16.3586 11.9703L16.2019 12.0487L15.9668 12.1467C15.3595 11.9116 14.7326 11.7352 14.086 11.6177C13.2436 11.4806 12.4012 11.4022 11.5392 11.4022C10.6772 11.4022 9.83477 11.461 8.99235 11.6177C8.34584 11.7352 7.71892 11.9116 7.1116 12.1467C7.03324 12.1075 6.95487 12.0683 6.87651 12.0487L6.54346 11.892C6.56305 11.6177 6.54346 11.461 6.54346 11.1867C6.60223 11.1475 6.70019 11.0887 6.79814 11.03L6.81773 11.0104C7.3271 10.6969 8.22829 10.2463 8.89439 10.1288C9.61927 10.0112 10.1286 9.93286 10.54 9.87408C10.7947 9.85449 11.069 9.85449 11.3433 9.85449C11.7547 9.85449 12.1269 9.85449 12.4992 9.87408C12.891 9.93286 13.4199 10.0112 14.1644 10.1288C14.8501 10.2267 15.7513 10.6969 16.2803 11.0104H16.2998C16.3978 11.0691 16.4762 11.1083 16.5349 11.1671C16.5153 11.461 16.4958 11.6177 16.5153 11.892Z" stroke="#221F1F" stroke-linecap="round" stroke-linejoin="round"/>
<path d="M12.4795 9.89355C12.1269 9.87396 11.735 9.85437 11.3236 9.87396C11.0493 9.87396 10.7751 9.89355 10.5204 9.89355H10.54L10.7947 7.38589L10.8534 6.87652C11.0493 6.75897 11.2844 6.7002 11.4999 6.7002H11.5391C11.7742 6.7002 11.9897 6.75897 12.1856 6.87652L12.2444 7.38589V7.40548L12.4795 9.89355Z" fill="#929497"/>
<path d="M12.4795 9.89355C12.1269 9.87396 11.735 9.85437 11.3236 9.87396C11.0493 9.87396 10.7751 9.89355 10.5204 9.89355H10.54L10.7947 7.38589L10.8534 6.87652C11.0493 6.75897 11.2844 6.7002 11.4999 6.7002H11.5391C11.7742 6.7002 11.9897 6.75897 12.1856 6.87652L12.2444 7.38589V7.40548L12.4795 9.89355Z" stroke="#221F1F" stroke-linecap="round" stroke-linejoin="round"/>
<path d="M17.0835 14.6932C16.9268 16.5544 14.5563 18.0433 11.4413 18.0433C8.34587 17.9649 6.17125 16.6719 6.03412 14.8108C6.01452 14.5757 6.03412 14.3406 6.05371 14.0859C6.15166 13.361 6.40635 12.6753 6.77858 12.0484L7.01367 12.1464C7.621 11.9113 8.24792 11.735 8.89442 11.6174C9.73684 11.4607 10.5793 11.4019 11.4413 11.3823C12.3033 11.3823 13.1457 11.4607 13.9881 11.6174C14.6346 11.735 15.2615 11.9113 15.8689 12.1464L16.1236 12.0484L16.2803 11.9701C16.6525 12.597 16.9072 13.2827 17.0443 14.0075C17.1031 14.2426 17.1031 14.4777 17.0835 14.6932Z" stroke="#221F1F" stroke-linecap="round" stroke-linejoin="round"/>
<path d="M18.0434 9.14912C17.7692 9.52135 17.4557 9.874 17.0835 10.1679C16.9072 10.3246 16.7112 10.4421 16.4957 10.5401L16.3978 10.5793L16.339 10.5989C16.2019 10.638 16.1235 10.5989 15.8688 10.5597L15.7513 10.5401C15.4574 10.4813 15.1831 10.3246 14.9676 10.1091C14.517 9.65849 14.2819 9.14912 14.4387 8.34589C15.0656 8.36548 16.1431 7.67979 16.6525 6.95492C17.2206 6.1125 17.1031 5.13294 16.9659 4.50602C16.9463 4.38848 17.0051 4.29052 17.1227 4.25134C17.1814 4.23175 17.2598 4.25134 17.299 4.29052C18.7879 5.46599 19.121 7.60142 18.0434 9.14912Z" fill="#F79422"/>
<path d="M18.0434 9.14912C17.7692 9.52135 17.4557 9.874 17.0835 10.1679C16.9072 10.3246 16.7112 10.4421 16.4957 10.5401L16.3978 10.5793L16.339 10.5989C16.2019 10.638 16.1235 10.5989 15.8688 10.5597L15.7513 10.5401C15.4574 10.4813 15.1831 10.3246 14.9676 10.1091C14.517 9.65849 14.2819 9.14912 14.4387 8.34589C15.0656 8.36548 16.1431 7.67979 16.6525 6.95492C17.2206 6.1125 17.1031 5.13294 16.9659 4.50602C16.9463 4.38848 17.0051 4.29052 17.1227 4.25134C17.1814 4.23175 17.2598 4.25134 17.299 4.29052C18.7879 5.46599 19.121 7.60142 18.0434 9.14912Z" stroke="#221F1F" stroke-linejoin="round"/>
<path d="M16.339 10.5987L16.2606 11.0297C15.7317 10.7162 14.8305 10.246 14.1448 10.1481C13.4003 10.0305 12.891 9.95218 12.4795 9.89341L12.2249 7.38574C12.6754 7.40533 13.126 7.54247 13.5375 7.75797C13.8509 7.9147 14.1252 8.13021 14.3603 8.3653L14.4387 8.34571C14.2819 9.12935 14.517 9.65831 14.9676 10.1089C15.1831 10.3244 15.4574 10.4811 15.7513 10.5399C15.7708 10.5399 15.8492 10.5791 15.8688 10.5791C16.0255 10.6379 16.1823 10.6379 16.339 10.5987Z" fill="#5A595C"/>
<path d="M16.339 10.5987L16.2606 11.0297C15.7317 10.7162 14.8305 10.246 14.1448 10.1481C13.4003 10.0305 12.891 9.95218 12.4795 9.89341L12.2249 7.38574C12.6754 7.40533 13.126 7.54247 13.5375 7.75797C13.8509 7.9147 14.1252 8.13021 14.3603 8.3653L14.4387 8.34571C14.2819 9.12935 14.517 9.65831 14.9676 10.1089C15.1831 10.3244 15.4574 10.4811 15.7513 10.5399L15.8688 10.5595C16.1235 10.5987 16.2019 10.6379 16.339 10.5987Z" stroke="#221F1F" stroke-linejoin="round"/>
<path d="M12.2248 7.38574H12.1465" stroke="#221F1F" stroke-linejoin="round"/>
<path d="M16.3586 10.501C16.4957 10.6577 16.4565 10.8928 16.2998 11.0299C16.2802 11.0495 16.2802 11.0495 16.2606 11.0691" fill="#F79422"/>
<path d="M16.3586 10.501C16.4957 10.6577 16.4565 10.8928 16.2998 11.0299C16.2802 11.0495 16.2802 11.0495 16.2606 11.0691" stroke="#221F1F" stroke-miterlimit="10"/>
<path d="M6.70017 10.501C6.56304 10.6577 6.60222 10.8928 6.75895 11.0299C6.77854 11.0495 6.77854 11.0495 6.79813 11.0691" fill="#F79422"/>
<path d="M6.70017 10.501C6.56304 10.6577 6.60222 10.8928 6.75895 11.0299C6.77854 11.0495 6.77854 11.0495 6.79813 11.0691" stroke="#221F1F" stroke-miterlimit="10"/>
<path d="M10.7947 15.4378C10.9318 15.477 11.0885 15.4574 11.2257 15.3791C11.4412 15.3007 11.5783 15.0852 11.5587 14.8501C11.5391 15.0852 11.6763 15.3007 11.8918 15.3791C12.0289 15.4378 12.1661 15.4574 12.3032 15.4378" stroke="#171717" stroke-width="0.5" stroke-linecap="round" stroke-linejoin="round"/>
<path d="M12.3228 14.1841C12.3228 14.4192 11.9701 14.7326 11.5391 14.7326C11.1081 14.7326 10.7555 14.4192 10.7555 14.1841C10.7555 13.949 11.1081 13.8706 11.5391 13.8706C11.9701 13.8706 12.3228 13.9686 12.3228 14.1841Z" fill="#171717"/>
<path d="M11.8526 14.1056C11.8526 14.1644 11.6959 14.2428 11.5196 14.2428C11.3433 14.2428 11.1865 14.1644 11.1865 14.1252C11.1865 14.086 11.3433 14.086 11.5196 14.086C11.6959 14.086 11.8526 14.0469 11.8526 14.1056Z" fill="white"/>
<path d="M10.3049 14.8501C10.2854 15.1244 10.4617 15.3595 10.736 15.4182H10.7947" stroke="#171717" stroke-width="0.5" stroke-linecap="round" stroke-linejoin="round"/>
<path d="M11.5587 14.5757C11.5587 14.6736 11.5587 14.752 11.5587 14.85" stroke="#171717" stroke-width="0.5" stroke-linecap="round" stroke-linejoin="round"/>
<path d="M12.3229 15.4378H12.3816C12.6559 15.379 12.8518 15.1439 12.8127 14.8696" stroke="#171717" stroke-width="0.5" stroke-linecap="round" stroke-linejoin="round"/>
<path d="M17.299 4.29053C18.7879 5.466 19.1013 7.58184 18.0238 9.12954" stroke="#221F1F" stroke-linejoin="round"/>
<path d="M7.97362 10.0896C7.75811 10.3051 7.48384 10.4618 7.18997 10.5206L7.07242 10.5402C6.95488 10.5794 6.83733 10.5989 6.70019 10.5989C6.6806 10.5989 6.64142 10.5989 6.62183 10.5989C6.56305 10.5794 6.48469 10.5598 6.42592 10.5402C6.21041 10.4422 6.0145 10.3247 5.83818 10.1679C5.48554 9.87407 5.15249 9.54102 4.89781 9.1492C3.82029 7.58191 4.15334 5.46607 5.64227 4.2906C5.74023 4.23183 5.85777 4.23183 5.93614 4.32978C5.97532 4.38855 5.99491 4.44733 5.97532 4.5061C5.83818 5.13302 5.72064 6.11257 6.30837 6.95499C6.81774 7.66027 7.87566 8.34596 8.52217 8.34596C8.65931 9.12961 8.4438 9.65857 7.97362 10.0896Z" stroke="#221F1F" stroke-linejoin="round"/>
<path d="M10.1091 12.9105C10.1091 13.3415 9.85438 13.6746 9.54092 13.6746C9.22746 13.6746 8.97278 13.322 8.97278 12.9105C8.97278 12.5383 9.16869 12.2248 9.42337 12.1465L10.0503 12.6167C10.0895 12.7146 10.1091 12.8126 10.1091 12.9105Z" fill="#221F1F"/>
<path d="M9.89353 12.8129C9.89353 12.9696 9.79558 13.0871 9.69762 13.0871C9.59966 13.0871 9.50171 12.9696 9.50171 12.8129C9.50171 12.6561 9.59966 12.5386 9.69762 12.5386C9.79558 12.5386 9.89353 12.6561 9.89353 12.8129Z" fill="white"/>
<path d="M9.42334 13.4984C9.20783 13.6747 9.01192 13.8706 8.8356 14.0861C8.75724 14.1841 8.67887 14.3016 8.6201 14.4388C8.56133 14.5563 8.52214 14.6935 8.50255 14.8306C8.48296 14.8894 8.48296 14.9677 8.48296 15.0265V15.1245V15.2224C8.48296 15.3596 8.48296 15.4967 8.48296 15.6534C8.50255 15.7906 8.52214 15.9473 8.54173 16.0844C8.56132 16.1628 8.56133 16.2216 8.58092 16.2999C8.60051 16.3587 8.6201 16.4371 8.65928 16.4959C8.6201 16.4371 8.60051 16.3587 8.56133 16.2999C8.54173 16.2412 8.50255 16.1628 8.48296 16.104C8.44378 15.9669 8.4046 15.8298 8.36541 15.673C8.34582 15.5359 8.32623 15.3792 8.30664 15.242V15.1441V15.0265C8.30664 14.9482 8.30664 14.8698 8.30664 14.811C8.32623 14.6543 8.34582 14.4976 8.4046 14.3604C8.46337 14.2233 8.52214 14.0861 8.60051 13.949C8.77683 13.6943 8.95315 13.4592 9.16865 13.2633C9.24701 13.2045 9.34497 13.2045 9.42334 13.2633C9.48211 13.3025 9.5017 13.42 9.42334 13.4984Z" fill="#221F1F"/>
<path d="M9.28624 13.4396C9.26665 13.4396 9.26665 13.4396 9.24705 13.4396H9.22746H9.18828L9.09033 13.42C9.03155 13.4004 8.97278 13.4004 8.91401 13.4004C8.79646 13.4004 8.65932 13.4004 8.54177 13.4396C8.483 13.4591 8.42423 13.4787 8.36545 13.4983C8.18913 13.5767 8.0324 13.7138 7.93445 13.8706C7.99322 13.7334 8.05199 13.6159 8.14995 13.5179C8.18913 13.4591 8.24791 13.42 8.30668 13.3808C8.36545 13.3416 8.42423 13.3024 8.483 13.2632C8.60055 13.1849 8.73769 13.1457 8.89441 13.1065C8.97278 13.0869 9.03155 13.0869 9.10992 13.0869C9.1491 13.0869 9.18828 13.0869 9.22746 13.0869H9.30583C9.30583 13.0869 9.32542 13.0869 9.30583 13.0869C9.40378 13.0869 9.48215 13.1653 9.50174 13.2632C9.52133 13.3612 9.40378 13.4396 9.28624 13.4396C9.30583 13.4396 9.28624 13.4396 9.28624 13.4396Z" fill="#221F1F"/>
<path d="M14.1252 12.9105C14.1252 13.3415 13.8706 13.6746 13.5767 13.6746C13.2828 13.6746 13.0085 13.322 13.0085 12.9105C13.0085 12.8126 13.0281 12.7146 13.0477 12.6167L13.6746 12.1465C13.9293 12.2248 14.1252 12.5383 14.1252 12.9105Z" fill="#221F1F"/>
<path d="M13.2045 12.8129C13.2045 12.9696 13.3024 13.0871 13.4004 13.0871C13.4983 13.0871 13.5963 12.9696 13.5963 12.8129C13.5963 12.6561 13.4983 12.5386 13.4004 12.5386C13.3024 12.5386 13.2045 12.6561 13.2045 12.8129Z" fill="white"/>
<path d="M13.9292 13.224C14.1447 13.4396 14.3211 13.6551 14.4778 13.9097C14.5562 14.0273 14.6345 14.1644 14.6933 14.3016C14.7521 14.4387 14.7913 14.5954 14.8108 14.7326C14.8304 14.8893 14.8304 15.0264 14.8108 15.1832C14.7913 15.3203 14.7717 15.477 14.7521 15.6142C14.7325 15.7513 14.6933 15.8884 14.6541 16.0256C14.6345 16.0844 14.6149 16.1627 14.5758 16.2215C14.5562 16.2803 14.517 16.3586 14.4778 16.4174C14.4974 16.3586 14.5366 16.2803 14.5562 16.2215C14.5758 16.1627 14.5953 16.0844 14.6149 16.0256C14.6345 15.8884 14.6737 15.7513 14.6737 15.6142C14.6933 15.477 14.6933 15.3399 14.6933 15.1832C14.6933 15.046 14.6737 14.9089 14.6541 14.7718C14.6149 14.6346 14.5758 14.5171 14.517 14.3995C14.4582 14.282 14.3798 14.1644 14.2819 14.0665C14.1056 13.851 13.9097 13.6551 13.6941 13.4787C13.6158 13.4004 13.6158 13.3024 13.6941 13.224C13.7529 13.1653 13.8509 13.1457 13.9292 13.224Z" fill="#221F1F"/>
<path d="M13.8118 13.087H13.9097C13.9489 13.087 13.9881 13.087 14.0273 13.087C14.1057 13.087 14.184 13.087 14.2624 13.1066C14.4191 13.1262 14.5563 13.1654 14.6934 13.2242C14.8305 13.2829 14.9481 13.3809 15.0656 13.4789C15.1636 13.5768 15.2419 13.714 15.3007 13.8315C15.2224 13.714 15.1244 13.616 15.0068 13.5376C14.8893 13.4593 14.7718 13.4005 14.6346 13.3809C14.4975 13.3613 14.3603 13.3613 14.2232 13.3613C14.1644 13.3613 14.0861 13.3809 14.0273 13.3809L13.9293 13.4005H13.8902H13.8706H13.851H13.8314C13.7334 13.4201 13.6355 13.3417 13.6355 13.2438C13.6159 13.1458 13.6942 13.0479 13.7922 13.0479C13.8118 13.0479 13.8118 13.0479 13.8314 13.0479" fill="#221F1F"/>
</g>
</g>
</g>
</g>
<defs>
<clipPath id="clip0_57_9956">
<rect width="23" height="23" fill="white"/>
</clipPath>
<clipPath id="clip1_57_9956">
<rect width="23" height="23" fill="white"/>
</clipPath>
<clipPath id="clip2_57_9956">
<rect width="23" height="23" fill="white"/>
</clipPath>
<clipPath id="clip3_57_9956">
<rect width="23" height="23" fill="white"/>
</clipPath>
</defs>
</svg>
