<svg width="23" height="23" viewBox="0 0 23 23" fill="none" xmlns="http://www.w3.org/2000/svg">
<g clip-path="url(#clip0_57_10112)">
<path d="M11.5 23C17.8513 23 23 17.8513 23 11.5C23 5.14873 17.8513 0 11.5 0C5.14873 0 0 5.14873 0 11.5C0 17.8513 5.14873 23 11.5 23Z" fill="#008DE4"/>
<path d="M4.52551 18.4939C4.52551 18.4743 4.56469 18.2392 4.62347 17.965C4.68224 17.6907 4.74102 17.3576 4.76061 17.2205C4.7802 17.0834 4.83897 16.7699 4.89774 16.4956C4.95652 16.2214 5.01529 15.9079 5.01529 15.7708L5.03488 15.5357H8.24783C10.971 15.5357 11.5 15.5357 11.7742 15.4769C12.3032 15.3985 12.6754 15.3006 13.224 15.0851C13.2828 15.0655 13.4199 14.9871 13.5178 14.9283L13.7138 14.8108C13.7138 14.8108 13.7921 14.752 13.8705 14.6933C13.9489 14.6345 14.0076 14.5757 14.0272 14.5757C14.0468 14.5757 14.1252 14.4973 14.2231 14.3798L14.4778 14.1251C14.517 14.0859 14.5562 14.0467 14.5562 14.0272C14.5562 14.0076 14.5954 13.9684 14.615 13.9292C14.6933 13.8508 15.0264 13.2043 15.0264 13.1456C15.0264 13.126 15.0655 12.9888 15.1243 12.8713C15.1831 12.7341 15.2419 12.5578 15.2615 12.4599C15.281 12.3619 15.3398 12.1072 15.3986 11.8917C15.8688 10.0697 15.7512 8.95305 15.046 8.26736C14.7521 7.97349 14.3603 7.77758 13.8117 7.62085C13.3219 7.48371 13.1456 7.48371 9.77594 7.46412C7.97355 7.44453 6.48463 7.42494 6.46504 7.42494C6.44544 7.40535 6.48463 7.15066 6.70013 5.9556C6.7589 5.60296 6.83727 5.23073 6.85686 5.09359C6.87645 4.95646 6.91563 4.78014 6.93522 4.68218L6.9744 4.50586L10.7947 4.52545C14.8892 4.54504 14.6541 4.52545 15.5161 4.72136C15.9276 4.79973 16.0843 4.8585 16.4173 4.97605C16.7112 5.074 17.2402 5.34828 17.3381 5.42664C17.3773 5.46583 17.4361 5.50501 17.4753 5.50501C17.5536 5.54419 18.0238 5.9556 18.1805 6.13192C18.4156 6.42579 18.494 6.52375 18.6115 6.71966C18.7487 6.95475 18.9446 7.48371 19.023 7.79717C19.1797 8.46327 19.1797 8.46327 19.1797 9.5016C19.1797 10.3636 19.1601 10.5595 19.1013 10.9318C19.0621 11.1668 19.0034 11.4803 18.9838 11.5979C18.8858 12.2248 18.6311 13.1847 18.396 13.8312C18.2785 14.1447 17.9846 14.7912 17.9454 14.85C17.9259 14.8696 17.8671 14.9675 17.8083 15.0851C17.7495 15.183 17.6908 15.3006 17.6712 15.3202C17.6516 15.3398 17.5536 15.4965 17.4361 15.6532C17.103 16.143 16.3977 16.9071 15.9863 17.1813C15.5553 17.4752 15.3006 17.6319 15.046 17.7495C14.6345 17.9454 14.2035 18.1413 14.1448 18.1413C14.1252 18.1413 13.9684 18.1805 13.7921 18.2393C13.6354 18.298 13.4199 18.3568 13.3219 18.3568C13.2436 18.3764 13.0085 18.396 12.8322 18.4352C12.6558 18.4548 12.3032 18.4939 12.0877 18.5135C11.6763 18.5331 4.52551 18.5331 4.52551 18.4939Z" fill="white"/>
<path d="M1.99829 12.9303C1.99829 12.7736 2.4097 11.1867 2.48807 11.0104C2.72316 10.5402 3.09539 10.2267 3.60476 10.0896C3.85945 10.0112 3.91822 10.0112 7.32708 10.0112C9.22742 10.0112 10.7751 10.0112 10.7751 10.0308C10.7751 10.1092 10.4813 11.3042 10.3637 11.7548C10.3049 11.9899 10.0503 12.3818 9.89352 12.5189C9.81516 12.5973 9.63884 12.6952 9.52129 12.754C9.07069 12.9695 9.24701 12.9695 5.46592 12.9695C2.33134 12.9891 1.99829 12.9891 1.99829 12.9303Z" fill="white"/>
<g clip-path="url(#clip1_57_10112)">
<path d="M11.5 23C17.8513 23 23 17.8513 23 11.5C23 5.14873 17.8513 0 11.5 0C5.14873 0 0 5.14873 0 11.5C0 17.8513 5.14873 23 11.5 23Z" fill="#F7F7F7"/>
<path d="M4.34926 12.3227C3.83989 11.4803 3.97703 10.6771 4.46681 9.89342C5.03495 8.99223 5.79901 8.30654 6.62184 7.66003C7.66017 6.83721 8.71809 6.05356 9.85437 5.36787C10.9907 4.68218 11.8135 3.70262 12.3033 2.4292C12.558 3.23244 12.8126 3.99649 12.3033 4.81932C11.4608 6.17111 10.2854 7.20944 9.1295 8.26736C8.6985 8.65918 8.30667 9.0706 7.89526 9.46242C7.75812 9.59956 7.71894 9.77588 7.69935 10.0893C8.14994 9.77588 8.54177 9.52119 8.97277 9.32528C10.1286 8.75714 11.3237 8.24777 12.558 7.89513C13.0673 7.7384 13.5571 7.54249 14.0077 7.2878C14.7913 6.8568 15.477 6.30825 15.6534 5.32869C16.1431 5.91642 16.0648 6.66089 15.477 7.30739C14.4975 8.38491 13.2436 9.09019 11.9702 9.7367C11.2453 10.1089 10.5009 10.4616 9.7956 10.8534C9.38419 11.0689 8.95318 11.206 8.56136 11.4411C8.07158 11.735 7.54262 11.9897 7.13121 12.4403C6.99407 12.3619 6.83734 12.3227 6.68061 12.3227C5.89696 12.3227 5.11332 12.3227 4.34926 12.3227Z" fill="url(#paint0_linear_57_10112)"/>
<path d="M18.7095 12.1271C17.8867 13.6356 16.5545 14.6348 15.2027 15.5948C14.1644 16.3392 13.0477 17.0053 12.0681 17.8281C11.4216 18.3571 10.9906 19.1212 10.6772 19.9636C10.4812 19.1799 10.1678 18.4355 10.6576 17.6126C11.5196 16.1237 12.8322 15.0658 14.0468 13.9099C14.3407 13.6161 14.6542 13.3418 14.948 13.0479C15.1243 12.8716 15.2615 12.6561 15.2419 12.2839C14.3995 12.9108 13.4983 13.283 12.6167 13.714C11.6959 14.145 10.6772 14.3213 9.75637 14.7327C9.16864 14.9874 8.60049 15.2617 8.11071 15.6927C7.6993 16.0454 7.42502 16.4764 7.34666 17.0837C6.97443 16.6919 6.91565 16.2804 7.09197 15.8103C7.2683 15.3009 7.64053 14.9091 8.03235 14.5564C9.36455 13.4201 10.9122 12.6561 12.4599 11.9116C12.5971 12.1075 12.8126 12.0292 12.9889 12.0292C14.6542 12.0292 16.3194 12.0292 17.9846 12.0292C18.2393 12.0292 18.4744 12.0488 18.7095 12.1271Z" fill="url(#paint1_linear_57_10112)"/>
<path d="M18.7096 12.1267C18.4745 12.0484 18.2394 12.0288 18.0043 12.0288C16.3391 12.0288 14.6738 12.0288 13.0086 12.0288C12.8323 12.0288 12.6168 12.1071 12.4796 11.9112C13.0673 11.6174 13.6551 11.3039 14.2624 11.01C15.4183 10.4223 16.3587 9.61907 16.9072 8.42401C16.966 8.28687 17.0052 8.20851 17.1619 8.30646C18.3765 8.99215 19.1602 10.5399 18.9251 11.5586C18.8663 11.7349 18.8076 11.9504 18.7096 12.1267Z" fill="url(#paint2_linear_57_10112)"/>
<path d="M4.34924 12.3228C5.13289 12.3228 5.89694 12.3228 6.68059 12.3032C6.83732 12.3032 6.99405 12.3424 7.13119 12.4208C6.68059 12.9301 6.24958 13.4591 6.01449 14.1448C5.27003 13.6746 4.60393 13.1848 4.34924 12.3228Z" fill="url(#paint3_linear_57_10112)"/>
<g clip-path="url(#clip2_57_10112)">
<path d="M11.509 22.018C17.3129 22.018 22.018 17.3129 22.018 11.509C22.018 5.70503 17.3129 1 11.509 1C5.70503 1 1 5.70503 1 11.509C1 17.3129 5.70503 22.018 11.509 22.018Z" fill="#EFF4F4"/>
<path d="M5.41919 5.02393V10.9521L8.32937 8.04189L5.41919 5.02393Z" fill="url(#paint4_linear_57_10112)"/>
<path d="M14.527 8.04189L17.4372 10.9521V5.02393L14.527 8.04189Z" fill="url(#paint5_linear_57_10112)"/>
<path d="M5.8324 11.563L11.2575 19.5391L8.65276 8.74268L5.8324 11.563Z" fill="url(#paint6_linear_57_10112)"/>
<path d="M11.6348 19.5391L17.0599 11.563L14.2396 8.74268L11.6348 19.5391Z" fill="url(#paint7_linear_57_10112)"/>
<path d="M13.5749 8.6167H11.4372H9.29944L10.3593 13.3053L11.4372 17.976L12.515 13.3053L13.5749 8.6167Z" fill="url(#paint8_linear_57_10112)"/>
</g>
</g>
</g>
<defs>
<linearGradient id="paint0_linear_57_10112" x1="9.85046" y1="3.66918" x2="10.3228" y2="19.3932" gradientUnits="userSpaceOnUse">
<stop stop-color="#FCCB15"/>
<stop offset="1" stop-color="#F05B38"/>
</linearGradient>
<linearGradient id="paint1_linear_57_10112" x1="12.5307" y1="3.58897" x2="13.0031" y2="19.313" gradientUnits="userSpaceOnUse">
<stop stop-color="#FCCB15"/>
<stop offset="1" stop-color="#F05B38"/>
</linearGradient>
<linearGradient id="paint2_linear_57_10112" x1="15.4693" y1="3.50031" x2="15.9417" y2="19.2243" gradientUnits="userSpaceOnUse">
<stop stop-color="#FCCB15"/>
<stop offset="1" stop-color="#F05B38"/>
</linearGradient>
<linearGradient id="paint3_linear_57_10112" x1="5.47944" y1="3.80059" x2="5.95182" y2="19.5246" gradientUnits="userSpaceOnUse">
<stop stop-color="#FCCB15"/>
<stop offset="1" stop-color="#F05B38"/>
</linearGradient>
<linearGradient id="paint4_linear_57_10112" x1="5.41869" y1="7.99049" x2="8.32887" y2="7.99049" gradientUnits="userSpaceOnUse">
<stop stop-color="#A71E22"/>
<stop offset="0.1551" stop-color="#B81F24"/>
<stop offset="0.4908" stop-color="#DA2126"/>
<stop offset="0.6826" stop-color="#EC2227"/>
</linearGradient>
<linearGradient id="paint5_linear_57_10112" x1="14.5265" y1="7.99049" x2="17.4367" y2="7.99049" gradientUnits="userSpaceOnUse">
<stop stop-color="#A71E22"/>
<stop offset="0.1551" stop-color="#B81F24"/>
<stop offset="0.4908" stop-color="#DA2126"/>
<stop offset="0.6826" stop-color="#EC2227"/>
</linearGradient>
<linearGradient id="paint6_linear_57_10112" x1="5.82471" y1="14.1434" x2="11.2499" y2="14.1434" gradientUnits="userSpaceOnUse">
<stop stop-color="#A71E22"/>
<stop offset="0.1551" stop-color="#B81F24"/>
<stop offset="0.4908" stop-color="#DA2126"/>
<stop offset="0.6826" stop-color="#EC2227"/>
</linearGradient>
<linearGradient id="paint7_linear_57_10112" x1="11.6343" y1="14.1434" x2="17.0594" y2="14.1434" gradientUnits="userSpaceOnUse">
<stop stop-color="#A71E22"/>
<stop offset="0.1551" stop-color="#B81F24"/>
<stop offset="0.4908" stop-color="#DA2126"/>
<stop offset="0.6826" stop-color="#EC2227"/>
</linearGradient>
<linearGradient id="paint8_linear_57_10112" x1="9.29175" y1="13.2988" x2="13.5816" y2="13.2988" gradientUnits="userSpaceOnUse">
<stop stop-color="#A71E22"/>
<stop offset="0.1551" stop-color="#B81F24"/>
<stop offset="0.4908" stop-color="#DA2126"/>
<stop offset="0.6826" stop-color="#EC2227"/>
</linearGradient>
<clipPath id="clip0_57_10112">
<rect width="23" height="23" fill="white"/>
</clipPath>
<clipPath id="clip1_57_10112">
<rect width="23" height="23" fill="white"/>
</clipPath>
<clipPath id="clip2_57_10112">
<rect width="21" height="21" fill="white" transform="translate(1 1)"/>
</clipPath>
</defs>
</svg>
