<svg width="17" height="22" viewBox="0 0 17 22" fill="none" xmlns="http://www.w3.org/2000/svg">
<path d="M12.4729 0.442023C12.43 0.39275 10.8841 0.461473 9.53881 1.9617C8.19356 3.46063 8.40052 5.18 8.43081 5.22408C8.46109 5.26817 10.349 5.33689 11.5542 3.59289C12.7593 1.84889 12.5158 0.492592 12.4729 0.442023ZM16.655 15.6557C16.5944 15.5312 13.721 14.0556 13.9885 11.2185C14.256 8.38014 16.1023 7.60215 16.1313 7.51787C16.1603 7.43358 15.3779 6.49351 14.5488 6.01764C13.9401 5.68213 13.2663 5.48991 12.5764 5.45489C12.4401 5.451 11.9668 5.33171 10.9939 5.6053C10.3528 5.78554 8.90783 6.36903 8.51031 6.39237C8.11153 6.41571 6.92528 5.71552 5.64944 5.53009C4.83295 5.36801 3.96724 5.69996 3.34762 5.9554C2.72925 6.20954 1.55311 6.93308 0.730305 8.85601C-0.0924948 10.7777 0.337835 13.8222 0.645754 14.7688C0.953673 15.714 1.43448 17.2635 2.25223 18.3942C2.97912 19.6701 3.94326 20.5557 4.34583 20.8566C4.7484 21.1574 5.88416 21.3571 6.67163 20.9434C7.30513 20.5441 8.44847 20.3145 8.90026 20.3314C9.35078 20.3483 10.2392 20.5311 11.1491 21.0303C11.8697 21.2857 12.5511 21.1794 13.2338 20.8942C13.9166 20.6076 14.9047 19.521 16.0581 17.318C16.496 16.2936 16.6954 15.74 16.655 15.6557Z" fill="white"/>
<path d="M12.4729 0.442023C12.43 0.39275 10.8841 0.461473 9.53881 1.9617C8.19356 3.46063 8.40052 5.18 8.4308 5.22408C8.46109 5.26817 10.349 5.33689 11.5542 3.59289C12.7593 1.84889 12.5158 0.492592 12.4729 0.442023V0.442023ZM16.655 15.6557C16.5944 15.5312 13.721 14.0556 13.9885 11.2185C14.256 8.38014 16.1023 7.60215 16.1313 7.51787C16.1603 7.43358 15.3779 6.49351 14.5488 6.01764C13.9401 5.68213 13.2663 5.48991 12.5764 5.45489C12.4401 5.451 11.9668 5.33171 10.9939 5.6053C10.3528 5.78554 8.90783 6.36903 8.51031 6.39237C8.11153 6.41571 6.92528 5.71552 5.64944 5.53009C4.83295 5.36801 3.96724 5.69996 3.34762 5.9554C2.72925 6.20954 1.55311 6.93308 0.730305 8.85601C-0.0924948 10.7777 0.337835 13.8222 0.645754 14.7688C0.953673 15.714 1.43448 17.2635 2.25223 18.3942C2.97912 19.6701 3.94326 20.5557 4.34583 20.8566C4.7484 21.1574 5.88416 21.3571 6.67163 20.9434C7.30513 20.5441 8.44847 20.3145 8.90025 20.3314C9.35078 20.3483 10.2392 20.5311 11.1491 21.0303C11.8697 21.2857 12.5511 21.1794 13.2338 20.8942C13.9166 20.6076 14.9047 19.521 16.0581 17.318C16.496 16.2936 16.6954 15.74 16.655 15.6557V15.6557Z" fill="white"/>
</svg>
