<svg width="41" height="41" viewBox="0 0 41 41" fill="none" xmlns="http://www.w3.org/2000/svg">
<path d="M13.9138 23.0486H14.137L13.4505 22.2278C12.0223 20.5203 11.1569 18.2936 11.1569 15.8548C11.1569 10.4573 15.3896 6.10938 20.5772 6.10938C25.7647 6.10938 29.9974 10.4572 29.9974 15.8548C29.9974 18.2936 29.132 20.5203 27.7038 22.2278L27.0173 23.0486H27.2117L25.3351 26.2278L25.3254 26.2444L25.3169 26.2616C25.2825 26.3317 25.2498 26.3987 25.2185 26.4628C25.0083 26.8939 24.8626 27.1926 24.6856 27.4079C24.5216 27.6074 24.3517 27.7088 24.0389 27.7088H16.9636C16.7874 27.7088 16.6746 27.6779 16.5939 27.6381C16.5127 27.5981 16.4338 27.5343 16.3459 27.4252C16.2543 27.3115 16.1626 27.1612 16.0518 26.9565C15.999 26.8589 15.9447 26.7545 15.8849 26.6394L15.8783 26.6268C15.8166 26.508 15.7496 26.3794 15.6767 26.2444L15.6767 26.2444L15.6746 26.2405L13.9138 23.0486Z" fill="#494475" stroke="#3D3964"/>
<path d="M11.2706 17.1025C11.2706 11.2553 15.6778 6.42258 21.3992 5.64798C21.1137 5.62247 20.8273 5.60959 20.5407 5.60938C15.0619 5.60938 10.6205 10.1964 10.6205 15.8548C10.6205 17.7168 11.1019 19.4625 11.9425 20.9671C11.5075 19.7587 11.2706 18.4578 11.2706 17.1025Z" fill="#3D3964"/>
<path d="M30.4974 15.8767C30.4974 13.85 29.9274 11.9609 28.9443 10.3706C29.1547 11.201 29.2612 12.0544 29.2612 12.9111C29.2612 19.6435 22.7425 25.1264 14.5993 25.3484L15.2367 26.504C15.8035 27.5533 16.0139 28.2308 16.9636 28.2308H24.0389C24.9886 28.2308 25.268 27.5173 25.7657 26.504L28.0874 22.5706H28.0873C29.589 20.7751 30.4974 18.4355 30.4974 15.8767Z" fill="#3D3964"/>
<path d="M24.7478 17.1305C24.7574 17.1221 24.7669 17.1143 24.7766 17.105C24.9562 16.9332 25.1042 16.659 24.9804 16.4046C24.4725 15.362 22.9198 15.0313 21.7884 15.3765C21.7311 15.394 21.6755 15.413 21.6216 15.4336C21.0053 15.0737 20.2401 14.9872 19.559 15.2036C19.4784 15.2291 19.3992 15.2591 19.3219 15.2934C18.9491 15.0755 18.5129 14.9669 18.0784 15.0089C17.1688 15.0969 16.3784 15.8345 16.2218 16.7332L16.1501 16.7775C16.77 17.7792 18.4015 20.6493 18.506 21.8843C18.6378 23.4424 18.5062 27.6718 18.5048 27.7143L19.2779 27.7387C19.2834 27.5632 19.4123 23.4218 19.2766 21.8191C19.2162 21.1045 18.7789 19.9655 17.977 18.4339C17.6027 17.719 17.2393 17.0914 17.0194 16.721C17.1715 16.2282 17.6388 15.8285 18.1528 15.7788C18.3094 15.7637 18.4682 15.7812 18.6202 15.8258C18.563 15.899 18.5129 15.9775 18.4707 16.0603C18.2098 16.5717 18.3188 17.2138 18.7241 17.554C18.9642 17.7554 19.3131 17.8296 19.6347 17.7474C19.9342 17.6708 20.1657 17.474 20.2698 17.2073C20.3633 16.9677 20.3554 16.6911 20.2461 16.3852C20.1829 16.2092 20.095 16.0431 19.9851 15.8918C20.277 15.8356 20.5783 15.8521 20.8623 15.9397C20.7518 16.067 20.6672 16.2087 20.6116 16.3623C20.4927 16.6911 20.5453 17.0818 20.7487 17.3821C20.9241 17.6409 21.1906 17.7948 21.4802 17.8043C21.4898 17.8046 21.4996 17.8048 21.5092 17.8048C21.7628 17.8048 22.0035 17.6958 22.1899 17.4956C22.4089 17.2606 22.5203 16.9342 22.488 16.6227C22.4674 16.4246 22.3969 16.2309 22.2835 16.0512C23.0722 15.9079 23.8436 16.1743 24.1773 16.5788C23.9759 16.9139 23.5623 17.6171 23.1346 18.4341C22.3327 19.9657 21.8954 21.1047 21.835 21.8192C21.6994 23.4219 21.8283 27.5633 21.8338 27.7388L22.6068 27.7144C22.6054 27.6719 22.4738 23.4428 22.6056 21.8844C22.6996 20.7726 24.0308 18.3366 24.7478 17.1305ZM19.5492 16.9261C19.5312 16.9723 19.4634 16.9928 19.4431 16.9981C19.3625 17.0186 19.2713 17.0036 19.2212 16.9616C19.0913 16.8527 19.0631 16.6008 19.1595 16.4117C19.1912 16.3509 19.2313 16.2948 19.2788 16.2452C19.3826 16.3631 19.4652 16.4983 19.5177 16.6454C19.5606 16.7653 19.572 16.8677 19.5492 16.9261ZM21.624 16.9683C21.6013 16.9925 21.5553 17.0322 21.5054 17.0312C21.4519 17.0294 21.4095 16.9784 21.3889 16.9481C21.3249 16.8536 21.3043 16.7208 21.3389 16.6253C21.3787 16.515 21.4556 16.4249 21.5453 16.3523C21.6452 16.4652 21.7065 16.5865 21.7186 16.7025C21.7279 16.7909 21.6898 16.8976 21.624 16.9683Z" fill="#504C7F"/>
<path d="M24.3628 29.9556H16.7551C16.3297 29.9556 15.9816 30.3036 15.9816 30.729V31.1774C15.9816 31.6028 16.3297 31.9508 16.7551 31.9508H19.2121C18.4795 32.2234 17.7059 32.8716 17.7059 33.6231V33.9248C18.2939 34.5857 18.8415 35.7347 19.8846 35.7347H21.2955C22.1171 35.7347 22.7008 34.8477 23.4118 33.9248V33.6231C23.4118 32.8716 22.6738 32.2234 21.9586 31.9508H24.3628C24.7882 31.9508 25.1362 31.6028 25.1362 31.1774V30.729C25.1362 30.3036 24.7882 29.9556 24.3628 29.9556Z" fill="#6B83A5"/>
<path d="M24.909 29.9552H16.2089C15.7835 29.9552 15.4355 29.6072 15.4355 29.1818V28.7334C15.4355 28.308 15.7835 27.96 16.2089 27.96H24.909C25.3344 27.96 25.6824 28.308 25.6824 28.7334V29.1818C25.6824 29.6072 25.3344 29.9552 24.909 29.9552ZM24.4574 33.1724V32.724C24.4574 32.2986 24.1093 31.9506 23.6839 31.9506H17.434C17.0086 31.9506 16.6605 32.2986 16.6605 32.724V33.1724C16.6605 33.5978 17.0086 33.9459 17.434 33.9459H23.6839C24.1093 33.9459 24.4574 33.5978 24.4574 33.1724Z" fill="#ABBDDB"/>
<circle cx="20.5" cy="20.5" r="20" stroke="url(#paint0_linear_184_2934)"/>
<defs>
<linearGradient id="paint0_linear_184_2934" x1="20.5" y1="0" x2="20.5" y2="41" gradientUnits="userSpaceOnUse">
<stop stop-color="#3F75FF"/>
<stop offset="1" stop-color="#A966FF"/>
</linearGradient>
</defs>
</svg>
