<svg width="41" height="41" viewBox="0 0 41 41" fill="none" xmlns="http://www.w3.org/2000/svg">
<circle cx="20.5" cy="20.5" r="20" stroke="url(#paint0_linear_184_7729)"/>
<path d="M9.548 25C9.396 25 9.272 24.956 9.176 24.868C9.088 24.78 9.044 24.664 9.044 24.52V17.02C9.044 16.876 9.088 16.76 9.176 16.672C9.272 16.584 9.396 16.54 9.548 16.54H14.036C14.18 16.54 14.292 16.576 14.372 16.648C14.452 16.72 14.492 16.82 14.492 16.948C14.492 17.076 14.452 17.176 14.372 17.248C14.292 17.32 14.18 17.356 14.036 17.356H10.016V20.296H13.796C13.94 20.296 14.052 20.332 14.132 20.404C14.212 20.476 14.252 20.576 14.252 20.704C14.252 20.832 14.212 20.932 14.132 21.004C14.052 21.076 13.94 21.112 13.796 21.112H10.016V24.184H14.036C14.18 24.184 14.292 24.22 14.372 24.292C14.452 24.356 14.492 24.456 14.492 24.592C14.492 24.72 14.452 24.82 14.372 24.892C14.292 24.964 14.18 25 14.036 25H9.548ZM22.3524 16.48C22.4964 16.48 22.6084 16.528 22.6884 16.624C22.7684 16.712 22.8084 16.832 22.8084 16.984V24.556C22.8084 24.708 22.7644 24.832 22.6764 24.928C22.5964 25.016 22.4804 25.06 22.3284 25.06C22.1764 25.06 22.0444 24.992 21.9324 24.856L16.9524 18.196V24.556C16.9524 24.708 16.9084 24.832 16.8204 24.928C16.7404 25.016 16.6284 25.06 16.4844 25.06C16.3404 25.06 16.2284 25.016 16.1484 24.928C16.0684 24.832 16.0284 24.708 16.0284 24.556V16.984C16.0284 16.832 16.0684 16.712 16.1484 16.624C16.2364 16.528 16.3564 16.48 16.5084 16.48C16.6684 16.48 16.8044 16.548 16.9164 16.684L21.8844 23.344V16.984C21.8844 16.832 21.9244 16.712 22.0044 16.624C22.0924 16.528 22.2084 16.48 22.3524 16.48ZM31.1875 20.596C31.3075 20.596 31.4035 20.632 31.4755 20.704C31.5555 20.776 31.5955 20.876 31.5955 21.004V23.992C31.5955 24.184 31.5635 24.328 31.4995 24.424C31.4435 24.52 31.3355 24.596 31.1755 24.652C30.8555 24.788 30.4675 24.896 30.0115 24.976C29.5555 25.056 29.0995 25.096 28.6435 25.096C27.8035 25.096 27.0795 24.924 26.4715 24.58C25.8635 24.236 25.3955 23.74 25.0675 23.092C24.7475 22.444 24.5875 21.668 24.5875 20.764C24.5875 19.876 24.7475 19.108 25.0675 18.46C25.3875 17.812 25.8475 17.316 26.4475 16.972C27.0475 16.62 27.7515 16.444 28.5595 16.444C29.1195 16.444 29.6395 16.532 30.1195 16.708C30.5995 16.876 31.0035 17.12 31.3315 17.44C31.4675 17.576 31.5355 17.716 31.5355 17.86C31.5355 17.972 31.5035 18.072 31.4395 18.16C31.3755 18.24 31.2955 18.28 31.1995 18.28C31.1035 18.28 30.9915 18.232 30.8635 18.136C30.4475 17.816 30.0715 17.596 29.7355 17.476C29.3995 17.348 29.0115 17.284 28.5715 17.284C27.6195 17.284 26.8875 17.584 26.3755 18.184C25.8715 18.784 25.6195 19.644 25.6195 20.764C25.6195 21.908 25.8755 22.78 26.3875 23.38C26.9075 23.972 27.6675 24.268 28.6675 24.268C29.4115 24.268 30.0875 24.156 30.6955 23.932V21.364H28.9435C28.8075 21.364 28.6995 21.328 28.6195 21.256C28.5395 21.184 28.4995 21.092 28.4995 20.98C28.4995 20.86 28.5395 20.768 28.6195 20.704C28.6995 20.632 28.8075 20.596 28.9435 20.596H31.1875Z" fill="white"/>
<defs>
<linearGradient id="paint0_linear_184_7729" x1="20.5" y1="0" x2="20.5" y2="41" gradientUnits="userSpaceOnUse">
<stop stop-color="#6D7EAB"/>
<stop offset="1" stop-color="#B2B0C7"/>
</linearGradient>
</defs>
</svg>
