<svg width="113" height="24" viewBox="0 0 113 24" fill="none" xmlns="http://www.w3.org/2000/svg">
<g clip-path="url(#clip0_179_2748)">
<path d="M10.3568 15.4147C10.5417 15.4147 10.5417 15.4147 10.3568 15.4147L10.5417 18.3415C10.5417 18.5367 10.5417 18.5367 10.3568 18.5367H5.73322C4.80851 18.5367 4.06874 18.3415 3.32897 17.9513C2.5892 17.561 2.03437 17.1708 1.47954 16.5854C0.924714 16.0001 0.554828 15.4147 0.369885 14.8293C0.184943 14.244 0 13.4635 0 12.8781V10.7318C0 9.75617 0.184943 8.97568 0.369885 8.39032C0.554828 7.60983 0.924714 7.02446 1.47954 6.63422C2.03437 6.04885 2.5892 5.85373 3.32897 5.46349C4.06874 5.26836 4.99345 5.07324 6.10311 5.07324H10.3568C10.5417 5.07324 10.5417 5.07324 10.5417 5.26836V8.00007C10.5417 8.19519 10.5417 8.19519 10.3568 8.19519H5.73322C4.80851 8.19519 4.06874 8.58544 3.69885 9.1708C3.14403 9.75617 2.95908 10.5367 2.95908 11.5123V12.4879C2.95908 13.2684 3.14403 14.0489 3.69885 14.6342C4.06874 15.2196 4.80851 15.4147 5.91817 15.4147H10.3568Z" fill="white"/>
<path d="M24.7823 13.4635C24.7823 14.4391 24.7823 15.4147 24.5973 16.0001C24.4124 16.5854 24.2274 17.1708 23.8576 17.561C23.4877 17.9513 23.1178 18.1464 22.563 18.3415C22.0081 18.5367 21.4533 18.5367 20.7135 18.5367H16.09C15.3502 18.5367 14.7954 18.3415 14.2405 18.1464C13.6857 17.9513 13.3158 17.561 13.1309 16.9757C12.761 16.5854 12.5761 16.0001 12.5761 15.4147C12.3911 14.8293 12.3911 14.244 12.3911 13.6586V9.1708C12.3911 8.58544 12.5761 8.00007 12.761 7.41471C12.9459 6.82934 13.3158 6.4391 13.5008 6.04885C13.8707 5.65861 14.2405 5.46349 14.7954 5.26836C15.3502 5.07324 15.7201 5.07324 16.2749 5.07324H21.2684C21.6382 5.07324 22.1931 5.07324 22.563 5.26836C22.9328 5.46349 23.4877 5.65861 23.8576 6.04885C24.2274 6.4391 24.4124 6.82934 24.7823 7.21958C24.9672 7.60983 25.1522 8.19519 25.1522 8.78056V13.4635H24.7823ZM21.8232 9.56105C21.8232 9.36592 21.8232 9.1708 21.6382 8.97568C21.4533 8.78056 21.2684 8.58544 21.0834 8.58544C20.8985 8.58544 20.7135 8.39032 20.3437 8.39032C20.1587 8.39032 19.7888 8.39032 19.6039 8.39032H17.0147C16.8297 8.39032 16.6448 8.39032 16.4599 8.39032C16.2749 8.39032 16.09 8.58544 15.905 8.58544C15.7201 8.78056 15.5351 8.78056 15.5351 8.97568C15.3502 9.1708 15.3502 9.36592 15.3502 9.56105V13.6586C15.3502 14.0489 15.3502 14.244 15.5351 14.4391C15.7201 14.6342 15.905 14.8293 16.09 15.0245C16.2749 15.2196 16.4599 15.2196 16.8297 15.2196C17.0147 15.2196 17.3846 15.2196 17.5695 15.2196H19.6039C20.1587 15.2196 20.7135 15.0245 21.0834 14.8293C21.4533 14.6342 21.8232 14.244 21.8232 13.6586V11.5123V9.56105Z" fill="white"/>
<path d="M26.8168 0H29.406C29.5909 0 29.5909 0 29.5909 0.195122V2.92683C29.5909 3.12195 29.5909 3.12195 29.406 3.12195H26.8168C26.6318 3.12195 26.6318 3.12195 26.6318 2.92683V0.195122C26.6318 0.195122 26.6318 0 26.8168 0ZM26.6318 5.46342C26.6318 5.26829 26.6318 5.26829 26.8168 5.26829H29.406C29.5909 5.26829 29.5909 5.26829 29.5909 5.46342V18.3415C29.5909 18.5366 29.5909 18.5366 29.406 18.5366H26.8168C26.6318 18.5366 26.6318 18.5366 26.6318 18.3415V5.46342Z" fill="white"/>
<path d="M34.7693 17.756C34.7693 18.3413 34.5843 18.5365 34.0295 18.5365H32.365C32.1801 18.5365 31.9951 18.3413 31.8102 18.1462C31.6252 17.9511 31.6252 17.756 31.6252 17.3657V6.63403C31.6252 6.24378 31.8102 5.85354 32.1801 5.4633C32.55 5.07305 32.9198 4.87793 33.4747 4.87793H39.023C39.5778 4.87793 40.1326 5.07305 40.6874 5.26817C41.2423 5.4633 41.6122 5.85354 41.982 6.24378C42.3519 6.63403 42.7218 7.21939 42.9068 7.60964C43.0917 7.99988 43.2766 8.78037 43.2766 9.36573V18.3413C43.2766 18.5365 43.2766 18.5365 43.0917 18.5365H40.6874C40.5025 18.5365 40.5025 18.5365 40.5025 18.3413V10.1462C40.5025 9.75598 40.5025 9.36573 40.3175 9.17061C40.1326 8.97549 39.9477 8.58525 39.7627 8.58525C39.5778 8.39012 39.2079 8.39012 39.023 8.195C38.838 7.99988 38.4681 8.195 38.0982 8.195H35.694C35.509 8.195 35.3241 8.195 35.1392 8.39013C34.9542 8.58525 34.7693 8.58525 34.7693 8.58525V17.756Z" fill="white"/>
<path d="M58.6268 5.07324C58.8117 5.07324 58.8117 5.07324 58.6268 5.07324L58.8117 8.00007C58.8117 8.19519 58.8117 8.19519 58.6268 8.19519H56.2225C56.0376 8.19519 55.8527 8.19519 55.8527 8.39032C55.6677 8.39032 55.6677 8.58544 55.4828 8.78056C55.2978 8.97568 55.2978 8.97568 55.2978 9.1708C55.2978 9.36592 55.2978 9.36592 55.2978 9.56105V18.3415C55.2978 18.5367 55.2978 18.5367 55.1129 18.5367H52.3387C52.1538 18.5367 52.1538 18.5367 52.1538 18.3415V8.58544C52.1538 8.19519 52.1538 7.60983 52.3387 7.21958C52.5237 6.82934 52.7086 6.4391 53.0785 6.04885C53.4484 5.65861 53.6333 5.46349 54.1882 5.26836C54.743 5.07324 54.9279 5.07324 55.4828 5.07324C55.4828 5.07324 58.6268 5.07324 58.6268 5.07324Z" fill="white"/>
<path d="M60.8461 5.07324H67.689C68.2438 5.07324 68.7986 5.26836 69.3535 5.46349C69.7233 5.65861 70.0932 6.04885 70.4631 6.63422C70.6481 7.02446 71.0179 7.60983 71.0179 8.19519C71.2029 8.78056 71.2029 9.36592 71.2029 9.75617V18.3415C71.2029 18.5367 71.2029 18.5367 71.0179 18.5367H62.5106C61.9558 18.5367 61.5859 18.3415 61.216 18.1464C60.8461 17.7562 60.6612 17.3659 60.4762 16.9757C60.2913 16.5854 60.1063 16.1952 60.1063 15.6098C60.1063 15.2196 59.9214 14.8293 59.9214 14.6342C59.9214 14.244 59.9214 13.8537 60.1063 13.2684C60.2913 12.683 60.2913 12.2928 60.6612 11.9025C60.8461 11.5123 61.216 11.122 61.5859 10.7318C61.9558 10.3415 62.3256 10.3415 62.8805 10.3415H66.9492C67.3191 10.3415 67.689 10.1464 68.0589 9.95129C68.2438 9.75617 68.4287 9.56105 68.4287 9.1708C68.4287 8.97568 68.4288 8.78056 68.2438 8.39032C68.0589 8.00007 67.8739 8.00007 67.689 8.00007H61.216C61.031 8.00007 61.031 8.00007 61.031 7.80495L60.8461 5.07324C60.6612 5.26836 60.8461 5.07324 60.8461 5.07324ZM68.0589 15.6098C68.2438 15.6098 68.2438 15.6098 68.0589 15.6098L68.2438 13.8537C68.2438 13.6586 68.2438 13.6586 68.0589 13.6586H63.6202C63.4353 13.6586 63.2503 13.8537 63.0654 14.0489C62.8805 14.244 62.8805 14.4391 62.8805 14.6342C62.8805 15.0245 62.8805 15.2196 63.0654 15.4147C63.2503 15.6098 63.4353 15.8049 63.8052 15.8049H68.0589V15.6098Z" fill="white"/>
<path d="M76.1963 17.7562C76.1963 18.3415 76.0114 18.5367 75.4565 18.5367H73.7921C73.6071 18.5367 73.4222 18.3415 73.2372 18.1464C73.0523 17.9513 73.2372 17.9513 73.2372 17.561V6.82934C73.2372 6.4391 73.4222 6.04885 73.7921 5.65861C74.1619 5.26836 74.5318 5.07324 75.0867 5.07324H80.6349C81.1898 5.07324 81.7446 5.26836 82.2994 5.46349C82.8543 5.65861 83.2241 6.04885 83.594 6.4391C83.9639 6.82934 84.3338 7.41471 84.5187 7.80495C84.7037 8.19519 84.8886 8.97568 84.8886 9.56105V18.3415C84.8886 18.5367 84.8886 18.5367 84.7037 18.5367H82.2994C82.1145 18.5367 82.1145 18.5367 82.1145 18.3415V10.1464C82.1145 9.75617 82.1145 9.36592 81.9295 9.1708C81.7446 8.97568 81.5597 8.58544 81.3747 8.58544C81.1898 8.39032 80.8199 8.39031 80.6349 8.19519C80.45 8.00007 80.0801 8.19519 79.7102 8.19519H76.9361C76.7511 8.19519 76.5662 8.19519 76.3813 8.39032C76.1963 8.58544 76.1963 8.58544 76.1963 8.58544V17.7562Z" fill="white"/>
<path d="M88.0328 21.0731H94.6907C94.8756 21.0731 95.0606 21.0731 95.2455 20.878C95.4305 20.6829 95.4305 20.6829 95.4305 20.4878C95.4305 20.2926 95.4305 20.0975 95.6154 19.9024C95.6154 19.7073 95.6154 19.5122 95.6154 19.317V18.7317H91.9166C91.3617 18.7317 90.622 18.5365 90.0671 18.3414C89.5123 18.1463 88.9575 17.5609 88.4026 17.1707C87.8478 16.7805 87.4779 16 87.108 15.2195C86.7382 14.439 86.5532 13.4634 86.5532 12.4878V10.7317C86.5532 9.95118 86.7382 9.36582 86.9231 8.78045C87.1081 8.19509 87.4779 7.60972 87.8478 7.02435C88.2177 6.43899 88.7725 6.04874 89.5123 5.85362C90.0671 5.46338 90.9918 5.46338 91.7316 5.46338H97.2799C97.6498 5.46338 98.0197 5.6585 98.2046 5.85362C98.3896 6.04874 98.5745 6.43899 98.5745 6.82923V20.2926C98.5745 20.6829 98.5745 21.0731 98.3896 21.4634C98.2046 21.8536 98.0197 22.2439 97.6498 22.6341C97.2799 23.0244 97.095 23.2195 96.5401 23.6097C96.1702 23.8048 95.8004 24 95.2455 24H87.8478C87.6629 24 87.6629 24 87.6629 23.8048V21.4634C87.8478 21.0731 87.8478 21.0731 88.0328 21.0731ZM90.0671 13.4634C90.2521 13.8536 90.437 14.2439 90.622 14.6341C90.9918 15.0244 91.3617 15.2195 91.7316 15.2195C92.2864 15.4146 92.8413 15.4146 93.581 15.4146H95.2455C95.4305 15.4146 95.4305 15.4146 95.4305 15.2195V8.58533C95.4305 8.39021 95.4305 8.39021 95.2455 8.39021H92.1015C91.3617 8.39021 90.8069 8.58533 90.437 9.1707C90.0671 9.75606 89.8822 10.5366 89.8822 11.317V11.9024C89.8822 12.6829 89.8822 13.0731 90.0671 13.4634Z" fill="white"/>
<path d="M112.63 13.4635C112.63 14.4391 112.63 15.4147 112.445 16.0001C112.26 16.5854 112.075 17.1708 111.705 17.561C111.151 17.9513 110.781 18.3415 110.226 18.3415C109.671 18.5367 109.116 18.5367 108.376 18.5367H103.938C103.198 18.5367 102.643 18.3415 102.088 18.1464C101.534 17.9513 101.164 17.561 100.979 16.9757C100.609 16.5854 100.424 16.0001 100.424 15.4147C100.239 14.8293 100.239 14.244 100.239 13.6586V9.1708C100.239 8.58544 100.424 8.00007 100.609 7.41471C100.794 6.82934 101.164 6.4391 101.349 6.04885C101.719 5.65861 102.088 5.46349 102.643 5.26836C103.198 5.07324 103.568 5.07324 104.123 5.07324H109.116C109.486 5.07324 110.041 5.07324 110.411 5.26836C110.781 5.46349 111.336 5.65861 111.705 6.04885C112.075 6.4391 112.26 6.82934 112.63 7.21958C112.815 7.60983 113 8.19519 113 8.78056V13.4635H112.63ZM109.486 9.56105C109.486 9.36592 109.486 9.1708 109.301 8.97568C109.116 8.78056 108.931 8.58544 108.746 8.58544C108.561 8.58544 108.376 8.39032 108.007 8.39032C107.822 8.39032 107.452 8.39032 107.267 8.39032H104.678C104.493 8.39032 104.308 8.39032 104.123 8.39032C103.938 8.39032 103.753 8.58544 103.568 8.58544C103.383 8.78056 103.198 8.78056 103.198 8.97568C103.013 9.1708 103.013 9.36592 103.013 9.56105V13.6586C103.013 14.0489 103.013 14.244 103.198 14.4391C103.383 14.6342 103.568 14.8293 103.753 15.0245C103.938 15.2196 104.123 15.2196 104.493 15.2196C104.678 15.2196 105.048 15.2196 105.232 15.2196H107.452C108.007 15.2196 108.561 15.0245 108.931 14.8293C109.301 14.6342 109.671 14.244 109.671 13.6586V11.5123V9.56105H109.486Z" fill="white"/>
</g>
<defs>
<clipPath id="clip0_179_2748">
<rect width="113" height="24" fill="white"/>
</clipPath>
</defs>
</svg>
