<svg width="20" height="21" viewBox="0 0 20 21" fill="none" xmlns="http://www.w3.org/2000/svg">
<g clip-path="url(#clip0_179_2710)">
<path d="M17.5 7.87495C16.8125 7.87495 16.25 8.46558 16.25 9.18745V14.4375C16.25 15.1593 16.8125 15.75 17.5 15.75C18.1875 15.75 18.75 15.1593 18.75 14.4375V9.18745C18.75 8.46558 18.1875 7.87495 17.5 7.87495ZM2.5 7.87495C1.8125 7.87495 1.25 8.46558 1.25 9.18745V14.4375C1.25 15.1593 1.8125 15.75 2.5 15.75C3.1875 15.75 3.75 15.1593 3.75 14.4375V9.18745C3.75 8.46558 3.1875 7.87495 2.5 7.87495ZM4.375 15.0937C4.375 15.6158 4.57254 16.1166 4.92417 16.4858C5.27581 16.855 5.75272 17.0625 6.25 17.0625V19.6875C6.25 20.4093 6.8125 21 7.5 21C8.1875 21 8.75 20.4093 8.75 19.6875V17.0625H11.25V19.6875C11.25 20.4093 11.8125 21 12.5 21C13.1875 21 13.75 20.4093 13.75 19.6875V17.0625C14.2473 17.0625 14.7242 16.855 15.0758 16.4858C15.4275 16.1166 15.625 15.6158 15.625 15.0937V7.87495H4.375V15.0937ZM15.59 6.56245C15.4974 5.69374 15.2223 4.85743 14.7846 4.11388C14.3469 3.37032 13.7574 2.73806 13.0587 2.2627L13.6837 0.948891C13.7578 0.793118 13.77 0.612819 13.7175 0.447658C13.665 0.282497 13.5521 0.146003 13.4037 0.0682039C13.2554 -0.00959574 13.0837 -0.0223282 12.9264 0.0328075C12.7691 0.0879432 12.6391 0.206431 12.565 0.362204L11.9375 1.67995L11.775 1.6117C10.6226 1.20972 9.37737 1.20972 8.225 1.6117L8.0625 1.67995L7.435 0.362204C7.36091 0.206431 7.23091 0.0879432 7.07362 0.0328075C6.91632 -0.0223282 6.74461 -0.00959572 6.59625 0.0682039C6.44789 0.146003 6.33505 0.282497 6.28254 0.447658C6.23003 0.612819 6.24216 0.793118 6.31625 0.948891L6.94125 2.2627C6.24253 2.73799 5.65302 3.37023 5.21529 4.1138C4.77755 4.85737 4.5025 5.69371 4.41 6.56245V7.2187H15.625V6.56245H15.59ZM8.125 5.24995C7.95924 5.25013 7.8002 5.18115 7.68288 5.05821C7.56555 4.93526 7.49954 4.76841 7.49937 4.59436C7.49921 4.42031 7.5649 4.25332 7.68199 4.13013C7.79908 4.00694 7.95799 3.93763 8.12375 3.93745H8.12625C8.29201 3.93763 8.45092 4.00694 8.56801 4.13013C8.6851 4.25332 8.75079 4.42031 8.75063 4.59436C8.75046 4.76841 8.68445 4.93526 8.56712 5.05821C8.4498 5.18115 8.29076 5.25013 8.125 5.24995ZM11.875 5.24995C11.7092 5.25013 11.5502 5.18115 11.4329 5.05821C11.3155 4.93526 11.2495 4.76841 11.2494 4.59436C11.2492 4.42031 11.3149 4.25332 11.432 4.13013C11.5491 4.00694 11.708 3.93763 11.8737 3.93745H11.8775C12.0433 3.93763 12.2022 4.00694 12.3193 4.13013C12.4364 4.25332 12.502 4.42031 12.5019 4.59436C12.5017 4.76841 12.4357 4.93526 12.3184 5.05821C12.201 5.18115 12.042 5.25013 11.8763 5.24995H11.875Z" fill="white"/>
</g>
<defs>
<clipPath id="clip0_179_2710">
<rect width="20" height="21" fill="white"/>
</clipPath>
</defs>
</svg>
