<svg width="41" height="41" viewBox="0 0 41 41" fill="none" xmlns="http://www.w3.org/2000/svg">
<circle cx="20.5" cy="20.5" r="20" stroke="url(#paint0_linear_184_7732)"/>
<path d="M13.344 25.096C12.24 25.096 11.404 24.808 10.836 24.232C10.268 23.656 9.984 22.808 9.984 21.688V16.984C9.984 16.832 10.028 16.712 10.116 16.624C10.204 16.528 10.324 16.48 10.476 16.48C10.62 16.48 10.736 16.528 10.824 16.624C10.912 16.712 10.956 16.832 10.956 16.984V21.772C10.956 22.596 11.156 23.216 11.556 23.632C11.964 24.048 12.56 24.256 13.344 24.256C14.128 24.256 14.72 24.048 15.12 23.632C15.52 23.216 15.72 22.596 15.72 21.772V16.984C15.72 16.832 15.764 16.712 15.852 16.624C15.948 16.528 16.068 16.48 16.212 16.48C16.364 16.48 16.484 16.528 16.572 16.624C16.66 16.712 16.704 16.832 16.704 16.984V21.688C16.704 22.8 16.416 23.648 15.84 24.232C15.272 24.808 14.44 25.096 13.344 25.096ZM21.4276 25.096C20.8276 25.096 20.2516 25.008 19.6996 24.832C19.1556 24.648 18.7196 24.404 18.3916 24.1C18.2716 23.988 18.2116 23.848 18.2116 23.68C18.2116 23.568 18.2436 23.472 18.3076 23.392C18.3716 23.304 18.4476 23.26 18.5356 23.26C18.6396 23.26 18.7516 23.304 18.8716 23.392C19.6156 23.968 20.4636 24.256 21.4156 24.256C22.1036 24.256 22.6316 24.124 22.9996 23.86C23.3676 23.596 23.5516 23.22 23.5516 22.732C23.5516 22.452 23.4636 22.228 23.2876 22.06C23.1116 21.884 22.8796 21.744 22.5916 21.64C22.3036 21.536 21.9156 21.428 21.4276 21.316C20.7716 21.164 20.2316 21.004 19.8076 20.836C19.3916 20.668 19.0516 20.428 18.7876 20.116C18.5316 19.804 18.4036 19.396 18.4036 18.892C18.4036 18.412 18.5316 17.988 18.7876 17.62C19.0516 17.244 19.4156 16.956 19.8796 16.756C20.3516 16.548 20.8876 16.444 21.4876 16.444C22.0476 16.444 22.5676 16.532 23.0476 16.708C23.5356 16.876 23.9436 17.12 24.2716 17.44C24.3996 17.568 24.4636 17.708 24.4636 17.86C24.4636 17.972 24.4316 18.072 24.3676 18.16C24.3036 18.24 24.2276 18.28 24.1396 18.28C24.0516 18.28 23.9356 18.236 23.7916 18.148C23.3996 17.828 23.0356 17.604 22.6996 17.476C22.3636 17.348 21.9596 17.284 21.4876 17.284C20.8236 17.284 20.3076 17.424 19.9396 17.704C19.5716 17.976 19.3876 18.36 19.3876 18.856C19.3876 19.28 19.5476 19.6 19.8676 19.816C20.1956 20.024 20.6956 20.208 21.3676 20.368C22.0956 20.544 22.6676 20.708 23.0836 20.86C23.4996 21.004 23.8436 21.224 24.1156 21.52C24.3956 21.816 24.5356 22.212 24.5356 22.708C24.5356 23.18 24.4036 23.596 24.1396 23.956C23.8836 24.316 23.5196 24.596 23.0476 24.796C22.5756 24.996 22.0356 25.096 21.4276 25.096ZM26.6378 25C26.4858 25 26.3618 24.956 26.2658 24.868C26.1778 24.78 26.1338 24.664 26.1338 24.52V17.02C26.1338 16.876 26.1778 16.76 26.2658 16.672C26.3618 16.584 26.4858 16.54 26.6378 16.54H28.9778C30.3298 16.54 31.3738 16.908 32.1098 17.644C32.8538 18.372 33.2258 19.412 33.2258 20.764C33.2258 22.116 32.8538 23.16 32.1098 23.896C31.3658 24.632 30.3218 25 28.9778 25H26.6378ZM28.9178 24.16C31.1098 24.16 32.2058 23.028 32.2058 20.764C32.2058 18.508 31.1098 17.38 28.9178 17.38H27.1178V24.16H28.9178Z" fill="white"/>
<defs>
<linearGradient id="paint0_linear_184_7732" x1="20.5" y1="0" x2="20.5" y2="41" gradientUnits="userSpaceOnUse">
<stop stop-color="#6B7DAA"/>
<stop offset="1" stop-color="white" stop-opacity="0.56"/>
</linearGradient>
</defs>
</svg>
