<?xml version="1.0" encoding="utf-8"?>
<!-- Generator: Adobe Illustrator 25.2.1, SVG Export Plug-In . SVG Version: 6.00 Build 0)  -->
<svg version="1.1" id="Livello_1" xmlns="http://www.w3.org/2000/svg" xmlns:xlink="http://www.w3.org/1999/xlink" x="0px" y="0px"
	 width="34.3px" height="34.3px" viewBox="0 0 34.3 34.3" style="enable-background:new 0 0 34.3 34.3;" xml:space="preserve">
<style type="text/css">
	.st0{fill:#1E2233;}
</style>
<g id="KHO8Pq.tif">
	<g>
		<path class="st0" d="M34,6.8c-0.4-3.3-2.5-5.7-5.6-6.4c-0.8-0.2-1.7-0.3-2.5-0.3c-2.9,0-5.8,0-8.7,0c0-0.1,0,0.1,0,0
			c0,0-6.9-0.1-10.4,0.2c-3.1,0.3-5.3,2-6.3,5C0.3,6.1,0.1,7.1,0.1,8c0,6.1-0.1,12.1,0,18.2c0.1,4.7,2.6,7.4,7.3,7.9
			c2.8,0.3,5.7,0.3,8.5,0.3c3.8,0,7.6,0,11.5-0.3c3.1-0.2,5.4-2,6.3-5c0.3-0.9,0.5-1.9,0.5-2.9c0.1-5.2,0.1-10.4,0.1-15.6
			C34.3,9.3,34.2,8,34,6.8z M17.1,27.9c-6,0-10.8-4.9-10.7-10.9c0-5.9,4.9-10.7,10.9-10.7c6,0,10.8,4.9,10.7,10.9
			C27.9,23.1,23,27.9,17.1,27.9z M28.3,8.4c-1.4,0-2.5-1.1-2.5-2.5c0-1.4,1.1-2.5,2.6-2.5c1.4,0,2.4,1.1,2.4,2.5
			C30.8,7.3,29.7,8.4,28.3,8.4z"/>
		<path class="st0" d="M10.1,17c0.1-3.9,3.2-7,7.1-6.9c3.9,0.1,7,3.3,6.9,7.1c-0.1,3.9-3.2,7-7.1,6.9C13.1,24,10,20.9,10.1,17z"/>
	</g>
</g>
</svg>
