<?xml version="1.0" encoding="utf-8"?>
<!-- Generator: Adobe Illustrator 25.2.1, SVG Export Plug-In . SVG Version: 6.00 Build 0)  -->
<svg version="1.1" id="Livello_1" xmlns="http://www.w3.org/2000/svg" xmlns:xlink="http://www.w3.org/1999/xlink" x="0px" y="0px"
	 width="40.2px" height="32.8px" viewBox="0 0 40.2 32.8" style="enable-background:new 0 0 40.2 32.8;" xml:space="preserve">
<style type="text/css">
	.st0{fill:#1E2233;}
</style>
<g>
	<path class="st0" d="M40.2,3.9c-0.8,0.3-1.5,0.6-2.3,0.8c-0.8,0.2-1.6,0.4-2.4,0.5c0.8-0.5,1.6-1.2,2.2-2c0.6-0.8,1.1-1.6,1.5-2.6
		c-0.9,0.4-1.7,0.8-2.6,1.2c-0.9,0.4-1.8,0.7-2.8,0.8c-0.7-0.9-1.5-1.5-2.6-2c-1-0.5-2.1-0.7-3.4-0.7c-2.2,0-4.2,0.8-5.8,2.4
		c-1.6,1.6-2.4,3.6-2.4,5.9c0,0.5,0.1,1.1,0.2,1.9c-3.5-0.2-6.7-1-9.6-2.6C7.4,6.1,4.9,4.1,2.8,1.5c-0.7,1.3-1,2.7-1,4.2
		c0,3.1,1.2,5.4,3.6,6.8c-1.4,0-2.6-0.3-3.7-0.9v0.1c0,2,0.6,3.8,1.9,5.3c1.2,1.5,2.8,2.5,4.6,2.8c-0.3,0.1-0.6,0.1-1,0.2
		c-0.4,0-0.8,0.1-1.2,0.1c-0.3,0-0.8-0.1-1.4-0.2c0.5,1.6,1.4,3,2.8,4.1c1.4,1.1,3,1.7,4.9,1.7C9.2,28,5.8,29.1,2,29.1H0
		c1.8,1.2,3.7,2.1,5.9,2.7c2.2,0.7,4.4,1,6.7,1c3.8,0,7.2-0.7,10.1-2.1c2.9-1.4,5.4-3.3,7.4-5.5s3.5-4.8,4.5-7.5
		c1-2.8,1.5-5.6,1.5-8.4v-1c0.9-0.6,1.6-1.3,2.3-2C39.1,5.5,39.7,4.7,40.2,3.9z"/>
</g>
</svg>
