<?xml version="1.0" encoding="utf-8"?>
<!-- Generator: Adobe Illustrator 25.2.1, SVG Export Plug-In . SVG Version: 6.00 Build 0)  -->
<svg version="1.1" id="Livello_1" xmlns="http://www.w3.org/2000/svg" xmlns:xlink="http://www.w3.org/1999/xlink" x="0px" y="0px"
	 width="41.3px" height="34.7px" viewBox="0 0 41.3 34.7" style="enable-background:new 0 0 41.3 34.7;" xml:space="preserve">
<style type="text/css">
	.st0{fill:#1E2233;}
</style>
<path class="st0" d="M40.6,0.5c-1.1-1-2.2-0.2-3.3,0.2c-3.5,1.3-7,2.7-10.5,4C18.5,7.9,10.2,11.1,2,14.3c-0.9,0.3-2.1,0.6-2,1.7
	c0.1,1.2,1.3,1.2,2.2,1.5c2.2,0.7,4.4,1.3,6.5,2.1c1.5,0.6,2.6,0.3,3.9-0.5c5.1-3.4,10.3-6.7,15.5-10c1.8-1.1,3.7-2.1,5.7-3.2
	c0.2,1.2-0.6,1.5-1,1.9c-5.1,4.6-10.3,9.3-15.5,13.9c-0.6,0.5-1.3,1-1.3,1.9c-0.2,2.3-0.4,4.7-0.5,7c0,0.5-0.2,1.1,0.4,1.4
	c0.7,0.3,1.1-0.2,1.5-0.6c1.1-1.1,2.2-2.2,3.3-3.3c0.8-0.9,1.5-0.9,2.4-0.1c1.3,1,2.6,2.2,4.1,2.9c1.4,1.1,2.7,2.2,4.1,3.2
	c1.8,1.2,3,0.7,3.6-1.4c0.1-0.4,0.2-0.7,0.3-1.1c0.2-1.1,0.4-2.3,0.6-3.4c0.3-1.2,0.5-2.4,0.8-3.6c0.3-1.2,0.5-2.4,0.8-3.6
	c1.2-5.8,2.5-11.5,3.6-17.3C41.2,2.7,41.6,1.4,40.6,0.5z"/>
</svg>
