<?xml version="1.0" encoding="utf-8"?>
<!-- Generator: Adobe Illustrator 25.2.1, SVG Export Plug-In . SVG Version: 6.00 Build 0)  -->
<svg version="1.1" id="Livello_1" xmlns="http://www.w3.org/2000/svg" xmlns:xlink="http://www.w3.org/1999/xlink" x="0px" y="0px"
	 width="28.9px" height="24.5px" viewBox="0 0 28.9 24.5" style="enable-background:new 0 0 28.9 24.5;" xml:space="preserve">
<style type="text/css">
	.st0{fill:url(#Tracciato_5359_1_);}
	.st1{fill:#1B1E36;}
	.st2{fill:#6F7390;}
	.st3{fill:#B7B9C8;}
	.st4{opacity:0.36;fill:#141416;enable-background:new    ;}
	.st5{fill:url(#SVGID_1_);}
	.st6{opacity:0.68;fill:#1E2023;enable-background:new    ;}
</style>
<g>
	
		<linearGradient id="Tracciato_5359_1_" gradientUnits="userSpaceOnUse" x1="10.8672" y1="826.2704" x2="19.304" y2="838.435" gradientTransform="matrix(1 0 0 1 0 -818)">
		<stop  offset="0" style="stop-color:#2E3148"/>
		<stop  offset="1" style="stop-color:#1B1E36"/>
	</linearGradient>
	<path id="Tracciato_5359_15_" class="st0" d="M24.9,11.9c-0.1,6.4-5.4,11.6-11.9,11.4C6.6,23.2,1.4,17.9,1.6,11.4S7-0.1,13.4,0
		S25,5.4,24.9,11.9L24.9,11.9"/>
</g>
<g>
	<circle class="st1" cx="13.3" cy="11.7" r="6.8"/>
	<path class="st2" d="M13.3,1.5C12,1.5,11,6,11,11.7s1,10.2,2.3,10.2s2.3-4.6,2.3-10.2S14.5,1.5,13.3,1.5z M13.5,21.3
		c-0.1,0.2-0.3,0-0.3,0c-0.6-0.7-0.9-1.9-0.9-1.9c-1-3.3-0.8-10.3-0.8-10.3C12,3.6,12.9,2.3,13.2,2c0.1-0.1,0.2-0.1,0.2,0
		c0.4,0.3,0.8,1.6,0.8,1.6c1.1,3.9,1,7.6,1,7.6c0.1,3.2-0.5,6.8-0.5,6.8C14.1,20.7,13.5,21.3,13.5,21.3z"/>
	<path class="st2" d="M22.2,6.6c-0.6-1.1-5.1,0.3-10,3.1s-8.4,6-7.7,7s5.1-0.3,10-3.1S22.8,7.7,22.2,6.6z M5,16.6
		c-0.2,0-0.2-0.2-0.2-0.2c0.3-0.8,1.2-1.7,1.2-1.7c2.3-2.5,8.5-5.8,8.5-5.8c5.1-2.4,6.6-2.3,7-2.2c0.1,0,0.1,0.1,0.1,0.2
		c0,0.5-1,1.5-1,1.5c-2.9,2.9-6.1,4.6-6.1,4.6C11.9,14.7,8.5,16,8.5,16C5.8,16.9,5,16.6,5,16.6z"/>
	<path class="st2" d="M22.1,16.8c0.6-1.1-2.8-4.3-7.7-7.1s-9.3-4.2-10-3.1s2.8,4.3,7.7,7.1S21.5,17.9,22.1,16.8z M4.9,7
		C4.8,6.8,5,6.7,5,6.7c0.9-0.2,2.1,0.2,2.1,0.2c3.3,0.8,9.3,4.5,9.3,4.5c4.6,3.2,5.3,4.6,5.4,5c0,0.1,0,0.2-0.1,0.2
		c-0.5,0.2-1.8-0.1-1.8-0.1c-3.9-1-7.1-3-7.1-3C10,12,7.2,9.6,7.2,9.6C5,7.9,4.9,7,4.9,7z"/>
	<circle class="st3" cx="13.3" cy="11.7" r="1.2"/>
	<ellipse class="st3" cx="18.2" cy="7.1" rx="0.7" ry="0.7"/>
	<ellipse class="st3" cx="6.7" cy="9.5" rx="0.7" ry="0.7"/>
	<ellipse class="st3" cx="11.8" cy="18.3" rx="0.7" ry="0.7"/>
</g>
<g>
	<path class="st4" d="M24.4,8.5C20.6,13.3,11.3,19.1,6.3,21c0,0,1.6,1.1,1.5,1l-6.9,1.8c0.2,0.1,0.6,0.3,1.5,0.3s2.2-0.2,4.3-1
		c2.2-0.9,5-2.3,7.8-3.9c3.9-2.4,8.5-5.7,11.3-8.8L24.4,8.5z"/>
	<g>
		
			<linearGradient id="SVGID_1_" gradientUnits="userSpaceOnUse" x1="18.2986" y1="835.5406" x2="12.4247" y2="828.9326" gradientTransform="matrix(1 0 0 1 0 -818)">
			<stop  offset="1.240079e-03" style="stop-color:#40405A"/>
			<stop  offset="0.5279" style="stop-color:#6F7390"/>
			<stop  offset="1" style="stop-color:#1B1E36"/>
		</linearGradient>
		<path class="st5" d="M22.4,4.5C23,4.3,23.6,4.1,24.2,4c1.6-0.3,2.3,0,2.4,0.2c0,0.1,0.4,0.7-0.9,3.1C22.9,12.4,10,20.7,4,22.1
			c-1.2,0.3-1.7,0.2-1.8,0.1c0-0.1,0-0.5,0.5-1.5c0.4-0.7,0.7-1.4,1.2-2.1l-1.2-2.1l-0.5,0.8c-0.6,0.8-1,1.6-1.4,2.4
			c-1.4,2.9-0.3,4,0.5,4.4c0.2,0.1,0.6,0.3,1.5,0.3s2.2-0.2,4.3-1c2.2-0.9,5-2.3,7.8-3.9c4.9-3,10.9-7.5,12.9-11.2
			C29,5.9,29.2,4.2,28.4,3c-0.8-1.1-2.3-1.5-4.6-1.1c-1,0.2-2.1,0.5-3,0.9C20.8,2.8,21.8,3.8,22.4,4.5"/>
	</g>
	<path class="st6" d="M3.2,19.8c0,0-0.9-0.9-1.4-1.9l0.9-1.3c0,0,0.7,1.3,1.3,2L3.2,19.8z"/>
	<path class="st6" d="M20.8,2.8c0,0,1.2,1.1,1.6,1.7l0.2-0.1c0,0-0.6-1-1.4-1.8C21.2,2.6,21.1,2.6,20.8,2.8z"/>
</g>
</svg>
