<?xml version="1.0" encoding="utf-8"?>
<!-- Generator: Adobe Illustrator 25.2.1, SVG Export Plug-In . SVG Version: 6.00 Build 0)  -->
<svg version="1.1" id="Livello_1" xmlns="http://www.w3.org/2000/svg" xmlns:xlink="http://www.w3.org/1999/xlink" x="0px" y="0px"
	 width="28.9px" height="24.5px" viewBox="0 0 28.9 24.5" style="enable-background:new 0 0 28.9 24.5;" xml:space="preserve">
<style type="text/css">
	.st0{fill:url(#Tracciato_5359_1_);}
	.st1{fill:url(#SVGID_1_);}
	.st2{opacity:0.16;fill:#462100;}
	.st3{fill:url(#SVGID_2_);}
</style>
<g>
	<linearGradient id="Tracciato_5359_1_" gradientUnits="userSpaceOnUse" x1="10.865" y1="8.2719" x2="19.3018" y2="20.4365">
		<stop  offset="0" style="stop-color:#1E2434"/>
		<stop  offset="1" style="stop-color:#000000"/>
	</linearGradient>
	<path id="Tracciato_5359_16_" class="st0" d="M24.9,11.9c-0.1,6.4-5.4,11.6-11.9,11.4C6.6,23.2,1.4,17.9,1.6,11.4S7-0.1,13.4,0
		S25,5.4,24.9,11.9L24.9,11.9 M19,13.5c0-0.4-0.1-0.9-0.3-1.2c-0.3-0.5-0.7-0.9-1.2-1c-0.2-0.1-0.3-0.1-0.5-0.2c0,0,0,0,0,0l0.1,0
		c0.5-0.2,0.8-0.6,1-1.1c0.1-0.4,0.2-0.8,0.1-1.2c0-0.7-0.4-1.3-1-1.7c-0.5-0.3-1.1-0.5-1.7-0.6c-0.2,0-0.4-0.1-0.7-0.1l0-2.3
		l-1.4,0l0,2.3l-1.1,0l0-2.3l-1.4,0l0,2.3l-2.8,0l0,1.5l0.1,0c0.4,0,0.7,0,1.1,0c0.4,0,0.7,0.3,0.7,0.7c0,0,0,0,0,0
		c0,2.1-0.1,4.1-0.1,6.1c0,0.3-0.2,0.5-0.5,0.5c0,0,0,0-0.1,0c-0.3,0-0.6,0-1,0c-0.1,0-0.1,0-0.1,0.1c-0.1,0.5-0.2,1-0.3,1.6
		c0,0,0,0,0,0.1l2.8,0l0,2.3l1.4,0l0-2.3l1.1,0l0,2.3l1.4,0l0-2.3l0.1,0c0.3,0,0.6,0,0.9-0.1c0.6-0.1,1.1-0.2,1.7-0.4
		c0.6-0.2,1.1-0.7,1.4-1.3C18.9,14.6,19,14,19,13.5 M16.1,13.2c0.2,0.6-0.1,1.3-0.6,1.5c-0.4,0.2-0.7,0.3-1.1,0.3
		c-0.7,0.1-1.4,0.1-2.1,0.1c0,0,0,0,0,0l0.1-3.1c0,0,0.1,0,0.1,0c0.5,0,1,0,1.6,0c0.5,0,1,0.1,1.4,0.3C15.7,12.5,16,12.8,16.1,13.2
		 M12.3,10.6C12.3,10.6,12.3,10.6,12.3,10.6l0-2.8c0.2,0,0.4,0,0.6,0c0.5,0,1,0,1.5,0.2C14.7,8,15,8.2,15.2,8.4
		c0.5,0.5,0.5,1.2,0,1.7c-0.1,0.1-0.2,0.2-0.3,0.2c-0.3,0.2-0.7,0.3-1,0.3C13.4,10.6,12.9,10.6,12.3,10.6"/>
	<linearGradient id="SVGID_1_" gradientUnits="userSpaceOnUse" x1="12.2143" y1="10.7078" x2="15.4358" y2="17.5748">
		<stop  offset="0" style="stop-color:#FFF0FF"/>
		<stop  offset="0.3496" style="stop-color:#FCEAFF"/>
		<stop  offset="1" style="stop-color:#AAA3AE"/>
	</linearGradient>
	<path class="st1" d="M14.6,19.2l0-2.3l0.1,0c0.3,0,0.6,0,0.9-0.1c0.6-0.1,1.1-0.2,1.7-0.4c0.6-0.2,1.1-0.7,1.4-1.3
		c0.2-0.5,0.3-1.1,0.3-1.6l0,0c0-0.4-0.1-0.9-0.3-1.2c-0.3-0.5-0.7-0.9-1.2-1c-0.2-0.1-0.3-0.1-0.5-0.2c0,0,0,0,0,0l0.1,0
		c0.5-0.2,0.8-0.6,1-1.1c0.1-0.4,0.2-0.8,0.1-1.2c0-0.7-0.4-1.3-1-1.7c-0.5-0.3-1.1-0.5-1.7-0.6c-0.2,0-0.4-0.1-0.7-0.1l0-2.3
		l-1.4,0l0,2.3l-1.1,0l0-2.3l-1.4,0l0,2.3l-2.8,0l0,1.5l0.1,0c0.4,0,0.7,0,1.1,0c0.4,0,0.7,0.3,0.7,0.7c0,0,0,0,0,0
		c0,2.1-0.1,4.1-0.1,6.1c0,0.3-0.2,0.5-0.5,0.5c0,0,0,0-0.1,0c-0.3,0-0.6,0-1,0c-0.1,0-0.1,0-0.1,0.1c-0.1,0.5-0.2,1-0.3,1.6
		c0,0,0,0,0,0.1l2.8,0l0,2.3l1.4,0l0-2.3l1.1,0l0,2.3L14.6,19.2z M12.3,7.8c0.2,0,0.4,0,0.6,0c0.5,0,1,0,1.5,0.2
		C14.7,8,15,8.2,15.2,8.4c0.5,0.5,0.5,1.2,0,1.7c-0.1,0.1-0.2,0.2-0.3,0.2c-0.3,0.2-0.7,0.3-1,0.3c-0.5,0.1-1.1,0.1-1.6,0l0,0
		c0,0,0,0-0.1,0L12.3,7.8z M12.2,15.1C12.2,15.1,12.2,15.1,12.2,15.1l0-3.1c0,0,0.1,0,0.1,0c0.5,0,1,0,1.6,0c0.5,0,1,0.1,1.4,0.3
		c0.4,0.1,0.6,0.4,0.8,0.8l0,0c0.2,0.6-0.1,1.3-0.6,1.5c-0.4,0.2-0.7,0.3-1.1,0.3C13.6,15.2,12.9,15.2,12.2,15.1z"/>
	<g>
		<path class="st2" d="M24.4,8.5c-3.8,4.8-13.1,10.6-18.1,12.5c0,0,1.6,1.1,1.5,1l-6.9,1.8c0.2,0.1,0.6,0.3,1.5,0.3
			c0.9,0,2.2-0.2,4.3-1c2.2-0.9,5-2.3,7.8-3.9c3.9-2.4,8.5-5.7,11.3-8.8L24.4,8.5z"/>
		<g>
			<linearGradient id="SVGID_2_" gradientUnits="userSpaceOnUse" x1="18.257" y1="17.5777" x2="12.3831" y2="10.9696">
				<stop  offset="0" style="stop-color:#FFA500"/>
				<stop  offset="0.5279" style="stop-color:#FF8800"/>
				<stop  offset="1" style="stop-color:#B85300"/>
			</linearGradient>
			<path class="st3" d="M22.4,4.5c0.6-0.2,1.2-0.4,1.8-0.5c1.6-0.3,2.3,0,2.4,0.2c0,0.1,0.4,0.7-0.9,3.1C22.9,12.4,10,20.7,4,22.1
				c-1.2,0.3-1.7,0.2-1.8,0.1c0-0.1,0-0.5,0.5-1.5c0.4-0.7,0.7-1.4,1.2-2.1l-1.2-2.1l-0.5,0.8c-0.6,0.8-1,1.6-1.4,2.4
				c-1.4,2.9-0.3,4,0.5,4.4c0.2,0.1,0.6,0.3,1.5,0.3c0.9,0,2.2-0.2,4.3-1c2.2-0.9,5-2.3,7.8-3.9c4.9-3,10.9-7.5,12.9-11.2
				C29,5.9,29.2,4.2,28.4,3c-0.8-1.1-2.3-1.5-4.6-1.1c-1,0.2-2.1,0.5-3,0.9C20.8,2.8,21.8,3.8,22.4,4.5"/>
		</g>
		<path class="st2" d="M3.2,19.8c0,0-0.9-0.9-1.4-1.9l0.9-1.3c0,0,0.7,1.3,1.3,2L3.2,19.8z"/>
		<path class="st2" d="M20.8,2.8c0,0,1.2,1.1,1.6,1.7l0.2-0.1c0,0-0.6-1-1.4-1.8C21.2,2.6,21.1,2.6,20.8,2.8z"/>
	</g>
</g>
</svg>
