<?xml version="1.0" encoding="utf-8"?>
<!-- Generator: Adobe Illustrator 25.2.1, SVG Export Plug-In . SVG Version: 6.00 Build 0)  -->
<svg version="1.1" id="Livello_1" xmlns="http://www.w3.org/2000/svg" xmlns:xlink="http://www.w3.org/1999/xlink" x="0px" y="0px"
	 width="28.9px" height="24.5px" viewBox="0 0 28.9 24.5" style="enable-background:new 0 0 28.9 24.5;" xml:space="preserve">
<style type="text/css">
	.st0{fill:url(#Tracciato_5359_1_);}
	.st1{fill:#FFFFFF;}
	.st2{opacity:0.16;fill:#413D42;enable-background:new    ;}
	.st3{fill:url(#SVGID_1_);}
</style>
<g>
	
		<linearGradient id="Tracciato_5359_1_" gradientUnits="userSpaceOnUse" x1="10.8672" y1="15.6196" x2="19.304" y2="3.455" gradientTransform="matrix(1 0 0 -1 0 23.89)">
		<stop  offset="0" style="stop-color:#F0B90B"/>
		<stop  offset="1" style="stop-color:#6F5605"/>
	</linearGradient>
	<path id="Tracciato_5359_15_" class="st0" d="M24.9,11.9c-0.1,6.4-5.4,11.6-11.9,11.4C6.6,23.2,1.4,17.9,1.6,11.4S7-0.1,13.4,0
		S25,5.4,24.9,11.9L24.9,11.9"/>
</g>
<g>
	<polygon class="st1" points="18,9.3 16.3,8.4 13.4,10 10.5,8.4 8.8,9.3 8.8,11.3 11.7,12.9 11.7,16.3 13.4,17.3 15.1,16.3 
		15.1,12.9 18,11.3 	"/>
	<polygon class="st1" points="19.2,8.6 19.2,10.7 20.8,9.6 20.8,7.6 19.1,6.7 17.4,7.6 	"/>
	<polygon class="st1" points="19.1,12 19.1,15.3 16.2,17 16.2,19.1 20.8,16.4 20.8,11 	"/>
	<polygon class="st1" points="17.9,14.7 17.9,12.7 16.2,13.6 16.2,15.7 	"/>
	<polygon class="st1" points="13.3,5.3 16.2,6.9 17.9,5.9 13.3,3.3 8.8,5.9 10.5,6.9 	"/>
	<polygon class="st1" points="7.5,8.6 9.2,7.6 7.6,6.7 5.9,7.6 5.9,9.6 7.5,10.7 	"/>
	<polygon class="st1" points="7.6,12 5.8,11 5.8,16.4 10.5,19.1 10.5,17 7.6,15.3 	"/>
	<polygon class="st1" points="13.3,8.7 13.3,8.7 13.3,8.7 15.1,7.7 13.3,6.7 13.3,6.7 13.3,6.7 13.3,6.7 13.3,6.7 11.6,7.7 
		13.3,8.7 	"/>
	<polygon class="st1" points="10.4,13.6 8.7,12.7 8.7,14.7 10.4,15.7 	"/>
	<polygon class="st1" points="11.6,17.6 11.6,19.7 13.3,20.7 15,19.7 15,17.6 13.3,18.6 	"/>
</g>
<g>
	<path class="st2" d="M24.4,8.5C20.6,13.3,11.3,19.1,6.3,21c0,0,1.6,1.1,1.5,1l-6.9,1.8c0.2,0.1,0.6,0.3,1.5,0.3s2.2-0.2,4.3-1
		c2.2-0.9,5-2.3,7.8-3.9c3.9-2.4,8.5-5.7,11.3-8.8L24.4,8.5z"/>
	<g>
		
			<linearGradient id="SVGID_1_" gradientUnits="userSpaceOnUse" x1="18.2986" y1="6.3493" x2="12.4247" y2="12.9574" gradientTransform="matrix(1 0 0 -1 0 23.89)">
			<stop  offset="0" style="stop-color:#FFC743"/>
			<stop  offset="0.5279" style="stop-color:#FCEAC7"/>
			<stop  offset="1" style="stop-color:#E3A36E"/>
		</linearGradient>
		<path class="st3" d="M22.4,4.5C23,4.3,23.6,4.1,24.2,4c1.6-0.3,2.3,0,2.4,0.2c0,0.1,0.4,0.7-0.9,3.1C22.9,12.4,10,20.7,4,22.1
			c-1.2,0.3-1.7,0.2-1.8,0.1c0-0.1,0-0.5,0.5-1.5c0.4-0.7,0.7-1.4,1.2-2.1l-1.2-2.1l-0.5,0.8c-0.6,0.8-1,1.6-1.4,2.4
			c-1.4,2.9-0.3,4,0.5,4.4c0.2,0.1,0.6,0.3,1.5,0.3s2.2-0.2,4.3-1c2.2-0.9,5-2.3,7.8-3.9c4.9-3,10.9-7.5,12.9-11.2
			C29,5.9,29.2,4.2,28.4,3c-0.8-1.1-2.3-1.5-4.6-1.1c-1,0.2-2.1,0.5-3,0.9C20.8,2.8,21.8,3.8,22.4,4.5"/>
	</g>
	<path class="st2" d="M3.2,19.8c0,0-0.9-0.9-1.4-1.9l0.9-1.3c0,0,0.7,1.3,1.3,2L3.2,19.8z"/>
	<path class="st2" d="M20.8,2.8c0,0,1.2,1.1,1.6,1.7l0.2-0.1c0,0-0.6-1-1.4-1.8C21.2,2.6,21.1,2.6,20.8,2.8z"/>
</g>
</svg>
