<?xml version="1.0" encoding="utf-8"?>
<!-- Generator: Adobe Illustrator 25.2.1, SVG Export Plug-In . SVG Version: 6.00 Build 0)  -->
<svg version="1.1" id="Livello_1" xmlns="http://www.w3.org/2000/svg" xmlns:xlink="http://www.w3.org/1999/xlink" x="0px" y="0px"
	 width="28.9px" height="24.5px" viewBox="0 0 28.9 24.5" style="enable-background:new 0 0 28.9 24.5;" xml:space="preserve">
<style type="text/css">
	.st0{fill:url(#Tracciato_5359_1_);}
	.st1{fill:#8B8B8B;}
	.st2{fill:url(#SVGID_1_);}
	.st3{fill:url(#SVGID_2_);}
	.st4{fill:url(#SVGID_3_);}
	.st5{fill:url(#SVGID_4_);}
	.st6{opacity:0.16;fill:#413D42;}
	.st7{fill:url(#SVGID_5_);}
</style>
<g>
	<linearGradient id="Tracciato_5359_1_" gradientUnits="userSpaceOnUse" x1="10.865" y1="8.2719" x2="19.3018" y2="20.4365">
		<stop  offset="0" style="stop-color:#1E2434"/>
		<stop  offset="1" style="stop-color:#000000"/>
	</linearGradient>
	<path id="Tracciato_5359_15_" class="st0" d="M24.9,11.9c-0.1,6.4-5.4,11.6-11.9,11.4C6.6,23.2,1.4,17.9,1.6,11.4S7-0.1,13.4,0
		S25,5.4,24.9,11.9L24.9,11.9"/>
	<g>
		<polygon class="st1" points="13.2,3.5 13.1,3.9 13.1,15.2 13.2,15.3 18.4,12.2 		"/>
		<linearGradient id="SVGID_1_" gradientUnits="userSpaceOnUse" x1="12.4585" y1="9.0807" x2="5.3588" y2="5.8072">
			<stop  offset="0" style="stop-color:#FFF0FF"/>
			<stop  offset="0.5279" style="stop-color:#FCEAFF"/>
			<stop  offset="1" style="stop-color:#AAA3AE"/>
		</linearGradient>
		<polygon class="st2" points="13.2,3.5 7.9,12.2 13.2,15.3 13.2,9.8 		"/>
		<polygon class="st1" points="13.2,16.3 13.1,16.3 13.1,20.3 13.2,20.5 18.4,13.2 		"/>
		<linearGradient id="SVGID_2_" gradientUnits="userSpaceOnUse" x1="7.9413" y1="16.852" x2="13.1594" y2="16.852">
			<stop  offset="0" style="stop-color:#FFF0FF"/>
			<stop  offset="0.5279" style="stop-color:#FCEAFF"/>
			<stop  offset="1" style="stop-color:#AAA3AE"/>
		</linearGradient>
		<polygon class="st3" points="13.2,20.5 13.2,16.3 7.9,13.2 		"/>
		<linearGradient id="SVGID_3_" gradientUnits="userSpaceOnUse" x1="9.194" y1="9.3137" x2="14.1736" y2="12.66">
			<stop  offset="0" style="stop-color:#FFF0FF"/>
			<stop  offset="0.5279" style="stop-color:#FCEAFF"/>
			<stop  offset="1" style="stop-color:#AAA3AE"/>
		</linearGradient>
		<polygon class="st4" points="13.2,15.3 18.4,12.2 13.2,9.8 		"/>
		<linearGradient id="SVGID_4_" gradientUnits="userSpaceOnUse" x1="10.5774" y1="14.8344" x2="10.5375" y2="9.1776">
			<stop  offset="0" style="stop-color:#FFF0FF"/>
			<stop  offset="0.5279" style="stop-color:#FCEAFF"/>
			<stop  offset="1" style="stop-color:#AAA3AE"/>
		</linearGradient>
		<polygon class="st5" points="7.9,12.2 13.2,15.3 13.2,9.8 		"/>
	</g>
	<g>
		<path class="st6" d="M24.4,8.5c-3.8,4.8-13.1,10.6-18.1,12.5c0,0,1.6,1.1,1.5,1l-6.9,1.8c0.2,0.1,0.6,0.3,1.5,0.3
			c0.9,0,2.2-0.2,4.3-1c2.2-0.9,5-2.3,7.8-3.9c3.9-2.4,8.5-5.7,11.3-8.8L24.4,8.5z"/>
		<g>
			<linearGradient id="SVGID_5_" gradientUnits="userSpaceOnUse" x1="18.257" y1="17.5777" x2="12.3831" y2="10.9696">
				<stop  offset="0" style="stop-color:#FFF0FF"/>
				<stop  offset="0.5279" style="stop-color:#FCEAFF"/>
				<stop  offset="1" style="stop-color:#AAA3AE"/>
			</linearGradient>
			<path class="st7" d="M22.4,4.5c0.6-0.2,1.2-0.4,1.8-0.5c1.6-0.3,2.3,0,2.4,0.2c0,0.1,0.4,0.7-0.9,3.1C22.9,12.4,10,20.7,4,22.1
				c-1.2,0.3-1.7,0.2-1.8,0.1c0-0.1,0-0.5,0.5-1.5c0.4-0.7,0.7-1.4,1.2-2.1l-1.2-2.1l-0.5,0.8c-0.6,0.8-1,1.6-1.4,2.4
				c-1.4,2.9-0.3,4,0.5,4.4c0.2,0.1,0.6,0.3,1.5,0.3c0.9,0,2.2-0.2,4.3-1c2.2-0.9,5-2.3,7.8-3.9c4.9-3,10.9-7.5,12.9-11.2
				C29,5.9,29.2,4.2,28.4,3c-0.8-1.1-2.3-1.5-4.6-1.1c-1,0.2-2.1,0.5-3,0.9C20.8,2.8,21.8,3.8,22.4,4.5"/>
		</g>
		<path class="st6" d="M3.2,19.8c0,0-0.9-0.9-1.4-1.9l0.9-1.3c0,0,0.7,1.3,1.3,2L3.2,19.8z"/>
		<path class="st6" d="M20.8,2.8c0,0,1.2,1.1,1.6,1.7l0.2-0.1c0,0-0.6-1-1.4-1.8C21.2,2.6,21.1,2.6,20.8,2.8z"/>
	</g>
</g>
</svg>
